<?xml version="1.0" encoding="utf-8"?>
<!-- Generator: Adobe Illustrator 23.0.3, SVG Export Plug-In . SVG Version: 6.00 Build 0)  -->
<svg version="1.1" xmlns="http://www.w3.org/2000/svg" xmlns:xlink="http://www.w3.org/1999/xlink" x="0px" y="0px"
	 viewBox="0 0 750 500" style="enable-background:new 0 0 750 500;" xml:space="preserve">
<style type="text/css">
	.st0{fill:none;}
	.st1{fill:#FFFFFF;}
	.st2{fill:url(#SVGID_1_);}
	.st3{clip-path:url(#SVGID_3_);}
	.st4{opacity:0.33;fill:url(#SVGID_4_);}
	.st5{fill:url(#SVGID_5_);}
	.st6{fill:none;stroke:#7DB3E6;stroke-width:3;stroke-miterlimit:10;}
	.st7{fill:url(#SVGID_6_);}
	.st8{fill:url(#SVGID_7_);}
	.st9{fill:url(#SVGID_8_);}
	.st10{fill:none;stroke:url(#SVGID_9_);stroke-width:2;stroke-miterlimit:10;}
	.st11{fill:url(#SVGID_10_);}
	.st12{fill:none;stroke:url(#SVGID_11_);stroke-width:2;stroke-miterlimit:10;}
	.st13{opacity:0.33;fill:url(#SVGID_12_);}
	.st14{fill:url(#SVGID_13_);}
	.st15{fill:url(#SVGID_14_);}
	.st16{fill:url(#SVGID_15_);}
	.st17{opacity:0.24;fill:url(#SVGID_16_);}
	.st18{fill:url(#SVGID_17_);}
	.st19{fill:none;stroke:#FFFFFF;stroke-miterlimit:10;}
</style>
<pattern  x="225" y="100" width="5" height="5" patternUnits="userSpaceOnUse" id="Nueva_muestra_de_motivo_1" viewBox="0 -5 5 5" style="overflow:visible;">
	<g>
		<rect y="-5" class="st0" width="5" height="5"/>
		<circle class="st1" cx="2.5" cy="-2.5" r="0.84"/>
	</g>
</pattern>
<g id="BACKGROUND">
	<linearGradient id="SVGID_1_" gradientUnits="userSpaceOnUse" x1="231.1504" y1="494.3038" x2="514.2209" y2="13.5573">
		<stop  offset="0" style="stop-color:#9ECEDB"/>
		<stop  offset="1" style="stop-color:#7DB3E6"/>
	</linearGradient>
	<rect class="st2" width="750" height="500"/>
	<g>
		<defs>
			<rect id="SVGID_2_" width="750" height="500"/>
		</defs>
		<clipPath id="SVGID_3_">
			<use xlink:href="#SVGID_2_"  style="overflow:visible;"/>
		</clipPath>
		<g class="st3">
			<linearGradient id="SVGID_4_" gradientUnits="userSpaceOnUse" x1="669.2856" y1="74.1617" x2="123.1839" y2="388.4517">
				<stop  offset="0" style="stop-color:#9ECEDB"/>
				<stop  offset="1" style="stop-color:#93B3E6"/>
			</linearGradient>
			<polygon class="st4" points="0,500 225.89,187.84 750,0 609.63,250 			"/>
			<linearGradient id="SVGID_5_" gradientUnits="userSpaceOnUse" x1="304.6663" y1="30.618" x2="91.1771" y2="284.4331">
				<stop  offset="0" style="stop-color:#9ECEDB"/>
				<stop  offset="1" style="stop-color:#7DB3E6"/>
			</linearGradient>
			<circle class="st5" cx="208.08" cy="145.44" r="175.91"/>
			
				<ellipse transform="matrix(0.2424 -0.9702 0.9702 0.2424 58.5515 529.0259)" class="st6" cx="368.01" cy="227.02" rx="60.86" ry="60.86"/>
			<linearGradient id="SVGID_6_" gradientUnits="userSpaceOnUse" x1="739.1984" y1="258.9727" x2="626.2043" y2="393.3101">
				<stop  offset="0" style="stop-color:#9ECEDB"/>
				<stop  offset="1" style="stop-color:#93B3E6"/>
			</linearGradient>
			<circle class="st7" cx="682.7" cy="326.14" r="87.77"/>
			<linearGradient id="SVGID_7_" gradientUnits="userSpaceOnUse" x1="48.1099" y1="160.2166" x2="-32.9252" y2="256.5584">
				<stop  offset="0" style="stop-color:#9ECEDB"/>
				<stop  offset="1" style="stop-color:#93B3E6"/>
			</linearGradient>
			<circle class="st8" cx="7.59" cy="208.39" r="62.94"/>
			<linearGradient id="SVGID_8_" gradientUnits="userSpaceOnUse" x1="630.2236" y1="368.2257" x2="597.7422" y2="406.8424">
				<stop  offset="0" style="stop-color:#9ECEDB"/>
				<stop  offset="1" style="stop-color:#7DB3E6"/>
			</linearGradient>
			<circle class="st9" cx="613.98" cy="387.53" r="25.23"/>
			<linearGradient id="SVGID_9_" gradientUnits="userSpaceOnUse" x1="57.8295" y1="111.8614" x2="105.6902" y2="111.8614">
				<stop  offset="0" style="stop-color:#9ECEDB"/>
				<stop  offset="1" style="stop-color:#93B3E6"/>
			</linearGradient>
			
				<ellipse transform="matrix(0.2298 -0.9732 0.9732 0.2298 -45.8936 165.7336)" class="st10" cx="81.76" cy="111.86" rx="22.93" ry="22.93"/>
			
				<pattern  id="SVGID_10_" xlink:href="#Nueva_muestra_de_motivo_1" patternTransform="matrix(0.7071 0.7071 -0.7071 0.7071 -7829.1343 3599.1719)">
			</pattern>
			<polygon class="st11" points="558.26,242.1 458.85,142.69 558.26,43.28 657.67,142.69 			"/>
			<linearGradient id="SVGID_11_" gradientUnits="userSpaceOnUse" x1="232.1535" y1="425.7542" x2="410.6999" y2="425.7542">
				<stop  offset="0" style="stop-color:#9ECEDB"/>
				<stop  offset="1" style="stop-color:#93B3E6"/>
			</linearGradient>
			
				<rect x="259.3" y="363.63" transform="matrix(0.7071 0.7071 -0.7071 0.7071 395.1971 -102.5825)" class="st12" width="124.25" height="124.25"/>
			<linearGradient id="SVGID_12_" gradientUnits="userSpaceOnUse" x1="181.4994" y1="425.7542" x2="287.7814" y2="425.7542">
				<stop  offset="0" style="stop-color:#9ECEDB"/>
				<stop  offset="1" style="stop-color:#93B3E6"/>
			</linearGradient>
			<polygon class="st13" points="234.64,478.9 181.5,425.75 234.64,372.61 287.78,425.75 			"/>
			<linearGradient id="SVGID_13_" gradientUnits="userSpaceOnUse" x1="309.1136" y1="424.9403" x2="560.8144" y2="424.9403">
				<stop  offset="0" style="stop-color:#9ECEDB"/>
				<stop  offset="1" style="stop-color:#7DB3E6"/>
			</linearGradient>
			<polygon class="st14" points="434.96,550.79 309.11,424.94 434.96,299.09 560.81,424.94 			"/>
			
				<pattern  id="SVGID_14_" xlink:href="#Nueva_muestra_de_motivo_1" patternTransform="matrix(0.7071 0.7071 -0.7071 0.7071 -7829.1343 3599.1719)">
			</pattern>
			<circle class="st15" cx="546.01" cy="500" r="62.94"/>
			
				<pattern  id="SVGID_15_" xlink:href="#Nueva_muestra_de_motivo_1" patternTransform="matrix(0.7071 0.7071 -0.7071 0.7071 -7829.1343 3599.1719)">
			</pattern>
			<polygon class="st16" points="87.43,436.65 32.18,381.39 87.43,326.14 142.68,381.39 			"/>
			<linearGradient id="SVGID_16_" gradientUnits="userSpaceOnUse" x1="0" y1="54.5666" x2="472.247" y2="54.5666">
				<stop  offset="0" style="stop-color:#9ECEDB"/>
				<stop  offset="1" style="stop-color:#93B3E6"/>
			</linearGradient>
			<polygon class="st17" points="0,0 220.65,109.13 472.25,0 			"/>
			<linearGradient id="SVGID_17_" gradientUnits="userSpaceOnUse" x1="700.3584" y1="166.161" x2="723.8404" y2="166.161">
				<stop  offset="0" style="stop-color:#9ECEDB"/>
				<stop  offset="1" style="stop-color:#7DB3E6"/>
			</linearGradient>
			<circle class="st18" cx="712.1" cy="166.16" r="11.74"/>
			<line class="st19" x1="284.98" y1="130.94" x2="446.12" y2="63.85"/>
			<line class="st19" x1="58.83" y1="304.88" x2="123.06" y2="278.13"/>
			<line class="st19" x1="691.72" y1="474.65" x2="755.96" y2="447.91"/>
			<line class="st19" x1="481.77" y1="375.68" x2="517.26" y2="360.9"/>
			<line class="st19" x1="77.95" y1="500" x2="113.43" y2="485.23"/>
			<line class="st19" x1="528.27" y1="326.14" x2="578.66" y2="305.16"/>
			
				<ellipse transform="matrix(0.1597 -0.9872 0.9872 0.1597 494.6487 659.3162)" class="st19" cx="634.6" cy="39.11" rx="9.64" ry="9.64"/>
			<path class="st19" d="M269.72,255.25c0,2.9-2.35,5.25-5.25,5.25c-2.9,0-5.25-2.35-5.25-5.25c0-2.9,2.35-5.25,5.25-5.25
				C267.37,250,269.72,252.35,269.72,255.25z"/>
			<path class="st19" d="M378.78,419.3c0,2.97-2.41,5.39-5.39,5.39c-2.97,0-5.39-2.41-5.39-5.39c0-2.98,2.41-5.39,5.39-5.39
				C376.37,413.91,378.78,416.32,378.78,419.3z"/>
			<circle class="st19" cx="32.77" cy="44.53" r="10.04"/>
			<path class="st19" d="M669.74,441.88c0,2.66-2.16,4.82-4.82,4.82c-2.66,0-4.82-2.16-4.82-4.82c0-2.66,2.16-4.82,4.82-4.82
				C667.58,437.06,669.74,439.21,669.74,441.88z"/>
			<path class="st19" d="M22.73,418.1c0,2.32-1.88,4.19-4.19,4.19s-4.19-1.88-4.19-4.19c0-2.32,1.88-4.19,4.19-4.19
				S22.73,415.79,22.73,418.1z"/>
		</g>
	</g>
</g>
<g id="DESIGNED_BY_FREEPIK">
</g>
</svg>
