<?xml version="1.0" encoding="utf-8"?>
<!-- Generator: Adobe Illustrator 23.0.3, SVG Export Plug-In . SVG Version: 6.00 Build 0)  -->
<svg version="1.1" xmlns="http://www.w3.org/2000/svg" xmlns:xlink="http://www.w3.org/1999/xlink" x="0px" y="0px"
	 viewBox="0 0 750 500" style="enable-background:new 0 0 750 500;" xml:space="preserve">
<style type="text/css">
	.st0{fill:#C8CAD6;}
	.st1{fill:#D9EFF0;}
	.st2{fill:#004E87;}
	.st3{fill:#00D1D1;}
	.st4{fill:#FFFFFF;}
	.st5{fill:#FFC72C;}
	.st6{opacity:0.9;}
	.st7{fill:#8DC3D2;}
	.st8{fill:#00AEBA;}
	.st9{opacity:0.6;fill:#C8CAD6;}
	.st10{fill:#1371A9;}
</style>
<g id="BACKGROUND_2">
	<g>
		<polygon class="st0" points="750,319.83 435.81,500 750,500 		"/>
		<polygon class="st1" points="720.96,236.24 767.67,209.27 767.67,278.51 720.96,305.48 		"/>
		<polygon class="st2" points="720.96,236.24 674.24,209.27 674.24,278.51 720.96,305.48 		"/>
		<polygon class="st3" points="674.24,209.27 720.96,182.87 767.67,209.27 720.96,236.24 		"/>
		<polygon class="st4" points="650.09,500 720.96,459.09 720.96,540.05 650.09,580.97 		"/>
		<polygon class="st3" points="650.09,500 579.23,459.09 579.23,540.05 650.09,580.97 		"/>
		<polygon class="st0" points="579.23,459.09 650.09,419.03 720.96,459.09 650.09,500 		"/>
		<polygon class="st4" points="609.44,374.13 650.47,350.44 650.47,397.32 609.44,421.02 		"/>
		<polygon class="st2" points="609.44,374.13 568.4,350.44 568.4,397.32 609.44,421.02 		"/>
		<polygon class="st5" points="568.4,350.44 609.44,327.24 650.47,350.44 609.44,374.13 		"/>
		<g class="st6">
			<polygon class="st7" points="577.78,392.39 598.32,380.53 598.32,439.05 577.78,450.91 			"/>
			<polygon class="st1" points="577.78,392.39 557.23,380.53 557.23,439.05 577.78,450.91 			"/>
			<polygon class="st4" points="557.23,380.53 577.78,368.92 598.32,380.53 577.78,392.39 			"/>
		</g>
		<polygon class="st5" points="419.08,362.28 460.12,385.48 419.08,409.17 		"/>
		<polygon class="st4" points="529.77,299.56 584.7,330.6 529.77,362.31 		"/>
		<polygon class="st5" points="654.72,275.14 670.61,284.12 654.72,293.29 		"/>
		<polygon class="st0" points="400.88,433.81 378.7,446.35 400.88,459.15 		"/>
		<polygon class="st3" points="315.18,454.78 394.34,499.52 315.18,545.22 		"/>
		<polygon class="st3" points="670.61,341.01 711.65,317.32 711.65,524.22 670.61,547.91 		"/>
		<polygon class="st2" points="729.48,204.08 770.52,180.39 770.52,497.3 729.48,520.99 		"/>
		<polygon class="st8" points="670.61,341.01 629.57,317.32 629.57,524.22 670.61,547.91 		"/>
		<polygon class="st0" points="629.57,317.32 670.61,294.12 711.65,317.32 670.61,341.01 		"/>
		<polygon class="st9" points="209.72,499.58 278.53,460.69 347.34,499.58 278.53,539.31 		"/>
		<polygon class="st1" points="601.14,288.28 778.65,188.22 799.17,199.82 621.66,300.13 		"/>
		<polygon class="st1" points="499.66,511.26 603.65,452.21 624.17,463.81 520.17,523.11 		"/>
		<polygon class="st1" points="484.95,465.05 554.37,424.97 554.37,527.87 484.95,567.95 		"/>
		<polygon class="st7" points="484.95,465.05 415.52,424.97 415.52,527.87 484.95,567.95 		"/>
		<polygon class="st2" points="415.52,424.97 484.95,385.73 554.37,424.97 484.95,465.05 		"/>
		<polygon class="st10" points="415.52,424.97 484.95,385.73 484.95,465.05 		"/>
		<g class="st6">
			<polygon class="st7" points="729.48,443.9 768.02,421.65 768.02,531.42 729.48,553.67 			"/>
			<polygon class="st1" points="729.48,443.9 690.94,421.65 690.94,531.42 729.48,553.67 			"/>
			<polygon class="st4" points="690.94,421.65 729.48,399.87 768.02,421.65 729.48,443.9 			"/>
		</g>
		<polygon class="st4" points="344.12,508.88 432.35,459.15 442.55,464.91 354.32,514.77 		"/>
		<polygon class="st4" points="764.14,126.12 642.06,194.88 636.16,191.54 758.25,122.72 		"/>
		<polygon class="st2" points="720.06,125.06 676.05,149.93 720.06,175.34 		"/>
	</g>
</g>
<g id="BACKGROUND_1">
</g>
<g id="DESIGNED_BY_FREEPIK">
</g>
</svg>
