<?xml version="1.0" encoding="utf-8"?>
<!-- Generator: Adobe Illustrator 23.0.3, SVG Export Plug-In . SVG Version: 6.00 Build 0)  -->
<svg version="1.1" id="Layer_1" xmlns="http://www.w3.org/2000/svg" xmlns:xlink="http://www.w3.org/1999/xlink" x="0px" y="0px"
	 viewBox="0 0 88.21 42.04" style="enable-background:new 0 0 88.21 42.04;" xml:space="preserve">
<style type="text/css">
	.st0{fill:#6B1510;}
</style>
<g>
	<path class="st0" d="M4.11,0.56h0.54c0.42,0.04,0.84,0.1,1.24,0.24c1.7,0.57,3.34,1.34,4.89,2.25c1.97,1.16,3.82,2.57,5.34,4.29
		c1.06,1.2,1.94,2.58,2.47,4.1c0.13,0.37,0.1,0.79-0.08,1.14c-0.27,0.55-0.72,0.98-1.16,1.38c-1.02,0.91-2.12,1.72-3.13,2.64
		c-0.81,0.72-1.55,1.51-2.21,2.38c-1.42,1.93-2.58,4.12-2.96,6.51c-0.31,1.92-0.07,3.98,0.95,5.66c0.88,1.48,2.36,2.57,4,3.07
		c1.95,0.62,4.07,0.5,6.04,0.02c0.67-0.18,1.36-0.35,1.99-0.65c2.78-1.23,5.54-2.51,8.21-3.96c2.41-1.29,4.73-2.75,6.97-4.32
		c2.08-1.48,4.19-2.93,6.16-4.55c4.16-3.41,8-7.21,12.31-10.43c2.48-1.84,5.13-3.5,8.04-4.56c2.61-0.96,5.44-1.36,8.2-0.98
		c4.03,0.54,7.85,2.45,10.78,5.26c1.88,1.81,3.38,4.02,4.22,6.49c0.46,1.31,0.68,2.68,0.8,4.06c0.16,1.9,0.1,3.81-0.17,5.69
		c-0.23,1.49-0.58,2.98-1.23,4.34c-0.43,0.88-0.98,1.73-1.78,2.31c-0.77,0.56-1.79,0.8-2.71,0.55c-0.56-0.15-0.99-0.61-1.17-1.15
		c-0.32-0.89-0.26-1.86-0.18-2.79c0.13-1.15,0.36-2.29,0.64-3.41c0.13-0.5,0.24-1.01,0.28-1.53c0.27-2.43,0.08-4.98-0.94-7.23
		c-0.83-1.84-2.25-3.39-3.99-4.4c-2.3-1.34-5.04-1.8-7.68-1.6c-2.78,0.21-5.5,1.14-7.8,2.73c-1.45,0.96-2.97,1.85-4.27,3.02
		c-0.82,0.75-1.57,1.64-1.84,2.74c-0.22,0.86-0.03,1.77,0.36,2.55c1.09,2.23,3.07,3.85,4.27,6c0.38,0.7,0.67,1.46,0.77,2.25
		c0.06,0.68,0.08,1.37-0.07,2.04c-0.11,0.5-0.37,1.02-0.85,1.26c-0.54,0.27-1.19,0.16-1.74-0.02c-1.05-0.37-1.98-1.03-2.82-1.77
		c-0.81-0.7-1.4-1.61-2.1-2.41c-0.81-0.96-1.68-1.9-2.73-2.6c-0.73-0.49-1.58-0.85-2.47-0.87c-0.96-0.02-1.91,0.38-2.61,1.02
		c-4.2,3.57-8.58,7-13.49,9.54c-2.68,1.38-5.52,2.49-8.47,3.14c-3.1,0.7-6.31,0.9-9.48,0.59c-1.46-0.16-2.91-0.58-4.2-1.29
		c-1.47-0.8-2.72-1.96-3.68-3.32c-1.22-1.74-2.03-3.76-2.35-5.85c-0.16-1.3-0.25-2.61-0.28-3.92c-0.04-1.66,0.09-3.34,0.58-4.93
		c0.6-2,1.75-3.78,3.07-5.37c0.62-0.76,1.29-1.47,1.98-2.18c0.57-0.59,0.94-1.41,0.91-2.25C9.47,10.8,9.29,10.1,8.89,9.53
		C8.49,8.95,7.9,8.51,7.25,8.25C5.94,7.7,4.65,7.12,3.42,6.4C2.63,5.93,1.85,5.42,1.23,4.73C0.86,4.32,0.56,3.81,0.52,3.24V2.95
		c0.12-0.58,0.46-1.1,0.93-1.46C2.21,0.91,3.16,0.63,4.11,0.56z"/>
</g>
</svg>
