<?xml version="1.0" encoding="utf-8"?>
<!-- Generator: Adobe Illustrator 23.0.3, SVG Export Plug-In . SVG Version: 6.00 Build 0)  -->
<svg version="1.1" id="Layer_1" xmlns="http://www.w3.org/2000/svg" xmlns:xlink="http://www.w3.org/1999/xlink" x="0px" y="0px"
	 viewBox="0 0 360 216" style="enable-background:new 0 0 360 216;" xml:space="preserve">
<style type="text/css">
	.st0{fill:#6B120D;}
</style>
<g>
	<path class="st0" d="M83.73,52.18h1.29c1.01,0.09,2.02,0.25,2.99,0.58c4.09,1.37,8.02,3.23,11.75,5.4
		c4.74,2.79,9.19,6.17,12.83,10.31c2.54,2.89,4.67,6.2,5.93,9.84c0.32,0.89,0.24,1.9-0.18,2.74c-0.64,1.32-1.72,2.34-2.79,3.33
		c-2.45,2.18-5.1,4.13-7.52,6.35c-1.94,1.74-3.74,3.63-5.3,5.71c-3.42,4.64-6.19,9.91-7.1,15.65c-0.75,4.61-0.18,9.56,2.28,13.59
		c2.12,3.56,5.66,6.18,9.61,7.38c4.7,1.48,9.78,1.2,14.51,0.05c1.62-0.43,3.26-0.85,4.78-1.57c6.68-2.96,13.31-6.03,19.73-9.51
		c5.79-3.1,11.37-6.61,16.74-10.39c5-3.55,10.06-7.04,14.81-10.94c10-8.19,19.22-17.32,29.59-25.06
		c5.95-4.42,12.32-8.41,19.31-10.97c6.27-2.3,13.07-3.26,19.71-2.36c9.69,1.3,18.87,5.89,25.91,12.64
		c4.51,4.34,8.12,9.67,10.15,15.6c1.1,3.14,1.64,6.45,1.93,9.76c0.37,4.56,0.24,9.16-0.42,13.68c-0.54,3.58-1.4,7.15-2.96,10.43
		c-1.02,2.11-2.36,4.15-4.28,5.54c-1.84,1.35-4.3,1.92-6.52,1.33c-1.34-0.36-2.37-1.47-2.82-2.76c-0.78-2.14-0.64-4.47-0.43-6.7
		c0.3-2.77,0.88-5.5,1.54-8.2c0.32-1.2,0.58-2.42,0.68-3.67c0.64-5.84,0.2-11.96-2.27-17.36c-1.99-4.41-5.4-8.15-9.59-10.57
		c-5.53-3.23-12.12-4.33-18.46-3.86c-6.68,0.5-13.22,2.75-18.74,6.55c-3.49,2.31-7.13,4.46-10.26,7.26
		c-1.96,1.79-3.78,3.94-4.42,6.58c-0.52,2.06-0.08,4.25,0.86,6.13c2.63,5.35,7.37,9.25,10.26,14.43c0.92,1.67,1.62,3.5,1.84,5.41
		c0.15,1.63,0.2,3.3-0.16,4.91c-0.27,1.2-0.89,2.44-2.04,3.02c-1.31,0.66-2.85,0.4-4.19-0.06c-2.53-0.89-4.76-2.48-6.76-4.24
		c-1.95-1.69-3.37-3.86-5.04-5.8c-1.95-2.31-4.03-4.56-6.55-6.25c-1.75-1.18-3.79-2.05-5.93-2.09c-2.31-0.04-4.59,0.9-6.28,2.45
		c-10.1,8.57-20.61,16.82-32.41,22.93c-6.44,3.32-13.26,5.97-20.34,7.55c-7.45,1.69-15.17,2.16-22.77,1.42
		c-3.51-0.39-6.98-1.39-10.09-3.1c-3.53-1.91-6.54-4.71-8.85-7.98c-2.93-4.17-4.87-9.03-5.66-14.06c-0.39-3.13-0.59-6.28-0.68-9.43
		c-0.09-3.98,0.22-8.02,1.39-11.84c1.43-4.8,4.2-9.08,7.38-12.9c1.5-1.82,3.11-3.54,4.75-5.23c1.38-1.43,2.27-3.39,2.17-5.4
		c-0.08-1.66-0.51-3.35-1.47-4.74c-0.96-1.39-2.38-2.44-3.94-3.07c-3.15-1.31-6.26-2.71-9.21-4.43c-1.89-1.13-3.77-2.36-5.25-4.01
		c-0.89-1-1.63-2.21-1.72-3.58v-0.7c0.29-1.39,1.12-2.64,2.23-3.5C79.15,53.01,81.45,52.34,83.73,52.18z"/>
</g>
</svg>
