<?xml version="1.0" encoding="utf-8"?>
<!-- Generator: Adobe Illustrator 23.0.3, SVG Export Plug-In . SVG Version: 6.00 Build 0)  -->
<svg version="1.1" id="a15731c2-5ed4-409b-a7c9-bb3c5f711d85"
	 xmlns="http://www.w3.org/2000/svg" xmlns:xlink="http://www.w3.org/1999/xlink" x="0px" y="0px" viewBox="0 0 772 756.27"
	 style="enable-background:new 0 0 772 756.27;" xml:space="preserve">
<style type="text/css">
	.st0{fill:#DCE6EF;}
	.st1{fill:#6AA5FE;}
	.st2{fill:none;stroke:#1A55B5;stroke-width:0.8675;stroke-linecap:round;stroke-linejoin:round;stroke-miterlimit:10;}
	.st3{fill:#FFC957;}
	.st4{fill:none;stroke:#6AA5FE;stroke-width:0.8675;stroke-linecap:round;stroke-linejoin:round;stroke-miterlimit:10;}
	.st5{fill:#1A55B5;}
	.st6{fill:none;stroke:#2A294F;stroke-width:0.7798;stroke-linecap:round;stroke-linejoin:round;stroke-miterlimit:10;}
	.st7{fill:none;stroke:#6AA5FE;stroke-linecap:round;stroke-linejoin:round;stroke-miterlimit:10;}
	.st8{fill:#527EE9;}
	.st9{fill:#F3F4F6;}
	.st10{fill:#2C6BC6;}
	.st11{fill:#CDE1F9;}
	.st12{fill:none;stroke:#1A55B5;stroke-miterlimit:10;}
	.st13{fill:none;stroke:#F3F4F6;stroke-width:4;stroke-miterlimit:10;}
	.st14{fill:none;stroke:#FF746F;stroke-width:4;stroke-miterlimit:10;}
	.st15{fill:#FE9280;}
	.st16{fill:#E86767;}
	.st17{fill:#FF746F;}
	.st18{fill:#FFFFFF;}
	.st19{opacity:0.2;fill:#777470;}
	.st20{fill:#FFF4DD;}
	.st21{fill:#2A294F;}
	.st22{fill:#D3EAF5;}
	.st23{opacity:0.05;fill:#777470;}
	.st24{opacity:0.15;fill:#777470;}
</style>
<title>click here</title>
<g>
	<g>
		<path class="st0" d="M772.91,566.1c-6.46-16.59-11.28-34.2-16.55-52.8c-3.55-12.53-9.28-26.56-21.69-30.51
			c-12.07-3.84-25.08,4.12-32.5,14.39c-7.43,10.27-11.17,22.71-17.52,33.68c-11.51,19.87-31.91,28.2-48.76,10.73
			c-24.07-24.95-34.91-58.97-50.18-89.41c-11.08-22.1-20.36-47.96-34.32-68.33c-21.29-31.06-50.49-57.54-89.32-57.54
			c-24.61,3.73-46.3,25.53-60.97,52.77c-14.68,27.24-23.24,59.64-30.53,91.96c-13.27,58.78-22.99,118.92-32.7,178.98
			c0,0,489.87-5.71,489.87-5.71c-1.95,0.02-13.96-16.03-16.26-18.26C792.67,607.86,781.38,587.85,772.91,566.1z"/>
		<g>
			<path class="st1" d="M679.92,594.11c-0.96,19.04-21.68,52.34-40.72,51.38c-19.04-0.96-29.2-35.81-28.24-54.85
				c0.96-19.04,21.24-114.34,40.28-113.38C670.29,478.21,680.88,575.06,679.92,594.11z"/>
			<line class="st2" x1="650.33" y1="489.63" x2="640.73" y2="643.95"/>
			<path class="st3" d="M636.34,590.14c-4.34,9.53-7.64,19.52-9.63,29.94c-1.01,5.28-1.65,11,0.74,15.82
				c2.61,5.26,8.4,8.33,14.2,9.28c14.15,2.32,28.31-6.34,36.61-18.05c8.3-11.7,11.89-26,15.19-39.96
				c2.6-10.99,5.15-22.14,10.04-32.39c2.1-4.39,14.38-21.34,8.57-25.74c-7.95-6.24-30.96,0.55-45.7,16.64
				C654.2,558.94,643.75,573.85,636.34,590.14z"/>
			<path class="st4" d="M641.64,645.17c0,0,17.09-66.53,58.35-104.69"/>
		</g>
		<g>
			<path class="st5" d="M736.44,574.45c-1.46,2.62-4.21,4.41-6.69,5.81c-3.07,1.73-6.34,3.25-9.5,4.72
				c-4.06,1.89-8.25,3.84-12.12,6.27c-2.82,1.77-5.33,3.78-7.44,5.92c3.32-7.55,7.21-14.15,11.79-20.04
				c6.03-7.76,12.21-11.68,18.39-11.68c0.14,0,0.29,0,0.43,0.01c1.91,0.05,3.4,0.53,4.42,1.41
				C737.81,568.66,737.73,572.13,736.44,574.45z"/>
			<path class="st5" d="M743.34,617.46c-2.44,1.74-5.69,2.18-8.54,2.39c-3.51,0.25-7.12,0.22-10.6,0.2
				c-4.47-0.03-9.1-0.06-13.64,0.48c-3.31,0.4-6.43,1.13-9.26,2.17c6.24-5.4,12.57-9.7,19.23-13.07c8.76-4.43,16.04-5.34,21.62-2.69
				c0.13,0.06,0.26,0.12,0.38,0.19c1.7,0.87,2.85,1.93,3.4,3.16C747.06,612.82,745.5,615.93,743.34,617.46z"/>
			<path class="st5" d="M727.05,638.63c-2.03-0.28-3.85-1.58-5.36-2.81c-1.86-1.52-3.64-3.22-5.37-4.87
				c-2.21-2.11-4.5-4.3-7.01-6.15c-1.83-1.36-3.73-2.45-5.62-3.26c5.63,0.24,10.8,1.07,15.69,2.51c6.44,1.9,10.48,4.86,12.01,8.79
				c0.04,0.09,0.07,0.18,0.1,0.27c0.44,1.23,0.51,2.29,0.21,3.16C731.07,638.07,728.84,638.88,727.05,638.63z"/>
			<path class="st6" d="M680.72,645.55c0,0,0.19-40.71,49.91-75.27"/>
			<path class="st6" d="M680.72,645.55c0,0,15.27-32.7,56.64-32.7"/>
			<path class="st6" d="M703.23,621.94c0,0,8.01-0.59,24.75,12.04"/>
		</g>
	</g>
	<g>
		<path class="st0" d="M253.55,645.9c-11.49-43.43-23.05-86.89-36.56-128.96c-7.62-23.72-16.02-47.35-27.7-66.32
			c-11.68-18.98-27.14-32.98-42.67-32.88c-23.93,4.63-39.36,28.26-49.49,54.42c-6.64,17.16-9.86,37.95-14.55,56.08
			c-6.47,24.98-9.86,52.15-22.29,74c-8.7,15.3-22.07,11.4-31.09-2.35c-4.97-7.59-8.48-16.61-14.05-23.53
			c-5.57-6.93-14.35-11.44-21.42-7.07c-7.27,4.49-9.44,15.84-10.42,25.8c-1.45,14.78-2.72,28.75-5.1,42.14
			c-0.52,2.92-1.09,5.8-1.73,8.67H253.55z"/>
		<path class="st3" d="M150.8,585.94c-7.18-8.28-16.27-15.43-19.13-25.88c-2.09-7.64-0.44-15.71,0.38-23.59
			c0.82-7.87,0.53-16.58-4.56-22.64c-4.2-4.99-10.83-7.16-17.21-8.53c-6.38-1.37-13.03-2.24-18.69-5.48
			c-9.19-5.27-7.36-14.23-12.29-22.09c-5.54-8.82-18.42-20.07-29.46-14.22c-11.69,6.2-9.84,25.04-2.06,33.36
			c5.16,5.52,11.76,10.81,12.52,18.33c1.14,11.31-11.82,21.5-8.25,32.3c2.63,7.98,12.69,10.72,17.65,17.49
			c4.91,6.7,3.92,16.09,1.03,23.89c-2.89,7.79-7.45,14.99-9.25,23.11c-3.68,16.6,9.34,28.07,24.18,31.77
			c13.64,3.4,43.05,1.8,43.05,1.8c10.5-3.67,22.13-12.89,27.9-22.97c4.36-7.61,4.96-17.26,1.59-25.36
			C156.46,593.05,153.8,589.4,150.8,585.94z"/>
		<path class="st7" d="M62.91,481.42c0,0,50.22,77.57,55.68,163.7"/>
		<g>
			<path class="st1" d="M18.18,586.05c0.77-0.66,1.9-1.02,3.34-1.06c0.11,0,0.22-0.01,0.32-0.01c4.67,0,9.35,2.97,13.91,8.84
				c3.46,4.46,6.4,9.44,8.91,15.15c-1.59-1.62-3.49-3.14-5.62-4.48c-2.93-1.84-6.1-3.31-9.17-4.74c-2.39-1.11-4.86-2.26-7.18-3.57
				c-1.88-1.06-3.96-2.41-5.06-4.39C16.65,590.04,16.59,587.41,18.18,586.05z"/>
			<path class="st1" d="M10.45,618.89c0.41-0.93,1.28-1.74,2.57-2.39c0.1-0.05,0.19-0.1,0.29-0.14c4.22-2,9.72-1.32,16.35,2.04
				c5.04,2.55,9.82,5.8,14.54,9.88c-2.13-0.79-4.49-1.34-7-1.64c-3.43-0.41-6.93-0.39-10.31-0.36c-2.63,0.02-5.36,0.04-8.02-0.15
				c-2.15-0.15-4.61-0.49-6.46-1.81C10.78,623.15,9.6,620.8,10.45,618.89z"/>
			<path class="st1" d="M21.21,638.54c-0.23-0.66-0.18-1.46,0.16-2.39c0.02-0.07,0.05-0.14,0.08-0.21c1.16-2.97,4.22-5.21,9.08-6.65
				c3.7-1.09,7.6-1.72,11.86-1.9c-1.43,0.61-2.86,1.44-4.25,2.46c-1.9,1.41-3.63,3.06-5.3,4.65c-1.3,1.24-2.65,2.53-4.06,3.68
				c-1.14,0.93-2.52,1.92-4.06,2.13C23.37,640.51,21.69,639.89,21.21,638.54z"/>
			<path class="st6" d="M59.76,645.55c0,0-0.15-30.78-37.74-56.92"/>
			<path class="st6" d="M59.76,645.55c0,0-11.54-24.73-42.83-24.73"/>
			<path class="st6" d="M42.74,627.7c0,0-6.06-0.44-18.71,9.1"/>
		</g>
	</g>
	<g>
		<path class="st1" d="M470.24,645.55H124.43c-5.22,0-9.45-4.23-9.45-9.45V172.29c0-5.22,4.23-9.45,9.45-9.45h345.81
			c5.22,0,9.45,4.23,9.45,9.45V636.1C479.69,641.32,475.46,645.55,470.24,645.55z"/>
		<path class="st8" d="M114.98,280.44V628.9c0,9.19,7.45,16.64,16.64,16.64h331.42c9.19,0,16.64-7.45,16.64-16.64v-68.77
			L114.98,280.44z"/>
		<path class="st9" d="M454.64,623.28H140.03c-2.13,0-3.86-1.73-3.86-3.86V188.97c0-2.13,1.73-3.86,3.86-3.86h314.61
			c2.13,0,3.86,1.73,3.86,3.86v430.44C458.5,621.55,456.77,623.28,454.64,623.28z"/>
		<g>
			<path class="st5" d="M324.98,153.72c0.02-0.46,0.07-0.9,0.07-1.37c0-15.31-12.41-27.72-27.72-27.72
				c-15.31,0-27.72,12.41-27.72,27.72c0,0.46,0.05,0.91,0.07,1.37h-40.75v42.25h136.79v-42.25H324.98z"/>
			<polygon class="st10" points="228.94,153.72 228.94,195.98 365.73,195.98 			"/>
			
				<ellipse transform="matrix(0.923 -0.3848 0.3848 0.923 -35.7316 126.1287)" class="st8" cx="297.33" cy="152.36" rx="15.56" ry="15.56"/>
			<path class="st1" d="M286.33,141.35c-6.08,6.08-6.08,15.93,0,22.01c6.08,6.08,15.93,6.08,22.01,0L286.33,141.35z"/>
			<rect x="228.94" y="195.98" class="st11" width="136.79" height="2.91"/>
		</g>
	</g>
	<g>
		<g>
			<rect x="173.41" y="254.49" class="st12" width="51.88" height="51.88"/>
			<g>
				<g>
					<polyline class="st13" points="187.07,281.56 202.94,294.02 235.2,262.94 					"/>
				</g>
				<g>
					<polyline class="st14" points="185.07,279.56 200.94,292.02 233.2,260.94 					"/>
				</g>
			</g>
			<g>
				<path class="st1" d="M419.26,269.22H250.2c-1.1,0-2-0.89-2-2l0,0c0-1.1,0.89-2,2-2h169.06c1.1,0,2,0.89,2,2l0,0
					C421.25,268.32,420.36,269.22,419.26,269.22z"/>
				<path class="st1" d="M419.26,278.03H250.2c-1.1,0-2-0.89-2-2l0,0c0-1.1,0.89-2,2-2h169.06c1.1,0,2,0.89,2,2l0,0
					C421.25,277.13,420.36,278.03,419.26,278.03z"/>
				<path class="st1" d="M419.26,286.83H250.2c-1.1,0-2-0.89-2-2l0,0c0-1.1,0.89-2,2-2h169.06c1.1,0,2,0.89,2,2l0,0
					C421.25,285.94,420.36,286.83,419.26,286.83z"/>
				<path class="st1" d="M419.26,295.64H250.2c-1.1,0-2-0.89-2-2l0,0c0-1.1,0.89-2,2-2h169.06c1.1,0,2,0.89,2,2l0,0
					C421.25,294.75,420.36,295.64,419.26,295.64z"/>
			</g>
		</g>
		<g>
			<rect x="173.41" y="338.01" class="st12" width="51.88" height="51.88"/>
			<g>
				<g>
					<polyline class="st13" points="187.07,365.09 202.94,377.54 235.2,346.46 					"/>
				</g>
				<g>
					<polyline class="st14" points="185.07,363.09 200.94,375.54 233.2,344.46 					"/>
				</g>
			</g>
			<g>
				<path class="st1" d="M419.26,352.74H250.2c-1.1,0-2-0.89-2-2l0,0c0-1.1,0.89-2,2-2h169.06c1.1,0,2,0.89,2,2l0,0
					C421.25,351.85,420.36,352.74,419.26,352.74z"/>
				<path class="st1" d="M419.26,361.55H250.2c-1.1,0-2-0.89-2-2l0,0c0-1.1,0.89-2,2-2h169.06c1.1,0,2,0.89,2,2l0,0
					C421.25,360.65,420.36,361.55,419.26,361.55z"/>
				<path class="st1" d="M419.26,370.36H250.2c-1.1,0-2-0.89-2-2l0,0c0-1.1,0.89-2,2-2h169.06c1.1,0,2,0.89,2,2l0,0
					C421.25,369.46,420.36,370.36,419.26,370.36z"/>
				<path class="st1" d="M419.26,379.16H250.2c-1.1,0-2-0.89-2-2l0,0c0-1.1,0.89-2,2-2h169.06c1.1,0,2,0.89,2,2l0,0
					C421.25,378.27,420.36,379.16,419.26,379.16z"/>
			</g>
		</g>
		<g>
			<rect x="173.41" y="421.54" class="st12" width="51.88" height="51.88"/>
			<g>
				<g>
					<polyline class="st13" points="187.07,448.61 202.94,461.07 235.2,429.99 					"/>
				</g>
				<g>
					<polyline class="st14" points="185.07,446.61 200.94,459.07 233.2,427.99 					"/>
				</g>
			</g>
			<g>
				<path class="st1" d="M419.26,436.26H250.2c-1.1,0-2-0.89-2-2l0,0c0-1.1,0.89-2,2-2h169.06c1.1,0,2,0.89,2,2l0,0
					C421.25,435.37,420.36,436.26,419.26,436.26z"/>
				<path class="st1" d="M419.26,445.07H250.2c-1.1,0-2-0.89-2-2l0,0c0-1.1,0.89-2,2-2h169.06c1.1,0,2,0.89,2,2l0,0
					C421.25,444.18,420.36,445.07,419.26,445.07z"/>
				<path class="st1" d="M419.26,453.88H250.2c-1.1,0-2-0.89-2-2l0,0c0-1.1,0.89-2,2-2h169.06c1.1,0,2,0.89,2,2l0,0
					C421.25,452.99,420.36,453.88,419.26,453.88z"/>
				<path class="st1" d="M419.26,462.69H250.2c-1.1,0-2-0.89-2-2l0,0c0-1.1,0.89-2,2-2h169.06c1.1,0,2,0.89,2,2l0,0
					C421.25,461.79,420.36,462.69,419.26,462.69z"/>
			</g>
		</g>
		<g>
			<rect x="173.41" y="505.06" class="st12" width="51.88" height="51.88"/>
			<g>
				<g>
					<polyline class="st13" points="187.07,532.13 202.94,544.59 235.2,513.51 					"/>
				</g>
				<g>
					<polyline class="st14" points="185.07,530.13 200.94,542.59 233.2,511.51 					"/>
				</g>
			</g>
			<g>
				<path class="st1" d="M419.26,519.79H250.2c-1.1,0-2-0.89-2-2l0,0c0-1.1,0.89-2,2-2h169.06c1.1,0,2,0.89,2,2l0,0
					C421.25,518.89,420.36,519.79,419.26,519.79z"/>
				<path class="st1" d="M419.26,528.59H250.2c-1.1,0-2-0.89-2-2l0,0c0-1.1,0.89-2,2-2h169.06c1.1,0,2,0.89,2,2l0,0
					C421.25,527.7,420.36,528.59,419.26,528.59z"/>
				<path class="st1" d="M419.26,537.4H250.2c-1.1,0-2-0.89-2-2l0,0c0-1.1,0.89-2,2-2h169.06c1.1,0,2,0.89,2,2l0,0
					C421.25,536.51,420.36,537.4,419.26,537.4z"/>
				<path class="st1" d="M419.26,546.21H250.2c-1.1,0-2-0.89-2-2l0,0c0-1.1,0.89-2,2-2h169.06c1.1,0,2,0.89,2,2l0,0
					C421.25,545.32,420.36,546.21,419.26,546.21z"/>
			</g>
		</g>
	</g>
	<g>
		<path class="st15" d="M494.51,298.99c-1.08,0.82-10.86,6.6-10.86,6.6l-6.94-8.88l2.06-10.13l14.93,0.93c0,0,2.61,7.56,2.61,7.56
			C496.94,296.86,495.84,297.97,494.51,298.99z"/>
		<path class="st16" d="M493.71,287.5l2.25,6.63l-6.89,2.77c-1.31,0.57-2.78,0.68-4.16,0.31c-3.04-0.82-5.01-3.75-4.63-6.87
			l0.44-3.64L493.71,287.5z"/>
		<path class="st17" d="M490.33,296.36l5.97,0.87l3.27-5.6c0.64-1.01,0.34-2.35-0.68-2.99l0,0c-1.01-0.64-2.35-0.34-2.99,0.68
			L490.33,296.36z"/>
		<polygon class="st18" points="485.81,320.32 473.5,323.43 469.09,359.08 483.51,359.67 		"/>
		<g>
			<path class="st15" d="M647.68,349.26l-21.52-2.71l4.93-39.13l21.52,2.71c10.8,1.36,18.46,11.22,17.1,22.03l0,0
				C668.35,342.96,658.49,350.62,647.68,349.26z"/>
			<path class="st19" d="M648.8,340.35l-21.52-2.71l-1.12,8.91l21.52,2.71c10.8,1.36,20.67-6.3,22.03-17.1
				c0.19-1.53,0.2-3.05,0.04-4.52C666.65,336.04,658.08,341.51,648.8,340.35z"/>
			<polygon class="st3" points="623.54,346.22 395.2,316.77 400.13,277.64 628.46,307.09 			"/>
			<polygon class="st20" points="354.52,291.77 395.2,316.77 400.13,277.64 			"/>
			<polygon class="st19" points="354.52,291.77 395.2,316.77 396.41,307.2 			"/>
			<polygon class="st21" points="368.1,287.56 354.52,291.77 366.64,299.22 			"/>
			
				<rect x="625.93" y="308.13" transform="matrix(0.9922 0.1249 -0.1249 0.9922 45.9257 -76.803)" class="st22" width="19.05" height="39.44"/>
			
				<rect x="638.41" y="307.22" transform="matrix(0.9922 0.1249 -0.1249 0.9922 46.0718 -77.573)" class="st22" width="6.51" height="42.81"/>
			<polygon class="st19" points="635.98,347.79 395.2,316.77 396.41,307.2 637.18,338.22 			"/>
			<polygon class="st23" points="639.7,318.23 398.92,287.21 400.13,277.64 640.9,308.66 			"/>
			
				<rect x="636.56" y="336.83" transform="matrix(0.9922 0.1249 -0.1249 0.9922 47.8992 -77.2257)" class="st24" width="6.51" height="13.09"/>
		</g>
		<path class="st16" d="M548.63,425.45l3.24-8.34l10.87-0.85c2-0.22,3.77,1,3.95,2.71l0,0c0.18,1.71-1.29,3.28-3.29,3.49
			L548.63,425.45z"/>
		<path class="st17" d="M543.03,417.16l5.6,8.3l10.66-2.15l-11.88-17.78l-2.3,1.52C541.74,409.26,540.81,413.79,543.03,417.16z"/>
		<path class="st5" d="M553.52,283.52c-11.07-16.14-38.97-11.84-38.24,14.03c0,0.07,0.01,0.16,0.01,0.23
			c-0.07,3.28,0.04,6.62-0.82,9.7c-0.44,1.56-1.19,3.01-2.32,4.06c-1.13,1.06-2.59,1.68-4.13,2.01c-1.56,0.34-3.23,0.43-4.96,0.78
			c-1.74,0.36-3.44,0.99-4.97,1.91c-3.08,1.79-5.6,4.73-6.75,8.22c-2.21,6.91-0.44,14.9,4.76,20.09c1.31,1.28,2.82,2.36,4.49,3.14
			c1.66,0.81,3.55,1.11,5.08,1.42c3.22,0.7,6.48,1.63,9.8,2.29l0.09-0.29c-3.06-1.41-6.08-2.89-9.32-4.02
			c-1.69-0.59-3.14-0.94-4.45-1.75c-1.31-0.77-2.52-1.72-3.54-2.87c-2.05-2.27-3.54-5.08-4.39-8.07c-0.85-2.99-1.02-6.23-0.18-9.2
			c0.83-2.96,2.82-5.54,5.46-7.25c1.31-0.86,2.78-1.49,4.31-1.87c1.55-0.39,3.24-0.55,4.94-1c1.72-0.44,3.4-1.31,4.65-2.64
			c1.26-1.32,1.99-3.03,2.34-4.72c0.25-1.21,0.36-2.41,0.4-3.61c0.3,4.82-0.12,9.72-5.07,11.57c-2.86,1.07-5.64,1.07-8.3,2.84
			c-2.6,1.74-4.67,4.31-5.68,7.28c-3.11,9.15,4.99,20.98,14.52,21.99c3.94,0.42,7.88,1.37,11.78,2.07
			c1.09,0.2,16.42,3.34,16.55,2.97l17.74-52.5L553.52,283.52z"/>
		<polygon class="st18" points="552.67,413.4 588.64,388.3 583.62,374.41 547.41,405.52 		"/>
		<path class="st18" d="M579.03,384.87c1.7,3.6,6,5.14,9.6,3.44c3.6-1.7,5.14-6,3.44-9.6c-1.7-3.6-6-5.14-9.6-3.44
			C578.87,376.97,577.33,381.27,579.03,384.87z"/>
		<path class="st18" d="M580.83,387.47l10.25-10.15l-29.61-33.3c-3.36-4.54-9.97-5.04-13.98-1.07l0,0
			c-4.01,3.97-3.58,15.01,0.92,18.42L580.83,387.47z"/>
		
			<rect x="531.77" y="316.5" transform="matrix(-0.9964 -0.0844 0.0844 -0.9964 1045.9993 702.7181)" class="st17" width="12.17" height="25.49"/>
		<path class="st18" d="M475.53,353.69c-3.97,0.27-6.98,3.7-6.71,7.68c0.27,3.97,3.7,6.98,7.68,6.71c3.97-0.27,6.98-3.7,6.71-7.68
			C482.94,356.43,479.5,353.42,475.53,353.69z"/>
		<path class="st18" d="M470.99,354.75l7.3,12.98l44.66-12.99c5.47-1.39,8.44-11.75,6.29-16.97l0,0c-2.16-5.22-8.44-7.32-13.3-4.45
			L470.99,354.75z"/>
		<path class="st18" d="M539.32,404.83l22.6-55.45c1.14-4.54-1.92-9.06-6.56-9.69l-32.44-7.36c-4.64-0.63-8.79,2.91-8.9,7.59
			l-11.11,60.47L539.32,404.83z"/>
		<path class="st17" d="M535.68,286.49c-3.74,4.74-10.48,6.73-12.07,11.08l-0.34,2.01c0,0.09,0,0.18,0,0.28l-0.04-0.06l-1.03,6.08
			c-1.3,7.7,3.89,14.99,11.59,16.29c7.7,1.3,14.99-3.89,16.29-11.59l1.16-6.85C550.45,296.76,537.71,296.22,535.68,286.49z"/>
		<path class="st17" d="M548.61,307.33c-0.3,1.79,0.9,3.48,2.69,3.78c1.79,0.3,3.48-0.9,3.78-2.69c0.3-1.79-0.9-3.48-2.69-3.78
			C550.61,304.34,548.92,305.54,548.61,307.33z"/>
		<polygon class="st5" points="518.9,402.34 535.16,442.48 519.62,630.02 507.69,630.02 493.63,441.32 502.92,400.4 		"/>
		<polygon class="st8" points="518.9,402.34 518.9,442.48 592.09,630.02 601.06,630.02 561.91,435.41 539.32,404.83 		"/>
		<polygon class="st17" points="514.38,639.82 509.39,639.82 509.39,630.02 515.85,630.02 		"/>
		<polygon class="st21" points="509.22,637.6 512.14,638.88 514.85,637.6 517.28,645.54 494.72,645.54 503.2,641.57 		"/>
		<polygon class="st17" points="598,639.82 602.99,639.82 600.03,630.02 593.56,630.02 		"/>
		<polygon class="st21" points="603.16,637.6 600.24,638.88 597.53,637.6 595.09,645.54 617.66,645.54 609.18,641.57 		"/>
		<path class="st18" d="M524.9,362.57c0,5.66-4.59,10.24-10.24,10.24c-5.66,0-10.24-4.59-10.24-10.24c0-5.66,4.59-10.24,10.24-10.24
			C520.32,352.33,524.9,356.92,524.9,362.57z"/>
		<polygon class="st17" points="523.86,332.61 525.15,354.6 544.16,335.23 		"/>
		<path class="st5" d="M565.23,288.19c-1.63-2.07-3.61-3.75-5.81-4.9c-3.57-1.88-7.61-1.68-10.89-4.5l2.56,25.81
			c4.7-1.34,4.42,8.78-1.01,5.98c0,0-10.77,4.61-14.85,14.69c-2.8,6.77-3.27,14.66-2.54,19.18c1.31,8.09,8.18,12.28,15.97,9.9
			c4.65-1.42,8.44-4.94,11.12-9c9.42-14.24,15.7-37.62,7.64-53.69C566.81,290.41,566.07,289.25,565.23,288.19z"/>
		<path class="st17" d="M478.64,285.08l-0.7,4.32c-0.31,1.94,1.01,3.77,2.95,4.09l8.03,1.29c1.94,0.31,3.77-1.01,4.09-2.95l0.7-4.32
			L478.64,285.08z"/>
		<path class="st18" d="M536.11,307.15c-0.84-0.53-6.41-1.57-7.08-1.19c-0.72,0.4-1.02,1.35-0.83,2.16
			c0.19,0.81,0.79,1.46,1.47,1.93c1.55,1.06,3.67,1.23,5.38,0.43c0.65-0.3,1.26-0.76,1.54-1.42
			C536.86,308.4,536.71,307.53,536.11,307.15z"/>
	</g>
	<line class="st6" x1="-21.98" y1="645.54" x2="830.75" y2="645.54"/>
</g>
</svg>
