<?xml version="1.0" encoding="utf-8"?>
<!-- Generator: Adobe Illustrator 23.0.3, SVG Export Plug-In . SVG Version: 6.00 Build 0)  -->
<svg version="1.1" id="a15731c2-5ed4-409b-a7c9-bb3c5f711d85"
	 xmlns="http://www.w3.org/2000/svg" xmlns:xlink="http://www.w3.org/1999/xlink" x="0px" y="0px" viewBox="0 0 772 756.27"
	 style="enable-background:new 0 0 772 756.27;" xml:space="preserve">
<style type="text/css">
	.st0{opacity:0.22;fill:url(#SVGID_1_);}
	.st1{opacity:0.22;fill:url(#SVGID_2_);}
	.st2{opacity:0.22;fill:url(#SVGID_3_);}
	.st3{fill:#DFE3F7;}
	.st4{fill:#7782E0;}
	.st5{fill:#878CF0;}
	.st6{fill:#B1B2F3;}
	.st7{fill:#F4B49A;}
	.st8{fill:#EC827D;}
	.st9{fill:#FFC8AF;}
	.st10{fill:#112B46;}
	.st11{fill:#E29B7F;}
	.st12{fill:#FECA7A;}
	.st13{fill:#56548C;}
	.st14{fill:#FBD15B;}
	.st15{fill:url(#SVGID_4_);}
	.st16{fill:url(#SVGID_5_);}
	.st17{fill:#606BF1;}
	.st18{fill:url(#SVGID_6_);}
	.st19{fill:#FF8578;}
	.st20{fill:url(#SVGID_7_);}
	.st21{fill:url(#SVGID_8_);}
</style>
<g>
	
		<linearGradient id="SVGID_1_" gradientUnits="userSpaceOnUse" x1="23.5288" y1="123.1056" x2="66.0781" y2="123.1056" gradientTransform="matrix(0.933 -0.3598 0.3598 0.933 388.2622 96.9611)">
		<stop  offset="1.896780e-03" style="stop-color:#F4F1F6"/>
		<stop  offset="1" style="stop-color:#BCA9FD"/>
	</linearGradient>
	<circle class="st0" cx="474.36" cy="195.69" r="21.27"/>
	
		<linearGradient id="SVGID_2_" gradientUnits="userSpaceOnUse" x1="28.258" y1="355.8855" x2="70.8071" y2="355.8855" gradientTransform="matrix(0.933 -0.3598 0.3598 0.933 388.2622 96.9611)">
		<stop  offset="1.896780e-03" style="stop-color:#F4F1F6"/>
		<stop  offset="1" style="stop-color:#BCA9FD"/>
	</linearGradient>
	<path class="st1" d="M582.38,403.51c4.23,10.96-1.23,23.28-12.19,27.5c-10.96,4.23-23.28-1.23-27.5-12.19
		c-4.23-10.96,1.23-23.28,12.19-27.5C565.84,387.09,578.15,392.55,582.38,403.51z"/>
	
		<linearGradient id="SVGID_3_" gradientUnits="userSpaceOnUse" x1="-395.1277" y1="46.6812" x2="-360.4635" y2="46.6812" gradientTransform="matrix(0.933 -0.3598 0.3598 0.933 388.2622 96.9611)">
		<stop  offset="1.896780e-03" style="stop-color:#F4F1F6"/>
		<stop  offset="1" style="stop-color:#BCA9FD"/>
	</linearGradient>
	<path class="st2" d="M68.76,270.22c3.44,8.93-1,18.96-9.93,22.41c-8.93,3.44-18.96-1-22.41-9.93c-3.44-8.93,1-18.96,9.93-22.41
		C55.29,256.84,65.32,261.29,68.76,270.22z"/>
</g>
<title>click here</title>
<g>
	<g>
		<g>
			<path class="st3" d="M51.98,595.8c217.66,0,435.33,0,652.99,0c35.72-59.7,21.47-133.66-26.71-169.92
				c-37.37-28.12-91.02-30.46-135.94-6.07c2.28-16.76-5.98-33.23-20.63-41.27c-15.26-8.37-34.43-5.94-47.33,6.07
				c-2.75-6.24-20.09-43.85-61.9-57.04c-37.9-11.96-80.84,0.91-109.23,32.77c-20.98-14.86-48.45-17.18-71.61-6.07
				c-23.1,11.09-38.46,33.89-40.05,59.47c-43.42-18.24-92.21-13-125.01,14.56C22.2,465.57,12.68,538.93,51.98,595.8z"/>
			
				<ellipse transform="matrix(0.7071 -0.7071 0.7071 0.7071 -127.1335 525.1118)" class="st3" cx="570.3" cy="416.02" rx="102.37" ry="102.37"/>
			
				<ellipse transform="matrix(0.7071 -0.7071 0.7071 0.7071 -98.25 604.1686)" class="st3" cx="680.17" cy="420.68" rx="35.32" ry="35.32"/>
			<circle class="st3" cx="403.69" cy="289.19" r="23.8"/>
			<circle class="st3" cx="214.74" cy="288.35" r="11.9"/>
			
				<ellipse transform="matrix(0.1594 -0.9872 0.9872 0.1594 -276.0859 398.1461)" class="st3" cx="95.76" cy="361.2" rx="23.8" ry="23.8"/>
			
				<ellipse transform="matrix(0.1591 -0.9873 0.9873 0.1591 44.4366 781.0894)" class="st3" cx="480.73" cy="364.46" rx="35.32" ry="35.32"/>
			
				<ellipse transform="matrix(0.7071 -0.7071 0.7071 0.7071 -222.9093 304.7129)" class="st3" cx="256.37" cy="421.43" rx="119.87" ry="119.87"/>
		</g>
		<g>
			<g>
				<path class="st3" d="M254.52,626.35h499.26c2.26,0,4.12-1.85,4.12-4.12v-7.19c0-2.26-1.85-4.12-4.12-4.12H254.52
					c-2.26,0-4.12,1.85-4.12,4.12v7.19C250.41,624.5,252.26,626.35,254.52,626.35z"/>
			</g>
			<path class="st3" d="M510.33,640.59H96.25c-6.15,0-11.19-5.03-11.19-11.19l0,0c0-6.15,5.03-11.19,11.19-11.19h414.08
				c6.15,0,11.19,5.03,11.19,11.19l0,0C521.51,635.55,516.48,640.59,510.33,640.59z"/>
			<path class="st3" d="M393.3,648.94h285.98c8.33,0,15.15-6.82,15.15-15.15l0,0c0-8.33-6.82-15.15-15.15-15.15H393.3
				c-8.33,0-15.15,6.82-15.15,15.15l0,0C378.15,642.12,384.97,648.94,393.3,648.94z"/>
			<path class="st3" d="M30.83,626.35h499.26c2.26,0,4.12-1.85,4.12-4.12v-7.19c0-2.26-1.85-4.12-4.12-4.12H30.83
				c-2.26,0-4.12,1.85-4.12,4.12v7.19C26.71,624.5,28.56,626.35,30.83,626.35z"/>
		</g>
		<g>
			<g>
				<g>
					<path class="st4" d="M249.18,609.75c-20-10.58-64.65-13.47-77.77-31.9c-2.94-4.12-5.5-8.73-5.95-13.77
						c-0.46-5.04,1.64-10.57,6.1-12.96c3.64-1.95,8.45-1.72,11.32-4.69c2.4-2.49,2.52-6.54,1.17-9.72c-1.35-3.18-3.9-5.68-6.46-8.01
						c-6.31-5.76-13.28-11.37-16.56-19.26c-3.28-7.89-1.08-18.86,6.9-21.89c4.68-1.78,10.62-0.67,14.17-4.2
						c3.32-3.3,2.57-9.02,0.1-13c-2.47-3.98-6.25-6.96-8.99-10.76c-4.37-6.06-5.79-14.15-3.72-21.33
						c2.06-7.18,7.55-13.29,14.47-16.11L249.18,609.75z"/>
					<path class="st5" d="M249.18,609.75c9.12-20.7,42.34-50.67,41.2-73.27c-0.26-5.05-1.1-10.26-3.87-14.49
						c-2.77-4.24-7.85-7.28-12.83-6.38c-4.06,0.73-7.7,3.9-11.79,3.34c-3.43-0.46-6.03-3.56-6.95-6.9
						c-0.91-3.33-0.46-6.88,0.1-10.29c1.38-8.43,3.36-17.15,1.04-25.37c-2.32-8.22-10.85-15.46-18.99-12.88
						c-4.77,1.51-8.75,6.06-13.72,5.5c-4.65-0.52-7.61-5.48-8.14-10.13c-0.53-4.65,0.58-9.34,0.38-14.02
						c-0.33-7.46-4.24-14.69-10.31-19.04c-6.07-4.35-14.17-5.74-21.35-3.66L249.18,609.75z"/>
					<g>
						<path class="st5" d="M192.22,455.85c-0.13,0-0.25-0.03-0.37-0.09l-19.15-10.2c-0.39-0.21-0.53-0.69-0.33-1.07
							c0.21-0.39,0.69-0.54,1.07-0.33l19.15,10.2c0.39,0.21,0.53,0.69,0.33,1.07C192.78,455.7,192.51,455.85,192.22,455.85z"/>
					</g>
					<g>
						<path class="st4" d="M199.09,454.7c-0.09,0-0.19-0.02-0.28-0.05c-0.41-0.16-0.61-0.62-0.46-1.03l7.84-20.51
							c0.16-0.41,0.61-0.61,1.03-0.46c0.41,0.16,0.61,0.62,0.46,1.03l-7.84,20.51C199.71,454.5,199.41,454.7,199.09,454.7z"/>
					</g>
					<g>
						<path class="st4" d="M223.69,517.22c-0.12,0-0.23-0.02-0.35-0.08c-0.39-0.19-0.56-0.67-0.37-1.06l19.43-40.2
							c0.19-0.4,0.67-0.56,1.06-0.37c0.39,0.19,0.56,0.67,0.37,1.06l-19.43,40.2C224.27,517.05,223.98,517.22,223.69,517.22z"/>
					</g>
					<g>
						<path class="st4" d="M239.55,573.39c-0.19,0-0.38-0.07-0.53-0.2c-0.33-0.29-0.35-0.8-0.06-1.12l37.62-41.66
							c0.29-0.32,0.8-0.35,1.12-0.06c0.33,0.29,0.35,0.8,0.06,1.12l-37.62,41.66C239.98,573.3,239.76,573.39,239.55,573.39z"/>
					</g>
					<g>
						<path class="st5" d="M210.3,520.23c-0.11,0-0.22-0.02-0.33-0.07L166.7,500.3c-0.4-0.18-0.57-0.65-0.39-1.05
							c0.18-0.4,0.66-0.58,1.05-0.39l43.27,19.85c0.4,0.18,0.57,0.65,0.39,1.05C210.89,520.06,210.6,520.23,210.3,520.23z"/>
					</g>
					<g>
						<path class="st5" d="M231.1,577.11c-0.07,0-0.14-0.01-0.22-0.03l-59.29-16.74c-0.42-0.12-0.67-0.56-0.55-0.98
							c0.12-0.43,0.56-0.67,0.98-0.55l59.29,16.74c0.42,0.12,0.67,0.56,0.55,0.98C231.77,576.89,231.45,577.11,231.1,577.11z"/>
					</g>
				</g>
				<g>
					<path class="st4" d="M378.19,584.33c-14.88-9.53-49.45-14.68-58.47-29.87c-2.02-3.4-3.71-7.15-3.74-11.1
						c-0.03-3.95,1.96-8.13,5.59-9.7c2.96-1.28,6.69-0.79,9.11-2.92c2.03-1.78,2.39-4.93,1.54-7.49c-0.85-2.56-2.67-4.68-4.51-6.65
						c-4.54-4.89-9.6-9.71-11.64-16.06c-2.04-6.35,0.38-14.75,6.79-16.59c3.76-1.08,8.31,0.16,11.31-2.35
						c2.8-2.35,2.58-6.85,0.92-10.11c-1.66-3.26-4.42-5.83-6.3-8.96c-3.01-5-3.59-11.39-1.52-16.85c2.07-5.46,6.74-9.86,12.31-11.6
						L378.19,584.33z"/>
					<path class="st5" d="M378.19,584.33c8.44-15.52,36.25-36.7,36.82-54.37c0.13-3.95-0.19-8.06-2.08-11.53
						c-1.88-3.48-5.64-6.17-9.57-5.8c-3.21,0.3-6.24,2.53-9.39,1.84c-2.64-0.58-4.46-3.16-4.96-5.82c-0.49-2.66,0.09-5.38,0.74-8
						c1.62-6.47,3.73-13.14,2.45-19.69c-1.27-6.55-7.44-12.74-13.95-11.26c-3.81,0.87-7.2,4.15-11.04,3.39
						c-3.59-0.71-5.57-4.76-5.68-8.41c-0.11-3.65,1.06-7.24,1.2-10.89c0.23-5.83-2.35-11.71-6.8-15.49
						c-4.44-3.78-10.66-5.39-16.38-4.23L378.19,584.33z"/>
					<g>
						<path class="st5" d="M342.61,458.8c-0.15,0-0.3-0.04-0.43-0.13l-14.15-9.18c-0.37-0.24-0.47-0.73-0.23-1.1
							c0.24-0.37,0.74-0.47,1.1-0.23l14.15,9.18c0.37,0.24,0.47,0.73,0.23,1.1C343.13,458.68,342.87,458.8,342.61,458.8z"/>
					</g>
					<g>
						<path class="st4" d="M349.48,457.65c-0.1,0-0.21-0.02-0.31-0.06c-0.4-0.17-0.6-0.63-0.43-1.04l5.7-13.57
							c0.17-0.4,0.63-0.59,1.04-0.42c0.4,0.17,0.6,0.63,0.42,1.04l-5.7,13.57C350.09,457.47,349.79,457.65,349.48,457.65z"/>
					</g>
					<g>
						<path class="st5" d="M352.33,508.14c-0.12,0-0.24-0.03-0.35-0.08l-29.35-14.41c-0.39-0.19-0.56-0.67-0.36-1.06
							c0.19-0.39,0.67-0.55,1.06-0.36l29.35,14.41c0.39,0.19,0.56,0.67,0.36,1.06C352.91,507.98,352.62,508.14,352.33,508.14z"/>
					</g>
					<g>
						<path class="st4" d="M364.67,504.57c-0.17,0-0.34-0.05-0.49-0.17c-0.35-0.27-0.41-0.77-0.14-1.11l19.51-25.24
							c0.27-0.35,0.77-0.41,1.11-0.14c0.35,0.27,0.41,0.77,0.14,1.11l-19.51,25.24C365.14,504.46,364.9,504.57,364.67,504.57z"/>
					</g>
					<g>
						<path class="st4" d="M373.85,556.84c-0.2,0-0.4-0.07-0.55-0.22c-0.31-0.31-0.32-0.81-0.02-1.12l31.74-32.74
							c0.31-0.31,0.81-0.32,1.12-0.02c0.31,0.31,0.32,0.81,0.02,1.12l-31.74,32.74C374.26,556.76,374.05,556.84,373.85,556.84z"/>
					</g>
					<g>
						<path class="st5" d="M366.45,558.37c-0.09,0-0.18-0.01-0.27-0.05l-45.51-16.19c-0.41-0.15-0.63-0.6-0.48-1.01
							c0.15-0.41,0.6-0.63,1.01-0.48l45.51,16.19c0.41,0.15,0.63,0.6,0.48,1.01C367.08,558.17,366.77,558.37,366.45,558.37z"/>
					</g>
				</g>
				<g>
					<path class="st4" d="M631.4,607.12c-10.21-6.54-33.94-10.07-40.13-20.5c-1.38-2.33-2.55-4.91-2.57-7.62
						c-0.02-2.71,1.35-5.58,3.83-6.65c2.03-0.88,4.59-0.54,6.25-2c1.39-1.22,1.64-3.38,1.06-5.14c-0.58-1.76-1.83-3.21-3.09-4.57
						c-3.11-3.36-6.59-6.67-7.99-11.02c-1.4-4.36,0.26-10.12,4.66-11.38c2.58-0.74,5.7,0.11,7.76-1.61c1.92-1.61,1.77-4.7,0.63-6.94
						c-1.14-2.24-3.03-4-4.33-6.15c-2.07-3.43-2.46-7.82-1.04-11.56c1.42-3.74,4.63-6.77,8.45-7.96L631.4,607.12z"/>
					<path class="st5" d="M631.4,607.12c5.79-10.65,24.87-25.19,25.27-37.31c0.09-2.71-0.13-5.53-1.42-7.91
						c-1.29-2.39-3.87-4.24-6.57-3.98c-2.2,0.21-4.28,1.74-6.44,1.26c-1.81-0.4-3.06-2.17-3.4-3.99c-0.34-1.82,0.06-3.69,0.51-5.49
						c1.11-4.44,2.56-9.01,1.68-13.51c-0.87-4.49-5.11-8.74-9.57-7.73c-2.62,0.59-4.94,2.85-7.57,2.33
						c-2.46-0.49-3.82-3.27-3.9-5.77c-0.08-2.51,0.73-4.97,0.83-7.47c0.16-4-1.61-8.04-4.66-10.63c-3.05-2.6-7.31-3.7-11.24-2.9
						L631.4,607.12z"/>
					<g>
						<path class="st5" d="M606.99,521.24c-0.15,0-0.3-0.04-0.43-0.13l-9.71-6.3c-0.37-0.24-0.47-0.73-0.23-1.1
							c0.24-0.37,0.74-0.47,1.1-0.23l9.71,6.3c0.37,0.24,0.47,0.73,0.23,1.1C607.5,521.11,607.24,521.24,606.99,521.24z"/>
					</g>
					<g>
						<path class="st4" d="M611.7,520.44c-0.1,0-0.21-0.02-0.31-0.06c-0.4-0.17-0.6-0.63-0.42-1.04l3.91-9.31
							c0.17-0.4,0.63-0.59,1.04-0.42c0.4,0.17,0.6,0.63,0.43,1.04l-3.91,9.31C612.3,520.26,612.01,520.44,611.7,520.44z"/>
					</g>
					<g>
						<path class="st5" d="M613.65,555.09c-0.12,0-0.24-0.03-0.35-0.08l-20.14-9.89c-0.39-0.19-0.56-0.67-0.36-1.06
							c0.19-0.39,0.67-0.55,1.06-0.36l20.14,9.89c0.39,0.19,0.56,0.67,0.36,1.06C614.23,554.93,613.95,555.09,613.65,555.09z"/>
					</g>
					<g>
						<path class="st4" d="M622.12,552.64c-0.17,0-0.34-0.05-0.49-0.17c-0.35-0.27-0.41-0.77-0.14-1.11l13.39-17.32
							c0.27-0.35,0.77-0.41,1.11-0.14c0.35,0.27,0.41,0.77,0.14,1.11l-13.39,17.32C622.59,552.54,622.36,552.64,622.12,552.64z"/>
					</g>
					<g>
						<path class="st4" d="M628.42,588.51c-0.2,0-0.4-0.07-0.55-0.22c-0.31-0.31-0.32-0.81-0.02-1.12l21.78-22.47
							c0.31-0.31,0.81-0.32,1.12-0.02c0.31,0.31,0.32,0.81,0.02,1.12l-21.78,22.47C628.83,588.43,628.63,588.51,628.42,588.51z"/>
					</g>
					<g>
						<path class="st5" d="M623.34,589.56c-0.09,0-0.18-0.01-0.27-0.05l-31.23-11.11c-0.41-0.15-0.63-0.6-0.48-1.01
							c0.15-0.41,0.6-0.63,1.01-0.48l31.23,11.11c0.41,0.15,0.63,0.6,0.48,1.01C623.97,589.36,623.66,589.56,623.34,589.56z"/>
					</g>
				</g>
				<g>
					<path class="st4" d="M479.54,577.64c14.88-9.53,49.45-14.68,58.47-29.87c2.02-3.4,3.71-7.15,3.74-11.1
						c0.03-3.95-1.96-8.13-5.59-9.7c-2.96-1.28-6.69-0.79-9.11-2.92c-2.03-1.78-2.39-4.92-1.54-7.49c0.85-2.56,2.67-4.67,4.51-6.65
						c4.54-4.89,9.6-9.71,11.64-16.06c2.04-6.35-0.38-14.75-6.79-16.59c-3.76-1.08-8.31,0.16-11.31-2.35
						c-2.8-2.35-2.58-6.85-0.92-10.11c1.66-3.26,4.42-5.83,6.3-8.96c3.01-5,3.59-11.39,1.52-16.85c-2.07-5.46-6.74-9.86-12.31-11.6
						L479.54,577.64z"/>
					<path class="st5" d="M479.54,577.64c-8.44-15.52-36.25-36.7-36.82-54.37c-0.13-3.95,0.19-8.06,2.08-11.53
						c1.88-3.48,5.64-6.17,9.57-5.8c3.21,0.3,6.24,2.53,9.39,1.84c2.64-0.58,4.46-3.16,4.96-5.82c0.49-2.66-0.09-5.38-0.74-8
						c-1.62-6.47-3.73-13.14-2.45-19.69c1.27-6.55,7.44-12.74,13.95-11.26c3.81,0.87,7.2,4.15,11.04,3.39
						c3.59-0.71,5.57-4.76,5.68-8.41c0.11-3.65-1.06-7.24-1.2-10.89c-0.23-5.83,2.35-11.71,6.8-15.49
						c4.44-3.78,10.66-5.39,16.38-4.23L479.54,577.64z"/>
					<g>
						<path class="st5" d="M515.12,452.12c-0.26,0-0.51-0.13-0.67-0.36c-0.24-0.37-0.13-0.86,0.23-1.1l14.15-9.18
							c0.36-0.23,0.86-0.14,1.1,0.23c0.24,0.37,0.13,0.86-0.23,1.1l-14.15,9.18C515.42,452.08,515.27,452.12,515.12,452.12z"/>
					</g>
					<g>
						<path class="st4" d="M508.25,450.97c-0.31,0-0.6-0.18-0.73-0.49l-5.7-13.57c-0.17-0.4,0.02-0.87,0.42-1.04
							c0.41-0.17,0.87,0.02,1.04,0.43l5.7,13.57c0.17,0.4-0.02,0.87-0.43,1.04C508.46,450.95,508.36,450.97,508.25,450.97z"/>
					</g>
					<g>
						<path class="st5" d="M505.41,501.46c-0.29,0-0.58-0.16-0.71-0.44c-0.19-0.39-0.03-0.87,0.36-1.06l29.35-14.41
							c0.39-0.19,0.87-0.03,1.06,0.36c0.19,0.39,0.03,0.87-0.36,1.06l-29.35,14.41C505.64,501.43,505.52,501.46,505.41,501.46z"/>
					</g>
					<g>
						<path class="st4" d="M493.07,497.88c-0.24,0-0.47-0.11-0.63-0.31l-19.5-25.24c-0.27-0.35-0.2-0.85,0.14-1.11
							c0.34-0.27,0.84-0.21,1.11,0.14l19.5,25.24c0.27,0.35,0.2,0.85-0.14,1.11C493.41,497.83,493.24,497.88,493.07,497.88z"/>
					</g>
					<g>
						<path class="st4" d="M483.89,550.15c-0.21,0-0.41-0.08-0.57-0.24l-31.74-32.74c-0.3-0.31-0.3-0.82,0.02-1.12
							c0.32-0.3,0.82-0.3,1.12,0.02l31.74,32.74c0.3,0.31,0.3,0.82-0.02,1.12C484.29,550.08,484.09,550.15,483.89,550.15z"/>
					</g>
					<g>
						<path class="st5" d="M491.29,551.69c-0.33,0-0.63-0.2-0.75-0.53c-0.15-0.41,0.07-0.87,0.48-1.01l45.5-16.19
							c0.41-0.16,0.87,0.07,1.01,0.48c0.15,0.41-0.07,0.87-0.48,1.01l-45.5,16.19C491.47,551.67,491.38,551.69,491.29,551.69z"/>
					</g>
				</g>
				<path class="st5" d="M259.14,348.32c1.88-2,3.62-4.21,4.67-6.66c0.67-1.54,1.23-3.42,1.41-5.1c0.22-1.94-0.29-2.69-1.2-4.2
					c-1.52-2.53-5.16-3.81-7.63-2.18c-1.71,1.14-2.45,3.25-2.94,5.25c-0.54,2.24-4.01,18.57,1.55,16.54
					c0.65-0.24,1.17-0.72,1.67-1.19C257.5,350,258.34,349.18,259.14,348.32z"/>
				<path class="st4" d="M200.05,353.48c-1.15-1.78-2.43-3.44-3.32-4.59c-2.25-2.89-5.21-5.36-8.74-6.37
					c-5.21-1.5-13.2,1.27-11.03,8.11c0.78,2.47,3.08,4.1,5.33,5.38c2.53,1.43,21.07,11.31,20.55,3.87
					C202.71,358.04,201.47,355.67,200.05,353.48z"/>
			</g>
			<path class="st6" d="M365.93,594.7c-10.23-1.95-17.6,5.73-18.09,6.22c-0.45-1.57-4.91-16.07-19.37-21.2
				c-9.14-3.26-17.19-0.94-19.96,0c1.84-4.94,0.86-10.45-2.51-14.38c-3.63-4.23-9.51-5.96-14.98-4.35
				c-6.18-9.55-17.53-14.5-28.69-12.51c-11.01,1.99-19.85,10.34-22.47,21.24c-3.33-4.98-9.33-7.49-14.98-6.26
				c-5.06,1.09-9.1,4.94-10.64,10c-6.89-7.19-17.34-9.89-26.82-6.85c-8.44,2.65-14.89,9.46-17.26,17.91
				c-6.78-5.36-15.91-7.38-24.4-4.71c-12.7,4-20.7,17.48-17.93,31.12c13.91,0,27.82,0,41.73,0h17.34h194.67
				C380.01,602.64,373.72,596.16,365.93,594.7z"/>
			<path class="st6" d="M659.16,587.63c-14.69-2.8-25.29,8.23-25.99,8.93c-0.65-2.26-7.05-23.08-27.81-30.45
				c-13.13-4.68-24.69-1.34-28.68,0c2.64-7.1,1.24-15.01-3.6-20.66c-5.22-6.08-13.67-8.55-21.52-6.24
				c-8.88-13.72-25.18-20.82-41.21-17.97c-15.82,2.85-28.51,14.85-32.28,30.51c-4.79-7.16-13.4-10.76-21.52-8.99
				c-7.26,1.56-13.07,7.1-15.28,14.37c-9.9-10.33-24.91-14.2-38.52-9.85c-12.13,3.81-21.39,13.59-24.8,25.72
				c-9.74-7.7-22.86-10.6-35.05-6.77c-18.24,5.74-29.73,25.1-25.76,44.7c19.98,0,39.96,0,59.94,0h24.91h279.6
				C679.39,599.03,670.35,589.73,659.16,587.63z"/>
			<g>
				<path class="st5" d="M274.81,584.57c5.52-2.29,11.6-2.53,17.28-0.92c0.76-12.25,6.36-23.63,15.82-30.75
					c12.76-9.6,31.08-10.4,46.42-2.07c-0.78-5.72,2.04-11.35,7.05-14.09c5.21-2.86,11.76-2.03,16.16,2.07
					c0.94-2.13,6.86-14.97,21.14-19.48c12.94-4.08,27.61,0.31,37.3,11.19c7.16-5.07,16.54-5.87,24.45-2.07
					c7.89,3.79,13.13,11.57,13.68,20.31c14.83-6.23,31.49-4.44,42.69,4.97c8.77,7.37,13.52,18.89,13.38,31.05
					c9.99,4.36,16.4,14.77,15.9,26.14c-8.1,0-16.2,0-24.31,0c-12.4,0-24.8,0-37.19,0c-54.87,0-109.73,0-164.6,0
					c-7.06,0-14.12,0-21.18,0c-13.44,0-26.88,0-40.32,0C257.96,599.38,264.57,588.82,274.81,584.57z"/>
				<path class="st4" d="M278.94,610.92c49.88,0,99.77,0,149.65,0c1.95-7.95-1.14-16.05-7.45-20.02c-7.15-4.5-15.03-1.58-15.94-1.23
					c2.71-6.75,0.88-14.47-4.5-19.21c-5.13-4.52-12.58-5.49-18.8-2.45c-0.98-0.95-11.89-11.16-27.38-8.17
					c-15.63,3.01-21.95,16.77-22.47,17.98c-3-4.9-8.57-7.49-13.89-6.54c-6.28,1.12-11.11,6.98-11.03,13.89
					c-7.14-3.95-15.83-3.46-22.07,1.23C277.8,591.86,275.14,602.05,278.94,610.92z"/>
				<path class="st5" d="M358.44,607.5v-28.6c0-0.78-0.63-1.41-1.41-1.41c-0.78,0-1.41,0.63-1.41,1.41v28.6
					c0,0.78,0.63,1.41,1.41,1.41C357.81,608.91,358.44,608.28,358.44,607.5"/>
				<path class="st5" d="M361.07,599.68l29.5-14.9c0.7-0.35,0.98-1.2,0.62-1.9c-0.35-0.7-1.2-0.98-1.9-0.62l-29.5,14.9
					c-0.7,0.35-0.98,1.2-0.62,1.9C359.52,599.75,360.37,600.03,361.07,599.68"/>
				<path class="st5" d="M347.71,598.23l-21.79-17.7c-0.61-0.49-1.5-0.4-1.99,0.21c-0.49,0.61-0.4,1.5,0.21,1.99l21.79,17.7
					c0.61,0.49,1.5,0.4,1.99-0.21C348.4,599.61,348.31,598.72,347.71,598.23"/>
				<path class="st4" d="M420.51,603.42v-57.2c0-0.78-0.63-1.41-1.41-1.41s-1.41,0.63-1.41,1.41v57.2c0,0.78,0.63,1.41,1.41,1.41
					S420.51,604.2,420.51,603.42"/>
				<path class="st4" d="M420.88,587.51L475,570.72c0.75-0.23,1.16-1.02,0.93-1.77c-0.23-0.75-1.02-1.16-1.77-0.93l-54.13,16.79
					c-0.75,0.23-1.16,1.02-0.93,1.77C419.34,587.32,420.13,587.74,420.88,587.51"/>
				<path class="st4" d="M450.75,576.37l4.77-16.68c0.21-0.75-0.22-1.53-0.97-1.75c-0.75-0.21-1.53,0.22-1.75,0.97l-4.77,16.68
					c-0.21,0.75,0.22,1.53,0.97,1.75C449.75,577.55,450.53,577.12,450.75,576.37"/>
				<path class="st4" d="M415,561.08l-13-13.27c-0.55-0.56-1.44-0.57-2-0.02c-0.56,0.55-0.57,1.44-0.02,2l13,13.27
					c0.55,0.56,1.44,0.57,2,0.02C415.53,562.54,415.54,561.64,415,561.08"/>
			</g>
		</g>
	</g>
	<g>
		<g>
			<g>
				<path class="st7" d="M390.07,351.14c-8.64-18.26,49.38-26.74,64.35-24.34c14.97,2.4-0.29,9.75-23.71,18.27
					C407.29,353.58,393.48,358.33,390.07,351.14z"/>
				<g>
					<path class="st7" d="M427.64,337.49c-5.88-15.59,47.47-14.89,60.74-11.08c13.27,3.81-1.29,7.7-23.37,11.46
						C442.94,341.62,429.96,343.62,427.64,337.49z"/>
					<path class="st7" d="M487.7,328.58c-0.87-6.15,9.92-6.46,13.6-6.43c6,0.05,12.97,4.66,12.99,7.04
						c0.02,2.38-13.63,1.45-14.08,1.99c-0.45,0.55,6.15,1.64,5.93,3.88c-0.21,2.24-9.13,1.92-12.62,0.4
						C490.04,333.95,488.24,332.43,487.7,328.58z"/>
				</g>
				<path class="st8" d="M403.8,333.29l20.21-4.73c0,0,4.41,3.48,6.28,9.09c1.87,5.62,2.01,10.83,2.01,10.83
					s-23.53,4.95-28.62,10.83"/>
			</g>
			<g>
				<g>
					<g>
						<path class="st9" d="M438.06,599.7c4.5,0.05,8.16,9.62,6.49,14.46c-1.67,4.84-24.2,8.72-26.5,5.09
							C415.76,615.63,430.86,599.62,438.06,599.7z"/>
						<g>
							<path class="st9" d="M446.48,502.05c-25.47-8.33-20.98,76.87-14,97.82c6.98,20.95,12.32-2.59,16.97-38.12
								C454.1,526.22,456.51,505.33,446.48,502.05z"/>
							<path class="st10" d="M430.33,603.07c9.15,3.45,12.27,0.18,12.31,0.14c0.15,0.25,0.29,0.5,0.43,0.76l0.04,0.08
								c1.63,3.18,2.38,7.4,1.44,10.12c-1.67,4.84-24.2,8.72-26.5,5.09C416.43,616.7,423.5,607.95,430.33,603.07z"/>
						</g>
					</g>
					<path class="st9" d="M455.99,413.63c-38.14-6.47-27.13,77.11-20.75,98.25c6.38,21.14,19.33-3.78,25-39.16
						C465.91,437.34,473.36,416.58,455.99,413.63z"/>
				</g>
				<g>
					<g>
						<path class="st9" d="M500.75,599.7c-4.5,0.05-8.16,9.62-6.49,14.46c1.67,4.84,24.2,8.72,26.5,5.09
							C523.05,615.63,507.95,599.62,500.75,599.7z"/>
						<g>
							<path class="st9" d="M491.15,501.58c25.35-8.7,22.08,76.56,15.4,97.61c-6.68,21.05-12.36-2.42-17.51-37.88
								C483.87,525.85,481.17,505,491.15,501.58z"/>
							<path class="st10" d="M508.48,603.07c-9.15,3.45-12.28,0.18-12.31,0.14c-0.15,0.25-0.29,0.5-0.43,0.76l-0.04,0.08
								c-1.63,3.18-2.38,7.4-1.44,10.12c1.67,4.84,24.2,8.72,26.5,5.09C522.38,616.7,515.31,607.95,508.48,603.07z"/>
						</g>
					</g>
					<path class="st9" d="M481.05,413.63c38.14-6.47,27.13,77.11,20.75,98.25c-6.38,21.14-19.33-3.78-25-39.16
						C471.13,437.34,463.68,416.58,481.05,413.63z"/>
				</g>
				<path class="st9" d="M503.96,414.74c-2.35-25.84,0.79-82.35-13.02-85.76c-8.96-2.21-16.27-2.77-22.62-2.77
					c-6.35,0-13.67,0.56-22.62,2.77c-13.81,3.41-10.67,59.92-13.02,85.76c-2.08,22.83,12.08,20.36,35.64,20.36
					C491.88,435.09,506.04,437.57,503.96,414.74z"/>
				<path class="st9" d="M476.68,317.04l-8.36,1.13l-8.36-1.13v9.76c5.64,1.92,8.34,2.12,8.36,2.12v0h0h0v0
					c0.02,0,2.72-0.2,8.36-2.12V317.04z"/>
				<ellipse class="st7" cx="468.35" cy="323.27" rx="7.27" ry="4.17"/>
				<g>
					<path class="st9" d="M443.03,332.58c-9.64-17.75-50.72,24.11-57.62,37.6c-6.89,13.5,8.05,5.52,28.74-8.37
						C434.84,347.92,446.82,339.57,443.03,332.58z"/>
				</g>
				<g>
					<path class="st9" d="M474.6,341.45c-4.49-19.7,54-15.42,68.09-9.85c14.09,5.58-2.39,9.46-27.1,12.7
						C490.88,347.55,476.37,349.19,474.6,341.45z"/>
					<path class="st9" d="M543.92,337.97c16.46-2.55-10.4-48.65-20.26-58.33c-9.85-9.68-6.07,4.92,1.53,25.98
						C532.8,326.69,537.45,338.98,543.92,337.97z"/>
					<path class="st9" d="M517.47,280.7c5.43,3.03,9.59-6.93,10.88-10.38c2.11-5.62,0.32-13.78-1.89-14.65
						c-2.21-0.87-6.25,12.2-6.92,12.42c-0.67,0.22,0.68-6.32-1.48-6.93c-2.16-0.61-5.07,7.83-4.91,11.63
						C513.31,276.58,514.07,278.81,517.47,280.7z"/>
				</g>
				<g>
					<path class="st9" d="M468.08,279.4c-14.07,0-16.64,13.23-16.54,23.37c0,0.93,0.05,1.78,0.09,2.62c0,0,0.01,0.11,0.02,0.27
						c0.19,10.04,6.41,20.37,16.44,20.37c10.27,0,17.3-10.92,16.88-21.06c-0.01-0.2-0.02-0.38-0.03-0.57
						c0.04-0.52,0.07-1.05,0.1-1.62C485.46,292.62,483.17,279.4,468.08,279.4z"/>
					<path class="st5" d="M468.26,274.07c-24.6,0-16.73,30.24-16.73,30.24l2.39-12.52c0,0,12.63-3.36,24.49-8.48
						c3.19,4.26,6.35,14.15,6.35,20.85c0,0,5.2-15.76-1.94-24.47c-0.66-0.81-2.98-0.6-2.98-0.6s-1.12-2.81-2.17-3.28
						C475.21,274.71,472.12,274.07,468.26,274.07z"/>
					<g>
						<g>
							<path class="st9" d="M485.17,302.77c0.89-0.28,2.98-1.26,2.6,2.93c-0.66,7.25-3.81,6.79-3.81,6.79
								c0.19-1.03,0.47-2.48,0.7-4.16c-0.85-0.69,0.24-1.59,0.28-2.43c0.05-0.14,0.05-0.33,0.05-0.51
								C485.07,304.54,485.12,303.7,485.17,302.77z"/>
							<path class="st11" d="M484.98,305.38c0,0,0.98-1.29,1.73-0.77c0.74,0.51,0.21,2.84-0.37,4.22c-0.59,1.38-1.24,1.5-1.35,1.12
								c-0.11-0.38,1.19-1.19,0.73-1.85c-0.46-0.65-0.94-0.77-0.9-1.15C484.86,306.57,484.98,305.38,484.98,305.38z"/>
							<path class="st5" d="M484.54,299.96c0.28,2.73-0.92,11.29-0.92,11.29l0.45,0.58l1.43-9.95L484.54,299.96z"/>
						</g>
						<g>
							<path class="st9" d="M451.54,302.77c-0.89-0.28-2.98-1.26-2.6,2.93c0.66,7.25,3.81,6.79,3.81,6.79
								c-0.19-1.03-0.47-2.48-0.7-4.16c0.85-0.69-0.24-1.59-0.28-2.43c-0.05-0.14-0.05-0.33-0.05-0.51
								C451.64,304.54,451.59,303.7,451.54,302.77z"/>
							<path class="st11" d="M451.73,305.38c0,0-0.98-1.29-1.73-0.77c-0.74,0.51-0.22,2.84,0.37,4.22c0.59,1.38,1.24,1.5,1.35,1.12
								c0.11-0.38-1.19-1.19-0.73-1.85c0.46-0.65,0.94-0.77,0.9-1.15C451.85,306.57,451.73,305.38,451.73,305.38z"/>
							<path class="st5" d="M452.16,299.96c-0.28,2.73,0.92,11.29,0.92,11.29l-0.45,0.58l-1.43-9.95L452.16,299.96z"/>
						</g>
					</g>
					<path class="st5" d="M478.41,283.31c-5.12,4.12-21.32,9.46-21.32,9.46l1.51-4.56L478.41,283.31z"/>
				</g>
				<path class="st12" d="M424.25,321.07"/>
				<path class="st10" d="M431.6,414.6c0,0-5.08,40.12-5.08,66.06c0,25.94,0.17,114.93,0.17,114.93l17.75,0.6
					c0,0,20.86-154.31,24.34-154.31c3.48,0,24.34,154.31,24.34,154.31l17.75-0.6c0,0,0.17-88.99,0.17-114.93
					c0-25.94-5.08-66.06-5.08-66.06H431.6z"/>
				<path class="st13" d="M431.32,328.69c-0.99,8.74-4.78,109.22-3.01,109.65c4.65,1.37,25.84,5.9,39.48,5.63
					c13.64-0.27,40.21-2.71,42.88-4.58c0.28-0.19,0.29-0.65,0.37-0.94c1.07-3.89,0.19-8.97,0-12.92c-0.34-7.1-4.25-34.84-4.78-41.93
					c-0.98-13-1.65-26.07-2.87-39.04c-0.38-4.09-2.16-7.64-3.84-11.43c-0.54-1.21-1.15-3.36-2.38-4.13
					c-1.31-0.83-3.91-0.64-5.47-0.87c-3.48-0.51-7.04-0.46-10.49-1.05c0,0-4.28,4.21-11.63,5.01c-7.3,0.8-15.13-4.93-15.24-5.01
					c-1.33-0.98-16.9-0.48-21.72,0.11C432.61,327.27,431.33,328.59,431.32,328.69z"/>
				<path class="st12" d="M506.22,417.95"/>
				<path class="st9" d="M392.16,365.58c14.39,8.39-27.44,41.5-40.15,46.91c-12.71,5.41-3.85-6.79,10.91-23.63
					C377.68,372.02,386.5,362.28,392.16,365.58z"/>
				<path class="st13" d="M432.62,327.19c0,0-18.53,8.25-35.25,25.23c-16.72,16.98-45.32,44.38-45.32,44.38l11.49,10.18
					c0,0,29.02-26.61,32.63-30.49c3.61-3.88,35.7-25.01,35.7-25.01l7.76-15.38L432.62,327.19z"/>
				<path class="st14" d="M352.05,396.8c-4.64,3.84-7.48,10.18-7.48,10.18s3.32-1.86,7.48-1.38c4.16,0.48,11.49,1.38,11.49,1.38
					l2.91-8.1L352.05,396.8z"/>
				<path class="st13" d="M481.21,327.08c6.44,0.64,20.69-0.75,23.56-0.68c2.88,0.06,25.06,0.42,25.06,0.42l-11.25-37.64
					c0,0,4.53-3.36,11.25-3.68c0,0,12.8,20.05,16.21,29.65c3.41,9.6,5.33,14.49,2.45,22.87c0,0-15.36,7.42-46.29,10.51
					L481.21,327.08z"/>
			</g>
			<g>
				<path class="st14" d="M478.25,167.72l32.74,20.59c0.89,0.56,2,0.65,2.97,0.23l35.52-15.3c2.44-1.05,5.02,1.15,4.37,3.72
					l-9.46,37.5c-0.26,1.02,0,2.1,0.7,2.89l25.53,29.06c1.75,1.99,0.46,5.13-2.19,5.3l-38.59,2.59c-1.05,0.07-2,0.65-2.54,1.56
					l-19.75,33.26c-1.35,2.28-4.73,2.02-5.72-0.44l-14.39-35.9c-0.39-0.98-1.24-1.7-2.27-1.93l-37.73-8.5
					c-2.59-0.58-3.38-3.88-1.35-5.58L475.8,212c0.81-0.67,1.23-1.7,1.14-2.75l-3.57-38.51C473.11,168.09,476,166.31,478.25,167.72z"
					/>
				
					<linearGradient id="SVGID_4_" gradientUnits="userSpaceOnUse" x1="485.4228" y1="224.3524" x2="614.6359" y2="224.3524" gradientTransform="matrix(0.852 -0.5236 0.5236 0.852 -79.5692 316.0738)">
					<stop  offset="0" style="stop-color:#FBD15B"/>
					<stop  offset="1" style="stop-color:#F9C237"/>
				</linearGradient>
				<path class="st15" d="M504.81,291.89c-0.11,0-0.23,0-0.35-0.01c-1.68-0.13-3.11-1.18-3.74-2.74l-14.39-35.9
					c-0.25-0.61-0.78-1.07-1.42-1.21l-37.73-8.5c-1.64-0.37-2.91-1.62-3.3-3.25c-0.4-1.64,0.16-3.32,1.45-4.4l29.7-24.78
					c0.51-0.42,0.77-1.07,0.71-1.73l-3.58-38.51c-0.16-1.68,0.64-3.27,2.07-4.15c1.43-0.88,3.21-0.87,4.64,0.02l32.75,20.59
					c0.56,0.35,1.25,0.41,1.86,0.14l35.52-15.3c1.55-0.66,3.3-0.4,4.59,0.69c1.28,1.09,1.82,2.78,1.41,4.42l-9.46,37.5
					c-0.16,0.64,0,1.32,0.44,1.82l25.53,29.06c1.11,1.26,1.4,3.02,0.76,4.57c-0.64,1.56-2.08,2.59-3.76,2.71l-38.59,2.59
					c-0.66,0.04-1.25,0.41-1.59,0.98l-19.75,33.26C507.78,291.09,506.35,291.89,504.81,291.89z M476.54,168.42
					c-0.36,0-0.72,0.1-1.05,0.3c-0.67,0.41-1.02,1.12-0.95,1.9l3.58,38.51c0.13,1.44-0.45,2.85-1.56,3.78l-29.7,24.78
					c-0.6,0.5-0.85,1.25-0.67,2.01c0.18,0.76,0.75,1.32,1.51,1.49l37.73,8.5c1.41,0.32,2.57,1.31,3.11,2.65l14.39,35.9
					c0.29,0.73,0.93,1.19,1.71,1.25c0.79,0.06,1.48-0.3,1.88-0.98l19.75-33.26c0.74-1.24,2.04-2.04,3.48-2.14l38.6-2.59
					c0.78-0.05,1.42-0.51,1.72-1.24c0.3-0.72,0.17-1.5-0.35-2.09l-25.53-29.06c-0.95-1.09-1.31-2.57-0.96-3.97l9.46-37.51
					c0.19-0.76-0.05-1.51-0.65-2.02c-0.59-0.51-1.38-0.63-2.1-0.32l-35.52,15.3c-1.33,0.57-2.85,0.45-4.07-0.32l-32.75-20.59
					C477.28,168.52,476.91,168.42,476.54,168.42z"/>
			</g>
			<g>
				<path class="st9" d="M403.98,414.99c-16.18-37.75,10.58-78.31-3.23-81.72c-8.96-2.21-16.27-2.77-22.62-2.77
					c-6.36,0-13.67,0.56-22.62,2.77c-13.81,3.41,12.95,43.97-3.23,81.72c-10.67,24.89,2.29,24.4,25.86,24.4
					C401.69,439.39,414.65,439.88,403.98,414.99z"/>
				<path class="st9" d="M386.61,322.77l-8.36,1.13l-8.36-1.13v9.76c5.64,1.92,8.34,2.12,8.36,2.12v0h0h0v0
					c0.02,0,2.72-0.2,8.36-2.12V322.77z"/>
				<ellipse class="st7" cx="378.45" cy="323.81" rx="7.27" ry="4.17"/>
				<path class="st9" d="M370.14,416.79c-38.22-6.02-26.2,77.43-19.57,98.49c6.63,21.07,19.29-4.01,24.53-39.46
					C380.34,440.38,387.54,419.53,370.14,416.79z"/>
				<g>
					<path class="st9" d="M360.5,500.93c-26-6.52-15.53,78.15-7.09,98.56c8.44,20.41,12.11-3.45,14.25-39.22
						C369.8,524.5,370.73,503.5,360.5,500.93z"/>
					<path class="st9" d="M357.73,599.1c4.5-0.08,8.44,9.38,6.91,14.26c-1.53,4.88-23.93,9.43-26.33,5.87
						C335.91,615.69,350.54,599.24,357.73,599.1z"/>
					<path class="st13" d="M350.1,602.7c9.25,3.18,12.28-0.18,12.31-0.22c0.16,0.24,0.31,0.49,0.45,0.75l0.05,0.08
						c1.73,3.13,2.6,7.32,1.74,10.07c-1.53,4.88-23.93,9.43-26.33,5.87C336.61,616.73,343.42,607.78,350.1,602.7z"/>
				</g>
				<path class="st9" d="M385.55,416.79c38.22-6.02,26.2,77.43,19.57,98.49c-6.63,21.07-19.29-4.01-24.53-39.46
					C375.34,440.38,368.15,419.53,385.55,416.79z"/>
				<g>
					<path class="st9" d="M395.18,500.93c26-6.52,15.53,78.15,7.09,98.56c-8.44,20.41-12.11-3.45-14.25-39.22
						C385.88,524.5,384.96,503.5,395.18,500.93z"/>
					<path class="st9" d="M397.95,599.1c-4.5-0.08-8.44,9.38-6.91,14.26c1.53,4.88,23.93,9.43,26.33,5.87
						C419.77,615.69,405.14,599.24,397.95,599.1z"/>
					<path class="st13" d="M405.58,602.7c-9.25,3.18-12.28-0.18-12.31-0.22c-0.16,0.24-0.31,0.49-0.45,0.75l-0.05,0.08
						c-1.73,3.13-2.6,7.32-1.74,10.07c1.53,4.88,23.93,9.43,26.33,5.87C419.07,616.73,412.26,607.78,405.58,602.7z"/>
				</g>
				<g>
					<g>
						<path class="st9" d="M392.86,304.89c0.89-0.28,2.98-1.26,2.6,2.93c-0.66,7.25-3.81,6.79-3.81,6.79
							c0.19-1.03,0.47-2.48,0.7-4.16c-0.17-1.88,0.24-1.59,0.28-2.43c0.05-0.14,0.05-0.33,0.05-0.51
							C392.77,306.66,392.81,305.82,392.86,304.89z"/>
						<path class="st11" d="M392.67,307.5c0,0,0.98-1.29,1.73-0.77c0.74,0.51,0.22,2.84-0.37,4.22c-0.59,1.38-1.24,1.5-1.35,1.12
							c-0.11-0.38,1.19-1.19,0.73-1.85c-0.46-0.65-0.94-0.77-0.9-1.15C392.55,308.69,392.67,307.5,392.67,307.5z"/>
						<path class="st9" d="M363.39,304.89c-0.89-0.28-2.98-1.26-2.6,2.93c0.66,7.25,3.81,6.79,3.81,6.79
							c-0.19-1.03-0.47-2.48-0.7-4.16c0.17-1.88-0.24-1.59-0.28-2.43c-0.05-0.14-0.05-0.33-0.05-0.51
							C363.48,306.66,363.44,305.82,363.39,304.89z"/>
						<path class="st11" d="M363.58,307.5c0,0-0.98-1.29-1.73-0.77c-0.74,0.51-0.22,2.84,0.37,4.22c0.59,1.38,1.24,1.5,1.35,1.12
							c0.11-0.38-1.19-1.19-0.73-1.85c0.46-0.65,0.94-0.77,0.89-1.15C363.7,308.69,363.58,307.5,363.58,307.5z"/>
					</g>
					<path class="st13" d="M400.31,317.39c-1-5.06-2.52-13.52-2.52-18.05l-16.16,2.29l-3.38,20.99l-3.38-20.99l-16.16-2.29
						c0,4.53-1.52,12.98-2.52,18.05c-0.43,2.19,1.18,4.25,3.42,4.36l18.63,0.94v0l0.01,0l0.01,0l0,0l18.63-0.94
						C399.13,321.64,400.74,319.58,400.31,317.39z"/>
					<path class="st9" d="M393.21,306.04c0,11.58-6.7,20.97-14.95,20.97s-14.95-9.39-14.95-20.97c0-11.58,6.7-20.97,14.95-20.97
						S393.21,294.46,393.21,306.04z"/>
					<path class="st13" d="M394.6,308.62c0.41-0.36-0.16-2.11-0.22-2.58c-0.16-1.18-0.76-2.27-1.53-3.21
						c-0.92-1.12-2.07-2.06-3.12-3.07c-3.32-3.19-5.73-7.15-7.37-11.28c-0.07-0.18-0.65-1.26-0.53-1.44
						c-3.53,5.34-8.69,9.95-14.26,13.49c-3.23,2.05-6.28,4.01-7.27,7.73c0.03-1.42-0.84-2.66-1.05-4.02
						c-0.25-1.64-0.53-3.23-0.53-4.89c0-11.62,8.73-21.05,19.53-21.05c4.64,0,6.52,2.84,6.52,2.84s3.01-0.58,6.01,2.06
						c4.36,3.79,7.02,9.65,7.02,16.15C397.79,302.39,397.16,306.4,394.6,308.62z"/>
					<path class="st13" d="M375.94,294.01c-5.04,4.24-11.68,14.4-11.52,20.01c0.16,5.61,0.16,5.61,0.16,5.61l-5.87-4.9l2.03-14
						l4-4.08L375.94,294.01z"/>
					<path class="st13" d="M388.11,298.06c0.06,0.06,0.13,0.13,0.19,0.2c2.89,3.13,4.58,10.87,3.94,15.2
						c-0.65,4.43,0.26,5.57,0.26,5.57l3.94-6.78l-0.49-13.8l-6.32-3l-1.46,2.68"/>
				</g>
				<g>
					<path class="st9" d="M364.49,346.48c-7.63,18.71-53.07-18.37-61.41-31.02c-8.34-12.66,7.39-6.37,29.49,5.16
						C354.66,332.14,367.49,339.12,364.49,346.48z"/>
					<g>
						<path class="st9" d="M306.41,317.29c-16.35,3.19-6.75-49.29-0.77-61.74c5.98-12.45,7.38,2.56,7.39,24.96
							C313.04,302.9,312.85,316.03,306.41,317.29z"/>
						<path class="st9" d="M307.66,256.59c-6.21-0.17-4.71-10.86-4.06-14.48c1.06-5.91,6.76-12.01,9.11-11.64
							c2.35,0.38-0.85,13.68-0.39,14.22c0.46,0.54,2.64-5.79,4.81-5.2c2.17,0.58,0.36,9.32-1.71,12.51
							C313.35,255.17,311.56,256.69,307.66,256.59z"/>
						<g>
							<path class="st14" d="M319.12,140.21l17.12,34.69c0.47,0.94,1.37,1.6,2.41,1.75l38.28,5.56c2.62,0.38,3.67,3.61,1.77,5.46
								l-27.7,27c-0.75,0.74-1.1,1.79-0.92,2.83l6.54,38.12c0.45,2.61-2.3,4.61-4.64,3.37l-34.24-18c-0.93-0.49-2.05-0.49-2.98,0
								l-34.24,18c-2.35,1.23-5.09-0.76-4.64-3.37l6.54-38.12c0.18-1.04-0.17-2.1-0.92-2.83l-27.7-27c-1.9-1.85-0.85-5.08,1.77-5.46
								l38.28-5.56c1.04-0.15,1.94-0.81,2.41-1.75l17.12-34.69C314.55,137.83,317.94,137.83,319.12,140.21z"/>
							<linearGradient id="SVGID_5_" gradientUnits="userSpaceOnUse" x1="251.6385" y1="198.8967" x2="380.8543" y2="198.8967">
								<stop  offset="0" style="stop-color:#FBD15B"/>
								<stop  offset="1" style="stop-color:#F9C237"/>
							</linearGradient>
							<path class="st16" d="M353.46,260.56c-0.7,0-1.4-0.17-2.05-0.51l-34.24-18c-0.59-0.31-1.28-0.31-1.87,0l-34.24,18
								c-1.49,0.78-3.26,0.65-4.62-0.34c-1.36-0.99-2.03-2.63-1.75-4.29l6.54-38.12c0.11-0.65-0.1-1.32-0.58-1.78l-27.7-27
								c-1.21-1.18-1.63-2.9-1.11-4.5c0.52-1.6,1.88-2.75,3.54-2.99l38.28-5.56c0.65-0.1,1.22-0.51,1.51-1.1l17.12-34.69
								c0.75-1.51,2.26-2.45,3.94-2.45c1.68,0,3.19,0.94,3.94,2.45l17.12,34.68c0.29,0.59,0.86,1,1.51,1.1l38.28,5.56
								c1.67,0.24,3.02,1.39,3.54,2.99c0.52,1.6,0.09,3.33-1.11,4.5l-27.7,27c-0.47,0.46-0.69,1.13-0.58,1.78l6.54,38.12
								c0.28,1.66-0.38,3.3-1.75,4.29C355.27,260.27,354.37,260.56,353.46,260.56z M316.25,239.44c0.7,0,1.4,0.17,2.04,0.5l34.24,18
								c0.69,0.36,1.48,0.31,2.12-0.15c0.63-0.46,0.93-1.19,0.8-1.96l-6.54-38.12c-0.25-1.42,0.23-2.88,1.26-3.89l27.7-27
								c0.56-0.55,0.75-1.32,0.51-2.06c-0.24-0.74-0.85-1.25-1.62-1.37l-38.28-5.56c-1.43-0.21-2.67-1.11-3.31-2.4l-17.12-34.68
								c-0.35-0.7-1.02-1.12-1.8-1.12s-1.45,0.42-1.8,1.12l-17.12,34.68c-0.64,1.3-1.88,2.19-3.31,2.4l-38.28,5.56
								c-0.77,0.11-1.38,0.62-1.62,1.37c-0.24,0.74-0.05,1.51,0.51,2.06l27.7,27c1.04,1.01,1.51,2.46,1.26,3.89l-6.54,38.12
								c-0.13,0.77,0.17,1.5,0.8,1.96c0.63,0.46,1.42,0.52,2.12,0.15l34.24-18C314.84,239.6,315.55,239.44,316.25,239.44z"/>
						</g>
					</g>
				</g>
				<path class="st17" d="M349.4,411.4c0,0-7.62,26.81-7.35,43.39c0.27,16.58,1.07,47.6,0.27,54.56c-0.8,6.95,71.01,5.75,70.2-1.2
					c-0.8-6.95,0.4-36.77,0.67-53.35c0.27-16.58-7.35-43.39-7.35-43.39H349.4z"/>
				<path class="st8" d="M403.82,358.44c-6.42,33.9,2.01,52.95,2.01,52.95c-17.45,7.42-57.17,3.01-57.17,1.4
					c0-1.6,3.21-4.21,5.62-23.27c2.41-19.06-3.11-36.2-3.11-36.2c-9.13-2.61-28.28-16.25-28.28-16.25
					c2.11-9.03,12.34-16.25,12.34-16.25s18.25,10.43,20.26,10.53c2.01,0.1,8.12-0.7,8.12-0.7s6.32,10.03,14.34,9.73
					c8.02-0.3,14.24-9.63,14.24-9.63s12.84,0.7,13.24,4.51c0.4,3.81,0.6,7.42,0,12.54C404.82,352.93,403.82,358.44,403.82,358.44z"
					/>
			</g>
			<g>
				<path class="st9" d="M349.27,403.71c-6.18-0.64-6.09,10.15-5.92,13.83c0.27,5.99,5.13,12.79,7.51,12.73
					c2.38-0.07,0.95-13.67,1.48-14.14c0.53-0.47,1.86,6.08,4.09,5.79c2.23-0.29,1.58-9.19-0.06-12.62
					C354.72,405.85,353.14,404.11,349.27,403.71z"/>
			</g>
		</g>
		<g>
			<g>
				<g>
					<g>
						<path class="st9" d="M604.45,599.2c4.5,0.05,8.16,9.62,6.49,14.46c-1.67,4.84-24.2,8.72-26.5,5.09
							C582.14,615.13,597.25,599.11,604.45,599.2z"/>
						<g>
							<path class="st9" d="M614.7,501.94c-25.37-8.65-21.95,76.6-15.23,97.63c6.72,21.04,12.35-2.44,17.45-37.91
								C622.01,526.2,624.68,505.34,614.7,501.94z"/>
							<path class="st13" d="M596.71,602.56c9.15,3.45,12.28,0.18,12.31,0.14c0.15,0.25,0.29,0.5,0.43,0.76l0.04,0.08
								c1.63,3.18,2.38,7.4,1.44,10.12c-1.67,4.84-24.2,8.72-26.5,5.09C582.82,616.19,589.89,607.45,596.71,602.56z"/>
						</g>
					</g>
					<path class="st9" d="M624.42,412.99c-38.14-6.47-27.13,77.11-20.75,98.25c6.38,21.14,19.33-3.78,25-39.16
						C634.34,436.7,641.78,415.94,624.42,412.99z"/>
				</g>
				<g>
					<g>
						<path class="st9" d="M669.45,599.2c-4.5,0.05-8.16,9.62-6.49,14.46c1.67,4.84,24.2,8.72,26.5,5.09S676.64,599.11,669.45,599.2
							z"/>
						<g>
							<path class="st9" d="M661.72,501.48c25.61-7.91,19.71,77.2,12.39,98.04c-7.33,20.83-12.27-2.8-16.34-38.4
								C653.7,525.52,651.64,504.59,661.72,501.48z"/>
							<path class="st13" d="M677.18,602.56c-9.15,3.45-12.28,0.18-12.31,0.14c-0.15,0.25-0.29,0.5-0.43,0.76l-0.04,0.08
								c-1.63,3.18-2.38,7.4-1.44,10.12c1.67,4.84,24.2,8.72,26.5,5.09C691.08,616.19,684.01,607.45,677.18,602.56z"/>
						</g>
					</g>
					<path class="st9" d="M649.48,413.39c38.14-6.47,27.13,77.11,20.75,98.25c-6.38,21.14-19.33-3.78-25-39.16
						C639.55,437.1,632.11,416.34,649.48,413.39z"/>
				</g>
				<path class="st9" d="M672.65,414.23c-2.35-25.84,0.79-82.35-13.02-85.76c-8.96-2.21-16.27-2.77-22.62-2.77
					c-6.35,0-13.67,0.56-22.62,2.77c-13.81,3.41-10.67,59.92-13.02,85.76c-2.08,22.83,12.08,20.36,35.64,20.36
					C660.58,434.59,674.73,437.06,672.65,414.23z"/>
				<path class="st9" d="M645.37,316.54l-8.36,1.13l-8.36-1.13v9.76c5.64,1.92,8.34,2.12,8.36,2.12v0h0h0v0
					c0.02,0,2.72-0.2,8.36-2.12V316.54z"/>
				<g>
					<path class="st9" d="M610.63,351.29c17.84-9.49-23.65-50.94-37.09-57.95c-13.44-7.01-5.59,8,8.12,28.81
						C595.37,342.96,603.62,355.02,610.63,351.29z"/>
					<path class="st9" d="M570.02,297.38c-16.36-3.16,12.19-48.24,22.39-57.54c10.2-9.31,5.88,5.14-2.49,25.91
						C581.55,286.52,576.45,298.63,570.02,297.38z"/>
					<path class="st9" d="M593.87,240.33c-5.84-2.13-1.03-11.79,0.73-15.02c2.87-5.27,10.21-9.25,12.32-8.15
						c2.11,1.1-5.14,12.71-4.87,13.36c0.27,0.65,4.34-4.65,6.21-3.41c1.87,1.24-2.61,8.95-5.58,11.32
						C599.71,240.79,597.53,241.66,593.87,240.33z"/>
				</g>
				<g>
					<path class="st9" d="M663.72,351.29c-17.84-9.49,23.65-50.94,37.09-57.95c13.44-7.01,5.59,8-8.12,28.81
						C678.98,342.96,670.74,355.02,663.72,351.29z"/>
					<path class="st9" d="M704.34,297.38c16.36-3.16-12.19-48.24-22.39-57.54c-10.2-9.31-5.88,5.14,2.49,25.91
						C692.8,286.52,697.9,298.63,704.34,297.38z"/>
					<path class="st9" d="M680.48,240.33c5.84-2.13,1.03-11.79-0.73-15.02c-2.87-5.27-10.21-9.25-12.32-8.15
						c-2.11,1.1,5.14,12.71,4.87,13.36c-0.27,0.65-4.34-4.65-6.21-3.41c-1.87,1.24,2.61,8.95,5.58,11.32
						C674.64,240.79,676.82,241.66,680.48,240.33z"/>
				</g>
				<path class="st7" d="M644.32,322.82c0,2.31-3.26,4.17-7.27,4.17c-4.02,0-7.27-1.87-7.27-4.17s3.26-4.17,7.27-4.17
					C641.07,318.64,644.32,320.51,644.32,322.82z"/>
				<g>
					<path class="st9" d="M636.77,278.89c-14.07,0-16.64,13.23-16.54,23.37c0,0.93,0.05,1.78,0.09,2.62c0,0,0.01,0.11,0.02,0.27
						c0.19,10.04,6.41,20.37,16.44,20.37c10.27,0,17.3-10.92,16.88-21.06c-0.01-0.2-0.02-0.38-0.03-0.57
						c0.04-0.52,0.07-1.05,0.1-1.62C654.16,292.12,651.87,278.89,636.77,278.89z"/>
					<g>
						<g>
							<path class="st9" d="M653.86,302.26c0.89-0.28,2.98-1.26,2.6,2.93c-0.66,7.25-3.81,6.79-3.81,6.79
								c0.19-1.03,0.47-2.48,0.7-4.16c-0.85-0.69,0.24-1.59,0.28-2.43c0.05-0.14,0.05-0.33,0.05-0.51
								C653.77,304.04,653.81,303.19,653.86,302.26z"/>
							<path class="st11" d="M653.67,304.88c0,0,0.98-1.29,1.73-0.77c0.74,0.51,0.21,2.84-0.37,4.22c-0.59,1.38-1.24,1.5-1.35,1.12
								c-0.11-0.38,1.19-1.19,0.73-1.85c-0.46-0.65-0.94-0.77-0.9-1.15C653.55,306.06,653.67,304.88,653.67,304.88z"/>
							<path class="st13" d="M653.24,299.45c0.28,2.73-0.92,11.29-0.92,11.29l0.45,0.58l1.43-9.95L653.24,299.45z"/>
						</g>
						<g>
							<path class="st9" d="M620.24,302.26c-0.89-0.28-2.98-1.26-2.6,2.93c0.66,7.25,3.81,6.79,3.81,6.79
								c-0.19-1.03-0.47-2.48-0.7-4.16c0.85-0.69-0.24-1.59-0.28-2.43c-0.05-0.14-0.05-0.33-0.05-0.51
								C620.33,304.04,620.28,303.19,620.24,302.26z"/>
							<path class="st11" d="M620.42,304.88c0,0-0.98-1.29-1.73-0.77c-0.74,0.51-0.22,2.84,0.37,4.22c0.59,1.38,1.24,1.5,1.35,1.12
								c0.11-0.38-1.19-1.19-0.73-1.85c0.46-0.65,0.94-0.77,0.9-1.15C620.55,306.06,620.42,304.88,620.42,304.88z"/>
							<path class="st13" d="M620.86,299.45c-0.28,2.73,0.92,11.29,0.92,11.29l-0.45,0.58l-1.43-9.95L620.86,299.45z"/>
						</g>
					</g>
				</g>
			</g>
			<g>
				<path class="st14" d="M641.09,144.14l17.12,34.69c0.47,0.94,1.37,1.6,2.41,1.75l38.28,5.56c2.62,0.38,3.67,3.61,1.77,5.46
					l-27.7,27c-0.75,0.74-1.1,1.79-0.92,2.83l6.54,38.12c0.45,2.61-2.3,4.61-4.64,3.37l-34.24-18c-0.93-0.49-2.05-0.49-2.98,0
					l-34.24,18c-2.35,1.23-5.09-0.76-4.64-3.37l6.54-38.12c0.18-1.04-0.17-2.1-0.92-2.83l-27.7-27c-1.9-1.85-0.85-5.08,1.77-5.46
					l38.28-5.56c1.04-0.15,1.94-0.81,2.41-1.75l17.12-34.69C636.52,141.76,639.91,141.76,641.09,144.14z"/>
				<linearGradient id="SVGID_6_" gradientUnits="userSpaceOnUse" x1="573.6078" y1="202.8215" x2="702.8246" y2="202.8215">
					<stop  offset="0" style="stop-color:#FBD15B"/>
					<stop  offset="1" style="stop-color:#F9C237"/>
				</linearGradient>
				<path class="st18" d="M601,264.48c-0.91,0-1.81-0.28-2.58-0.84c-1.36-0.99-2.03-2.63-1.75-4.29l6.54-38.12
					c0.11-0.65-0.1-1.32-0.58-1.78l-27.7-27c-1.21-1.17-1.63-2.9-1.11-4.5c0.52-1.6,1.88-2.75,3.55-2.99l38.28-5.56
					c0.65-0.1,1.22-0.51,1.51-1.1l17.12-34.69c0.74-1.51,2.25-2.45,3.94-2.45c0,0,0,0,0,0c1.68,0,3.19,0.94,3.94,2.45l17.12,34.68
					c0.29,0.59,0.86,1,1.51,1.1l38.28,5.56c1.67,0.24,3.02,1.39,3.55,2.99c0.52,1.6,0.09,3.33-1.11,4.5l-27.7,27
					c-0.47,0.46-0.69,1.13-0.58,1.78l6.54,38.12c0.28,1.66-0.38,3.3-1.75,4.29c-1.36,0.99-3.13,1.12-4.62,0.34l-34.24-18
					c-0.59-0.31-1.28-0.31-1.87,0l-34.24,18C602.4,264.31,601.69,264.48,601,264.48z M638.22,143.54
					C638.22,143.54,638.22,143.54,638.22,143.54c-0.78,0-1.45,0.42-1.8,1.12l-17.12,34.69c-0.64,1.3-1.88,2.19-3.31,2.4l-38.28,5.56
					c-0.77,0.11-1.38,0.62-1.62,1.37c-0.24,0.74-0.05,1.51,0.51,2.06l27.7,27c1.03,1.01,1.51,2.46,1.26,3.89l-6.54,38.12
					c-0.13,0.77,0.17,1.5,0.8,1.96c0.63,0.46,1.42,0.52,2.12,0.15l34.24-18c1.28-0.67,2.81-0.67,4.09,0l34.24,18
					c0.69,0.36,1.48,0.31,2.12-0.15c0.63-0.46,0.93-1.19,0.8-1.96l-6.54-38.12c-0.24-1.43,0.23-2.88,1.26-3.89l27.7-27
					c0.56-0.55,0.75-1.32,0.51-2.06c-0.24-0.74-0.85-1.25-1.62-1.37l-38.28-5.56c-1.43-0.21-2.67-1.11-3.31-2.4l-17.12-34.69
					C639.67,143.96,639,143.54,638.22,143.54z"/>
			</g>
			<path class="st10" d="M600.07,417.11c0,0-5.08,40.12-5.08,66.06c0,25.94,0.17,114.93,0.17,114.93l17.75,0.6
				c0,0,20.86-154.31,24.34-154.31c3.48,0,24.34,154.31,24.34,154.31l17.75-0.6c0,0,0.17-88.99,0.17-114.93
				c0-25.94-5.08-66.06-5.08-66.06H600.07z"/>
			<path class="st19" d="M636.72,420.09c19.31-0.31,37.9-2.84,39.04-4.05c2.01-2.14-3.74-59.51-2.94-61.51
				c0.8-2.01,20.06-26.48,20.06-26.48l-0.24-0.5c-3.25-6.65-9.2-11.59-16.34-13.54l0,0c0,0-12.3,12.8-13.1,13.31
				c-0.8,0.5-14.78-1.52-14.78-1.52s-3.78,4.53-11.5,4.93c-7.72-0.4-11.5-4.93-11.5-4.93s-13.97,2.02-14.78,1.52
				c-0.8-0.5-13.1-13.31-13.1-13.31l0,0c-7.14,1.95-13.09,6.89-16.34,13.54l-0.24,0.5c0,0,19.26,24.47,20.06,26.48
				c0.8,2.01-4.95,59.37-2.94,61.51c1.14,1.22,19.73,3.75,39.04,4.05"/>
			<path class="st13" d="M636.77,283.86c3.85,0,8.09-0.8,9.69,0c1.6,0.8,4.24,6.16,4.24,8.32s0,4,0,5.6c0,1.6,3.16,4.48,3.16,4.48
				l0.34-0.89c0,0-0.1-5.44,0-9.52c0.1-4.08-3.04-14.88-17.43-14.88"/>
			<path class="st13" d="M636.77,283.86c-3.85,0-8.09-0.8-9.69,0c-1.6,0.8-4.24,6.16-4.24,8.32s0,4,0,5.6c0,1.6-3.16,4.48-3.16,4.48
				l-0.34-0.89c0,0,0.1-5.44,0-9.52c-0.1-4.08,3.04-14.88,17.43-14.88"/>
		</g>
		<g>
			<g>
				<g>
					<g>
						<path class="st9" d="M226.81,596.86c4.5,0.05,8.16,9.62,6.49,14.46c-1.67,4.84-24.2,8.72-26.5,5.09
							C204.5,612.79,219.61,596.77,226.81,596.86z"/>
						<g>
							<path class="st9" d="M235.93,499.67c-25.41-8.53-21.56,76.71-14.74,97.71c6.82,21,12.34-2.5,17.26-37.99
								C243.36,523.9,245.92,503.03,235.93,499.67z"/>
							<path class="st10" d="M219.07,600.22c9.15,3.45,12.27,0.18,12.31,0.14c0.15,0.25,0.29,0.5,0.43,0.76l0.04,0.08
								c1.63,3.18,2.38,7.4,1.44,10.12c-1.67,4.84-24.2,8.72-26.5,5.09C205.18,613.85,212.25,605.11,219.07,600.22z"/>
						</g>
					</g>
					<path class="st9" d="M244.77,410.95c-38.14-6.47-27.13,77.11-20.75,98.25c6.38,21.14,19.33-3.78,25-39.16
						C254.69,434.66,262.14,413.9,244.77,410.95z"/>
				</g>
				<g>
					<g>
						<path class="st9" d="M290.6,596.76c-4.5,0.05-8.16,9.63-6.49,14.46c1.67,4.84,24.2,8.72,26.5,5.09
							C312.91,612.69,297.8,596.67,290.6,596.76z"/>
						<g>
							<path class="st9" d="M280.68,498.94c25.29-8.89,22.65,76.39,16.13,97.49c-6.52,21.1-12.37-2.32-17.8-37.74
								C273.58,523.27,270.73,502.44,280.68,498.94z"/>
							<path class="st10" d="M298.34,600.12c-9.15,3.45-12.27,0.18-12.31,0.14c-0.15,0.25-0.29,0.5-0.43,0.76l-0.04,0.08
								c-1.63,3.18-2.38,7.4-1.44,10.12c1.67,4.84,24.2,8.72,26.5,5.09C312.23,613.75,305.16,605.01,298.34,600.12z"/>
						</g>
					</g>
					<path class="st9" d="M270.43,410.75c38.14-6.47,27.13,77.11,20.75,98.25c-6.38,21.14-19.33-3.78-25-39.16
						C260.51,434.46,253.07,413.7,270.43,410.75z"/>
				</g>
				<path class="st9" d="M293.81,411.79c-2.35-25.84,0.8-82.35-13.02-85.76c-8.96-2.21-16.27-2.77-22.62-2.77
					c-6.36,0-13.67,0.56-22.62,2.77c-13.81,3.41-10.67,59.92-13.02,85.76c-2.08,22.83,12.08,20.36,35.64,20.36
					C281.73,432.15,295.89,434.62,293.81,411.79z"/>
				<path class="st9" d="M272.32,329.06c13.02-15.44,44.83,33.83,48.86,48.44c4.03,14.61-8.99,3.79-26.46-13.99
					C277.25,345.73,267.2,335.13,272.32,329.06z"/>
				<path class="st9" d="M266.53,314.1l-8.36,1.13l-8.36-1.13v9.76c5.64,1.92,8.34,2.12,8.36,2.12v0l0,0l0,0v0
					c0.02,0,2.72-0.2,8.36-2.12V314.1z"/>
				<path class="st9" d="M238.87,339.98c9.96-17.57-47.29-30.29-62.39-29c-15.1,1.29-0.43,9.75,22.31,19.96
					C221.53,341.14,234.95,346.89,238.87,339.98z"/>
				<path class="st9" d="M179.74,316.38c-11.58,11.98-33.76-36.54-35.99-50.17c-2.23-13.63,7.51-2.12,20.35,16.23
					C176.94,300.78,184.3,311.67,179.74,316.38z"/>
				<path class="st9" d="M147.63,262.49c-1.91,5.91-11.74,1.47-15.04-0.17c-5.37-2.67-9.63-9.86-8.6-12.01
					c1.02-2.15,12.89,4.66,13.53,4.37c0.64-0.29-4.81-4.16-3.64-6.08c1.17-1.92,9.05,2.27,11.52,5.16
					C147.87,256.64,148.82,258.79,147.63,262.49z"/>
				<g>
					<path class="st9" d="M312.84,373.67c15.5-6.11,15.59,47.25,11.97,60.58c-3.62,13.33-7.72-1.18-11.8-23.2
						C308.93,389.03,306.74,376.08,312.84,373.67z"/>
					<path class="st9" d="M320.35,434.43c5.87-2.03,8.23,8.5,8.9,12.12c1.09,5.9-2.1,13.62-4.43,14.1
						c-2.33,0.47-4.02-13.1-4.64-13.44c-0.62-0.34-0.44,6.35-2.67,6.57s-3.62-8.59-2.8-12.31
						C315.53,437.75,316.67,435.7,320.35,434.43z"/>
				</g>
				<g>
					<path class="st9" d="M257.93,276.45c-14.07,0-16.64,13.23-16.54,23.37c0,0.93,0.05,1.78,0.09,2.62c0,0,0.01,0.11,0.02,0.27
						c0.19,10.04,6.41,20.37,16.44,20.37c10.27,0,17.3-10.92,16.88-21.06c-0.01-0.2-0.02-0.38-0.03-0.57
						c0.04-0.52,0.07-1.05,0.1-1.62C275.31,289.68,273.02,276.45,257.93,276.45z"/>
					<g>
						<g>
							<path class="st9" d="M275.02,299.82c0.89-0.28,2.98-1.26,2.6,2.93c-0.66,7.25-3.81,6.79-3.81,6.79
								c0.19-1.03,0.47-2.48,0.7-4.16c-0.85-0.69,0.24-1.59,0.28-2.43c0.05-0.14,0.05-0.33,0.05-0.51
								C274.92,301.6,274.97,300.76,275.02,299.82z"/>
							<path class="st11" d="M274.83,302.44c0,0,0.98-1.29,1.73-0.77c0.74,0.51,0.22,2.83-0.37,4.22c-0.59,1.38-1.24,1.5-1.35,1.12
								c-0.11-0.38,1.19-1.19,0.73-1.85c-0.46-0.65-0.94-0.77-0.9-1.15C274.71,303.62,274.83,302.44,274.83,302.44z"/>
							<path class="st10" d="M274.39,297.01c0.28,2.73-0.92,11.29-0.92,11.29l0.45,0.58l1.43-9.95L274.39,297.01z"/>
						</g>
						<g>
							<path class="st9" d="M241.39,299.82c-0.89-0.28-2.98-1.26-2.6,2.93c0.66,7.25,3.81,6.79,3.81,6.79
								c-0.19-1.03-0.47-2.48-0.7-4.16c0.85-0.69-0.24-1.59-0.28-2.43c-0.05-0.14-0.05-0.33-0.05-0.51
								C241.49,301.6,241.44,300.76,241.39,299.82z"/>
							<path class="st11" d="M241.58,302.44c0,0-0.98-1.29-1.73-0.77c-0.74,0.51-0.21,2.83,0.37,4.22c0.59,1.38,1.24,1.5,1.35,1.12
								c0.11-0.38-1.19-1.19-0.73-1.85c0.46-0.65,0.94-0.77,0.9-1.15C241.7,303.62,241.58,302.44,241.58,302.44z"/>
							<path class="st10" d="M242.01,297.01c-0.28,2.73,0.92,11.29,0.92,11.29l-0.45,0.58l-1.43-9.95L242.01,297.01z"/>
						</g>
					</g>
					<path class="st10" d="M257.66,286.21c-0.55,0.6-1.38,0.77-1.99,0.45c-0.61-0.32-0.75-0.99-0.77-1.1
						c-0.14,0.13-0.9,0.8-2.03,0.73c-1.3-0.07-2.02-1.05-2.12-1.18c-0.09,0.46-0.52,2.25-2.2,3.46c-1.04,0.75-2.1,0.94-2.64,1
						c0.47,0.78,0.36,1.76-0.24,2.35c-0.5,0.49-1.26,0.64-1.95,0.4c0.11,0.27,0.52,1.31,0.12,2.56c-0.38,1.2-1.24,1.81-1.49,1.98
						c-0.46,0.99-0.91,1.97-1.37,2.96l0,0l-0.86,0.49c-1.22-0.22-2.23-1.06-2.62-2.2c-0.45-1.31-0.02-2.81,1.1-3.72
						c-0.23-0.21-1.32-1.23-1.38-2.85c-0.06-1.56,0.87-3.05,2.36-3.82c-0.88-0.6-1.16-1.71-0.73-2.52c0.33-0.62,1.03-1,1.79-0.98
						c-1.02-1.7-1.1-3.78-0.16-5.37c1.24-2.1,4.07-3.05,6.67-2.03c-0.01-0.17-0.07-1.07,0.55-1.7c0.7-0.71,1.98-0.8,3.03-0.09
						c0.02-0.24,0.18-2.22,1.79-3.25c1.58-1.01,3.88-0.7,5.43,0.89c1.55-1.59,3.86-1.9,5.43-0.89c1.61,1.03,1.77,3.01,1.79,3.25
						c1.05-0.71,2.33-0.62,3.03,0.09c0.62,0.63,0.56,1.52,0.55,1.7c2.6-1.01,5.43-0.06,6.67,2.03c0.94,1.59,0.86,3.67-0.16,5.37
						c0.76-0.02,1.46,0.36,1.79,0.98c0.43,0.81,0.14,1.92-0.73,2.52c1.49,0.77,2.42,2.27,2.36,3.82c-0.06,1.62-1.15,2.64-1.38,2.85
						c1.12,0.92,1.55,2.41,1.1,3.72c-0.39,1.14-1.4,1.98-2.62,2.2l-0.86-0.49l0,0c-0.46-0.99-0.91-1.97-1.37-2.96
						c-0.25-0.17-1.12-0.79-1.49-1.98c-0.39-1.25,0.01-2.29,0.12-2.56c-0.69,0.25-1.45,0.09-1.95-0.4c-0.6-0.59-0.72-1.57-0.24-2.35
						c-0.54-0.06-1.6-0.25-2.64-1c-1.68-1.21-2.1-3-2.2-3.46c-0.09,0.13-0.81,1.11-2.12,1.18c-1.13,0.06-1.89-0.6-2.03-0.73
						c-0.02,0.1-0.17,0.78-0.77,1.1c-0.61,0.32-1.45,0.16-1.99-0.45"/>
				</g>
				<path class="st7" d="M258.17,323.57c-3.05,0-5.86-1.22-8.15-3.26c2.11,3.01,4.98,4.86,8.15,4.86c3.17,0,6.04-1.86,8.15-4.86
					C264.03,322.35,261.22,323.57,258.17,323.57z"/>
			</g>
			<g>
				<path class="st14" d="M146.57,153.6l17.12,34.69c0.47,0.94,1.37,1.6,2.41,1.75l38.28,5.56c2.62,0.38,3.67,3.61,1.77,5.46
					l-27.7,27c-0.75,0.73-1.1,1.79-0.92,2.83l6.54,38.12c0.45,2.61-2.3,4.61-4.64,3.37l-34.24-18c-0.93-0.49-2.05-0.49-2.98,0
					l-34.24,18c-2.35,1.23-5.09-0.76-4.64-3.37l6.54-38.12c0.18-1.04-0.17-2.1-0.92-2.83l-27.7-27c-1.9-1.85-0.85-5.08,1.77-5.46
					l38.28-5.56c1.04-0.15,1.94-0.81,2.41-1.75l17.12-34.69C142.01,151.22,145.4,151.22,146.57,153.6z"/>
				<linearGradient id="SVGID_7_" gradientUnits="userSpaceOnUse" x1="79.0962" y1="212.2827" x2="208.3122" y2="212.2827">
					<stop  offset="0" style="stop-color:#FBD15B"/>
					<stop  offset="1" style="stop-color:#F9C237"/>
				</linearGradient>
				<path class="st20" d="M106.49,273.94c-0.91,0-1.81-0.28-2.58-0.84c-1.36-0.99-2.03-2.64-1.75-4.29l6.54-38.12
					c0.11-0.65-0.1-1.32-0.58-1.78l-27.7-27c-1.21-1.18-1.63-2.9-1.11-4.5c0.52-1.6,1.88-2.75,3.54-2.99l38.28-5.56
					c0.65-0.09,1.22-0.51,1.51-1.1l17.12-34.69c0.74-1.51,2.25-2.45,3.94-2.45c1.68,0,3.19,0.94,3.94,2.45l17.12,34.69
					c0.29,0.59,0.86,1,1.51,1.1l38.28,5.56c1.67,0.24,3.02,1.39,3.54,2.99c0.52,1.6,0.09,3.33-1.11,4.5l-27.7,27
					c-0.47,0.46-0.69,1.13-0.58,1.78l6.54,38.12c0.28,1.66-0.38,3.31-1.75,4.29c-1.36,0.99-3.14,1.12-4.62,0.33l-34.24-18
					c-0.58-0.31-1.28-0.31-1.87,0l-34.24,18C107.89,273.77,107.18,273.94,106.49,273.94z M143.7,153.01c-0.78,0-1.46,0.42-1.8,1.12
					l-17.12,34.69c-0.64,1.3-1.88,2.19-3.31,2.4l-38.28,5.56c-0.77,0.11-1.38,0.62-1.62,1.37c-0.24,0.74-0.05,1.51,0.51,2.06
					l27.7,27c1.03,1.01,1.51,2.46,1.26,3.89l-6.54,38.12c-0.13,0.77,0.17,1.5,0.8,1.96c0.63,0.46,1.42,0.52,2.11,0.15l34.24-18
					c1.28-0.67,2.81-0.67,4.09,0l34.24,18c0.69,0.36,1.48,0.31,2.11-0.15c0.63-0.46,0.93-1.19,0.8-1.96l-6.54-38.12
					c-0.24-1.43,0.23-2.88,1.26-3.89l27.7-27c0.56-0.55,0.75-1.32,0.51-2.06c-0.24-0.74-0.85-1.25-1.62-1.37l-38.28-5.56
					c-1.43-0.21-2.66-1.1-3.31-2.4l-17.12-34.69C145.16,153.42,144.49,153.01,143.7,153.01z"/>
			</g>
			<path class="st13" d="M221.63,413.2c0,0-5.08,43.06-5.08,69c0,25.94,0.17,114.93,0.17,114.93l17.75,0.6
				c0,0,20.86-154.31,24.34-154.31c3.48,0,24.34,154.31,24.34,154.31l17.75-0.6c0,0,0.17-88.99,0.17-114.93
				c0-25.94-5.75-69.27-5.75-69.27L221.63,413.2z"/>
			<path class="st17" d="M209.73,314.25c0,0-9.63,12.44-9.43,21.86c0,0,20.26,9.23,21.06,10.03c0.8,0.8-5.42,82.89-3.81,84.9
				c1.6,2.01,15.04,7.22,41.32,6.62c26.28-0.6,37.37-4.21,38.98-7.02l-4.08-65.24l4.01,4.61c0,0,13.44-3.81,14.84-14.04
				c0,0-14.24-24.2-23.94-28.48c-9.47-4.18-20.12-3.88-20.12-3.88s-4.01,3.88-10.5,4.48c-6.49,0.6-11.7-4.48-11.7-4.48
				s-11.17,0.87-12.3,0.54C232.93,323.81,217.55,315.92,209.73,314.25z"/>
		</g>
		<g>
			<g>
				<path class="st13" d="M137.82,306.47c0.23,3.95,4.71,10.99,5.51,13.71c0.8,2.72-2.08,5.12-1.6,7.84
					c0.48,2.72,4.16,3.59,5.12,6.11c0.96,2.52-2.39,4.52-2.18,8.88c0.21,4.36-3.1,8.04-3.1,8.04l-44.63-1.92l-8.42-2.4
					c0,0,0.8-0.39,2.21-5.87c1.41-5.48-0.51-8.29-0.35-10.97c0.16-2.68,3.68-4.44,4.32-6.84c0.64-2.4-0.32-3.25-0.32-6.5
					c0-3.25,1.4-2.74,2.88-6.42s0.81-3.77,1.82-7.56c1.02-3.79,19.2-10.38,19.2-10.38l14.25,2.71L137.82,306.47z"/>
				<path class="st9" d="M144.01,422.11c-16.18-37.75,10.58-78.31-3.23-81.72c-8.96-2.21-16.27-2.77-22.62-2.77
					c-6.35,0-13.67,0.56-22.62,2.77c-13.81,3.41,12.94,43.97-3.23,81.72c-10.67,24.89,2.29,24.4,25.86,24.4
					C141.72,446.51,154.68,447,144.01,422.11z"/>
				<path class="st9" d="M126.64,329.89l-8.36,1.13l-8.36-1.13v9.76c5.64,1.92,8.34,2.12,8.36,2.12v0l0,0l0,0v0
					c0.02,0,2.72-0.2,8.36-2.12V329.89z"/>
				<g>
					<path class="st9" d="M101.01,347c-8.14-18.49-52.54,19.82-60.53,32.7c-7.99,12.88,7.56,6.17,29.33-5.96
						C91.58,361.6,104.22,354.27,101.01,347z"/>
				</g>
				<path class="st9" d="M102.18,423.79c-38.68,0.66-12.48,80.78-2.32,100.39c10.16,19.61,18.31-7.27,17.37-43.09
					C116.3,445.26,119.79,423.49,102.18,423.79z"/>
				<g>
					<path class="st9" d="M106.25,505.4c-26.48-4.17-8.47,79.23,1.76,98.8c10.23,19.57,11.75-4.52,10.68-40.34
						C117.62,528.04,116.67,507.04,106.25,505.4z"/>
					<path class="st9" d="M112.29,603.43c4.47-0.48,9.25,8.59,8.16,13.59c-1.09,5-22.99,11.53-25.7,8.21
						C92.04,621.9,105.13,604.2,112.29,603.43z"/>
					<path class="st5" d="M105.01,607.69c9.5,2.34,12.21-1.28,12.24-1.32c0.18,0.23,0.35,0.46,0.52,0.7l0.05,0.07
						c2,2.96,3.24,7.06,2.63,9.87c-1.09,5-22.99,11.53-25.7,8.21C92.83,622.88,98.81,613.35,105.01,607.69z"/>
				</g>
				<path class="st9" d="M119.57,422.26c33.5-19.34,52.27,62.85,53.65,84.89c1.38,22.04-19.44,3.18-37.07-28.01
					C118.52,447.94,104.32,431.06,119.57,422.26z"/>
				<g>
					<path class="st9" d="M163.86,496.69c26.51-3.93,7.75,79.3-2.65,98.78c-10.41,19.48-11.71-4.63-10.32-40.43
						C152.28,519.23,153.42,498.23,163.86,496.69z"/>
					<path class="st9" d="M156.93,594.66c-4.47-0.52-9.33,8.5-8.29,13.51c1.04,5.01,22.89,11.74,25.63,8.44
						C177.02,613.31,164.08,595.5,156.93,594.66z"/>
					<path class="st5" d="M164.17,598.99c-9.52,2.25-12.2-1.39-12.23-1.43c-0.18,0.23-0.35,0.46-0.52,0.7l-0.05,0.07
						c-2.03,2.94-3.31,7.03-2.72,9.85c1.04,5.01,22.89,11.74,25.63,8.44C176.21,614.28,170.32,604.7,164.17,598.99z"/>
				</g>
				<g>
					<g>
						<path class="st9" d="M132.89,312c0.89-0.28,2.98-1.26,2.6,2.93c-0.66,7.25-3.81,6.79-3.81,6.79c0.19-1.03,0.47-2.48,0.7-4.16
							c-0.17-1.88,0.24-1.59,0.28-2.43c0.05-0.14,0.05-0.33,0.05-0.51C132.8,313.78,132.84,312.94,132.89,312z"/>
						<path class="st11" d="M132.7,314.62c0,0,0.98-1.29,1.73-0.77c0.74,0.51,0.21,2.83-0.37,4.22c-0.59,1.38-1.24,1.5-1.35,1.12
							c-0.11-0.38,1.19-1.19,0.73-1.85c-0.46-0.65-0.94-0.77-0.89-1.15C132.58,315.81,132.7,314.62,132.7,314.62z"/>
						<path class="st9" d="M103.42,312c-0.89-0.28-2.98-1.26-2.6,2.93c0.66,7.25,3.81,6.79,3.81,6.79c-0.19-1.03-0.47-2.48-0.7-4.16
							c0.17-1.88-0.24-1.59-0.28-2.43c-0.05-0.14-0.05-0.33-0.05-0.51C103.51,313.78,103.47,312.94,103.42,312z"/>
						<path class="st11" d="M103.61,314.62c0,0-0.98-1.29-1.73-0.77c-0.74,0.51-0.21,2.83,0.37,4.22c0.59,1.38,1.24,1.5,1.35,1.12
							c0.11-0.38-1.19-1.19-0.73-1.85c0.46-0.65,0.94-0.77,0.9-1.15C103.73,315.81,103.61,314.62,103.61,314.62z"/>
					</g>
					<path class="st13" d="M140.34,324.51c-1-5.06-2.52-13.52-2.52-18.05l-16.16,2.29l-3.38,20.99l-3.38-20.99l-16.16-2.29
						c0,4.53-1.52,12.98-2.52,18.05c-0.43,2.19,1.18,4.25,3.42,4.36l18.63,0.94v0l0.01,0l0.01,0v0l18.63-0.94
						C139.16,328.75,140.77,326.7,140.34,324.51z"/>
					<path class="st9" d="M133.24,313.16c0,11.58-6.7,20.97-14.95,20.97c-8.26,0-14.95-9.39-14.95-20.97
						c0-11.58,6.7-20.97,14.95-20.97C126.55,292.19,133.24,301.57,133.24,313.16z"/>
					<path class="st7" d="M118.29,334.13c-3.27,0-6.28-1.49-8.74-3.98c2.26,3.67,5.34,5.93,8.74,5.93c3.4,0,6.48-2.27,8.74-5.94
						C124.57,332.64,121.56,334.13,118.29,334.13z"/>
					<path class="st13" d="M134.63,315.74c0.41-0.36-0.16-2.11-0.22-2.58c-0.16-1.18-0.76-2.27-1.53-3.21
						c-0.92-1.12-2.07-2.06-3.12-3.07c-3.32-3.19-5.73-7.15-7.37-11.28c-0.07-0.18-0.65-1.26-0.53-1.44
						c-3.53,5.34-8.69,9.95-14.26,13.49c-3.23,2.05-6.28,4.01-7.27,7.73c0.03-1.42-0.84-2.66-1.05-4.02
						c-0.25-1.64-0.53-3.23-0.53-4.89c0-11.62,8.73-21.05,19.53-21.05c4.64,0,6.52,2.84,6.52,2.84s3.01-0.58,6.01,2.06
						c4.36,3.79,7.02,9.65,7.02,16.15C137.82,309.51,137.19,313.51,134.63,315.74z"/>
					<path class="st13" d="M115.97,301.13c-5.04,4.24-11.68,14.4-11.52,20.01c0.16,5.61,0.16,5.61,0.16,5.61l-5.87-4.9l2.03-14
						l4-4.08L115.97,301.13z"/>
					<path class="st13" d="M128.14,305.18c0.06,0.06,0.13,0.13,0.19,0.2c2.89,3.13,4.58,10.87,3.94,15.2
						c-0.65,4.43,0.26,5.57,0.26,5.57l3.94-6.78l-0.49-13.8l-6.32-3l-1.46,2.68"/>
				</g>
				<g>
					<path class="st9" d="M138.54,343.98c16.22-12.04,35.86,43.22,36.43,58.37c0.57,15.15-9.62,1.62-22.54-19.7
						C139.51,361.33,132.16,348.71,138.54,343.98z"/>
					<g>
						<path class="st9" d="M167.7,395.09c16.35-3.19,6.75,49.29,0.77,61.74c-5.98,12.45-7.38-2.56-7.39-24.96
							C161.07,409.48,161.27,396.35,167.7,395.09z"/>
						<path class="st9" d="M166.45,455.79c6.21,0.17,4.71,10.86,4.06,14.48c-1.06,5.91-6.76,12.01-9.11,11.64
							c-2.35-0.38,0.85-13.68,0.39-14.22c-0.46-0.54-2.64,5.79-4.81,5.2c-2.17-0.58-0.36-9.32,1.71-12.51
							C160.77,457.21,162.56,455.69,166.45,455.79z"/>
					</g>
				</g>
			</g>
			<path class="st8" d="M88.84,427.54c0,0-9.9,14.84-8.69,33.7c1.2,18.85,15.78,109.92,23,137.2l17.25-2.01l1.87-130.91
				c0,0,27.41,40.65,27.41,44.26c0,3.61-1.6,82.64-1.6,82.64l16.45,1.6c0,0,19.79-70.47,15.65-91.46
				c-5.98-30.27-17.78-47.74-31.42-75.02C131.06,392.18,88.84,427.54,88.84,427.54z"/>
			<path class="st6" d="M118.79,348.41c0,0,12.54,1.7,15.65-10.53c0,0,16.55,0.23,26.48,19.99c0,0-8.52,9.13-16.05,14.44
				c0,0-2.11-4.15-2.41-3.64c-0.3,0.5-6.15,29.99,6.28,58.87c0,0-12.7,2.67-29.42,2.67h-1.07c-16.71,0-29.42-2.67-29.42-2.67
				c12.44-28.88,4.08-63.38,3.78-63.88c-0.3-0.5-6.52,3.61-6.52,3.61c-7.52-5.32-11.33-19.96-11.33-19.96
				c13.34-7.12,28.38-9.43,28.38-9.43C106.26,350.12,118.79,348.41,118.79,348.41"/>
			<g>
				<path class="st14" d="M167.6,406.65l-34.29-17.9c-0.93-0.49-1.57-1.4-1.7-2.45l-4.69-38.39c-0.32-2.63-3.52-3.75-5.42-1.9
					L93.89,373.1c-0.75,0.74-1.82,1.06-2.85,0.86l-37.97-7.4c-2.6-0.51-4.66,2.19-3.48,4.56l17.22,34.64
					c0.47,0.94,0.44,2.06-0.07,2.98l-18.77,33.82c-1.29,2.32,0.64,5.11,3.27,4.72l38.26-5.67c1.04-0.15,2.09,0.21,2.81,0.98
					l26.36,28.3c1.81,1.94,5.06,0.97,5.5-1.65l6.43-38.14c0.18-1.04,0.85-1.92,1.8-2.37l35.06-16.33
					C169.88,411.27,169.96,407.88,167.6,406.65z"/>
				
					<linearGradient id="SVGID_8_" gradientUnits="userSpaceOnUse" x1="-278.4876" y1="-26.7682" x2="-154.3113" y2="-26.7682" gradientTransform="matrix(0.285 -0.9585 -0.9585 -0.285 141.2066 188.3397)">
					<stop  offset="0" style="stop-color:#FBD15B"/>
					<stop  offset="1" style="stop-color:#F9C237"/>
				</linearGradient>
				<path class="st21" d="M121.01,472.69c-1.09,0-2.14-0.45-2.91-1.27l-26.37-28.3c-0.54-0.58-1.33-0.86-2.11-0.74l-38.26,5.67
					c-1.51,0.23-3-0.42-3.87-1.68c-0.87-1.26-0.95-2.87-0.21-4.21l18.77-33.82c0.38-0.69,0.4-1.53,0.05-2.24l-17.22-34.64
					c-0.68-1.37-0.53-2.98,0.4-4.2c0.93-1.22,2.44-1.79,3.94-1.5l37.97,7.4c0.77,0.15,1.58-0.09,2.14-0.64l27.62-27.08
					c1.09-1.07,2.67-1.43,4.12-0.92c1.44,0.51,2.46,1.76,2.64,3.28l4.69,38.39c0.1,0.79,0.57,1.47,1.28,1.84l34.29,17.9
					c1.36,0.71,2.18,2.1,2.15,3.63c-0.03,1.53-0.92,2.88-2.31,3.53l-35.06,16.33c-0.72,0.34-1.22,1-1.36,1.78l-6.43,38.14
					c-0.25,1.51-1.32,2.72-2.79,3.16C121.79,472.64,121.4,472.69,121.01,472.69z M89.98,440.76c1.1,0,2.16,0.45,2.92,1.27
					l26.37,28.3c0.64,0.69,1.56,0.93,2.45,0.66c0.9-0.27,1.52-0.98,1.68-1.9l6.43-38.14c0.22-1.3,1.06-2.4,2.25-2.96l35.06-16.33
					c0.85-0.4,1.37-1.19,1.39-2.13c0.02-0.94-0.46-1.75-1.29-2.19l-34.29-17.9c-1.17-0.61-1.96-1.75-2.12-3.06l-4.69-38.39
					c-0.11-0.93-0.71-1.67-1.59-1.98c-0.88-0.31-1.81-0.1-2.48,0.55l-27.62,27.08c-0.94,0.92-2.27,1.32-3.56,1.07l-37.97-7.4
					c-0.92-0.18-1.81,0.16-2.37,0.9c-0.57,0.75-0.66,1.69-0.24,2.53l17.22,34.64c0.58,1.18,0.55,2.57-0.08,3.71l-18.77,33.82
					c-0.45,0.82-0.41,1.77,0.13,2.54c0.53,0.77,1.4,1.15,2.33,1.01l38.26-5.68C89.59,440.78,89.78,440.76,89.98,440.76z"/>
			</g>
			<g>
				<path class="st9" d="M41.15,380.81c-14.06,8.94,29.03,40.4,41.94,45.32c12.91,4.92,3.59-6.94-11.82-23.19
					C55.86,386.69,46.68,377.3,41.15,380.81z"/>
				<path class="st9" d="M85.97,422c-4.92,3.79,2.58,11.55,5.24,14.1c4.33,4.15,12.54,5.73,14.21,4.04
					c1.68-1.69-8.74-10.56-8.68-11.26c0.06-0.71,5.54,3.12,6.95,1.37c1.41-1.75-5.19-7.75-8.75-9.1
					C91.4,419.79,89.05,419.62,85.97,422z"/>
			</g>
		</g>
	</g>
</g>
</svg>
