<?xml version="1.0" encoding="utf-8"?>
<!-- Generator: Adobe Illustrator 23.0.3, SVG Export Plug-In . SVG Version: 6.00 Build 0)  -->
<svg version="1.1" id="Layer_1" xmlns="http://www.w3.org/2000/svg" xmlns:xlink="http://www.w3.org/1999/xlink" x="0px" y="0px"
	 viewBox="0 0 500 385.48" style="enable-background:new 0 0 500 385.48;" xml:space="preserve">
<style type="text/css">
	.st0{fill:url(#SVGID_1_);}
	.st1{fill:#148695;}
	.st2{fill:url(#SVGID_2_);}
	.st3{fill:url(#SVGID_3_);}
	.st4{fill:url(#SVGID_4_);}
	.st5{fill:url(#SVGID_5_);}
	.st6{fill:url(#SVGID_6_);}
	.st7{fill:url(#SVGID_7_);}
	.st8{fill:url(#SVGID_8_);}
	.st9{fill:url(#SVGID_9_);}
	.st10{fill:url(#SVGID_10_);}
	.st11{fill:#0D1D46;}
	.st12{fill:#F26B6F;}
	.st13{fill:#FFFFFF;}
	.st14{fill:url(#SVGID_11_);}
	.st15{fill:url(#SVGID_12_);}
	.st16{fill:#FCCCB4;}
	.st17{fill:#F8A276;}
	.st18{fill:#FBAC2D;}
	.st19{fill:#233871;}
	.st20{fill:url(#SVGID_13_);}
	.st21{fill:url(#SVGID_14_);}
	.st22{fill:url(#SVGID_15_);}
	.st23{fill:url(#SVGID_16_);}
	.st24{fill:#A7AFC3;}
	.st25{fill:url(#SVGID_17_);}
	.st26{fill:url(#SVGID_18_);}
	.st27{fill:url(#SVGID_19_);}
	.st28{fill:#FBC4AA;}
	.st29{fill:#E6BEB0;}
	.st30{fill:url(#SVGID_20_);}
	.st31{fill:url(#SVGID_21_);}
	.st32{fill:#419DD7;}
	.st33{fill:url(#SVGID_22_);}
	.st34{fill:url(#SVGID_23_);}
	.st35{fill:url(#SVGID_24_);}
	.st36{fill:url(#SVGID_25_);}
	.st37{fill:url(#SVGID_26_);}
	.st38{fill:url(#SVGID_27_);}
	.st39{fill:url(#SVGID_28_);}
	.st40{fill:url(#SVGID_29_);}
	.st41{fill:url(#SVGID_30_);}
	.st42{fill:url(#SVGID_31_);}
	.st43{fill:url(#SVGID_32_);}
	.st44{fill:url(#SVGID_33_);}
	.st45{fill:url(#SVGID_34_);}
	.st46{fill:url(#SVGID_35_);}
	.st47{fill:url(#SVGID_36_);}
	.st48{fill:url(#SVGID_37_);}
</style>
<g>
	<g>
		<g>
			<g>
				<g>
					<g>
						<g>
							<g>
								
									<linearGradient id="SVGID_1_" gradientUnits="userSpaceOnUse" x1="350.5159" y1="286.5416" x2="499.0981" y2="303.5224" gradientTransform="matrix(1 0 0 1 20.8019 0)">
									<stop  offset="0.0117" style="stop-color:#1F94A5"/>
									<stop  offset="0.2682" style="stop-color:#47A1A7"/>
									<stop  offset="0.9961" style="stop-color:#8ACDAA"/>
								</linearGradient>
								<path class="st0" d="M486.58,267.21c-2.72-1.13-17.92-0.87-24.74-0.69c-2.08,0.05-4.03,0.99-5.38,2.57
									c-1.97,2.32-4.92,5.65-6.79,7.25c0.48-3.6,1.24-7.22,1.45-10.93c-3.43-0.63-7.3-0.42-10.8-0.85
									c-3.59-0.45-7.33-0.78-10.97-0.7c-3.31,0.06-8.13-0.53-10.34,1.56c-2.25,2.14-4.67,6.16-6.49,8.75
									c-0.07-2.25,0.66-4.77,1.16-7.07c0.91-4.15,0.16-3.8-4.23-4.67c-5.22-1.03-10.52-1.6-15.83-1.57
									c-6.83,0.05-12.82,0.65-19.36,1.77c-3.8,0.64-3.66,0.29-5.05,3.95c-0.93,2.45-2.23,5.05-3.42,7.41
									c-3.41-1.63-3.52-8.08-3.73-11.23c-8.26-0.08-16.84,8.76-22.42,14.09c-1.09,1.05-11.68,11.94-12.22,12.5
									c-5.89,6.1-3.7,16.22,4.19,19.37c4.13,1.64,9.31,3.46,15.78,5.39c5.68,1.69,32.26,6.98,40.19,4.83
									c-1.11-3.9-3.16-7.92-3.67-12c3.44,1.93,5.91,6.13,7.71,9.5c0.21,0.39,0.73,1.3,1.32,2.33c1.48,2.57,4.37,3.98,7.31,3.55
									c7.87-1.14,22.4-4.93,29.18-7.38c-1.96-3.61-4.07-5.9-6.16-9.57c3.79,1.33,6.52,5.58,9.87,7.63
									c2.41,1.47,1.46,1.73,4.22,0.25c1.54-0.82,2.83-1.85,4.35-2.69c-3.76-3.56-6.63-8.29-10.3-12.15
									c2.57,2.68,6.47,4.54,9.51,6.6c4.11,2.8,4.7,2.84,9.07,0.43c7.52-4.14,15.64-8.86,22.37-14.02
									c5.37-4.12,13.51-9.75,16.35-15.95C490.48,271.63,491.18,269.12,486.58,267.21z"/>
							</g>
						</g>
						<path class="st1" d="M471.68,278.17c-8.59,2.59-17.29,4.99-26.05,7.11c8.25,0.93,16.52,0.77,24.77-0.51
							c1.18-0.18,1.71,1.62,0.51,1.8c-9.91,1.54-19.81,1.54-29.72,0c-0.15-0.02-0.28-0.08-0.38-0.15c-3.39,0.78-6.79,1.52-10.2,2.21
							c5.88,3.59,12.14,6.35,18.8,8.21c1.16,0.33,0.72,2.14-0.45,1.82c-7.38-2.06-14.32-5.17-20.76-9.31
							c-0.09-0.06-0.14-0.13-0.2-0.2c-3.25,0.63-6.51,1.21-9.78,1.75c2.08,1.79,4.24,3.47,6.15,5.47c2.28,2.38,4.34,4.97,6.41,7.53
							c0.75,0.94-0.86,1.89-1.6,0.97c-4.12-5.11-8.6-9.16-13.35-13.57c-3.94,0.62-7.89,1.16-11.84,1.62c2.37,2.15,5.01,4,7.28,6.29
							c2.38,2.4,4.46,5.03,6.38,7.81c0.69,0.99-0.92,1.96-1.6,0.97c-2.11-3.06-4.45-5.91-7.15-8.48c-2.34-2.23-5.06-4.03-7.34-6.31
							c-3.62,0.39-7.25,0.71-10.88,0.96c5.03,5.1,8.97,11,12.85,17.02c0.65,1.01-0.95,1.98-1.6,0.97
							c-4.08-6.34-8.23-12.58-13.72-17.82c-6.29,0.37-12.58,0.51-18.88,0.39c3.54,5.51,6.51,11.27,8.97,17.35
							c0.45,1.11-1.36,1.62-1.81,0.51c-2.55-6.3-5.7-12.24-9.44-17.91c-3.66-0.11-7.31-0.31-10.97-0.61
							c3.92,4.55,7.11,9.59,8.83,15.39c0.34,1.15-1.46,1.67-1.81,0.51c-1.78-6-5.18-11.12-9.35-15.73
							c-0.11-0.12-0.17-0.25-0.21-0.39c-3.67-0.34-7.35-0.79-11.01-1.33c3.41,2.69,6.19,6.01,8.27,9.92
							c0.56,1.06-1.04,2.03-1.6,0.97c-2.59-4.86-6.23-8.73-10.94-11.58c-3.04-0.52-6.07-1.08-9.1-1.75
							c-1.18-0.26-0.73-2.08,0.45-1.82c2.95,0.65,5.9,1.21,8.85,1.72c0.14-0.02,0.29,0,0.45,0.08c0.09,0.01,0.18,0.03,0.26,0.04
							c6.31-4.48,10.99-10.37,13.98-17.51c0.47-1.11,2.11-0.21,1.65,0.89c-2.86,6.83-7.27,12.53-13.06,17.03
							c3.83,0.59,7.67,1.06,11.51,1.43c0.01-0.27,0.12-0.53,0.39-0.72c7.36-5.34,14.64-10.78,19.9-18.31
							c0.68-0.98,2.34-0.09,1.65,0.89c-5.24,7.5-12.34,13.02-19.66,18.35c5.79,0.49,11.59,0.74,17.39,0.76
							c6.7-8.61,13.32-17.39,16.45-28c0.34-1.15,2.16-0.71,1.82,0.45c-3.06,10.39-9.35,19.08-15.9,27.54
							c3.85-0.03,7.69-0.14,11.53-0.35c5.91-7.11,12.66-14.08,15.47-23.09c0.36-1.15,2.18-0.7,1.82,0.45
							c-2.72,8.72-8.92,15.6-14.72,22.48c3.35-0.22,6.71-0.49,10.05-0.83c0.06-0.19,0.18-0.37,0.41-0.5
							c7.56-4.08,13.65-9.94,19.69-15.95c0.85-0.85,2.22,0.44,1.36,1.29c-5.43,5.4-10.91,10.69-17.42,14.72
							c3.7-0.43,7.4-0.93,11.09-1.5c0.37-1.76,3.31-3.62,4.26-4.52c3.54-3.38,7.16-6.66,10.85-9.88c0.9-0.79,2.27,0.49,1.36,1.29
							c-2.52,2.2-5.02,4.43-7.47,6.71c-0.53,0.49-5.1,4.36-6.64,6.03c3.45-0.56,6.89-1.16,10.32-1.83c0.01-0.01,0.01-0.01,0.01-0.02
							c4.81-4.98,10.13-9.24,16.04-12.86c1.03-0.63,2,0.97,0.97,1.6c-4.98,3.05-9.54,6.59-13.72,10.62
							c6.54-1.33,13.05-2.84,19.52-4.49c0.08-0.13,0.18-0.24,0.35-0.33c5.04-2.48,10.07-4.97,15.11-7.45
							c1.07-0.53,2.06,1.07,0.97,1.6c-2.67,1.32-5.33,2.63-8,3.95c4.23-1.16,8.45-2.38,12.63-3.64
							C472.32,276.02,472.83,277.82,471.68,278.17z"/>
					</g>
				</g>
				<g>
					<g>
						<g>
							<g>
								
									<linearGradient id="SVGID_2_" gradientUnits="userSpaceOnUse" x1="375.9043" y1="369.1288" x2="442.1259" y2="300.3604" gradientTransform="matrix(0.9721 0.2348 -0.2348 0.9721 117.5322 -200.697)">
									<stop  offset="0.0117" style="stop-color:#1F94A5"/>
									<stop  offset="0.2682" style="stop-color:#47A1A7"/>
									<stop  offset="0.9961" style="stop-color:#8ACDAA"/>
								</linearGradient>
								<path class="st2" d="M457.21,188.62c-2.94,0.25-16.28,7.48-22.24,10.78c-1.82,1.01-3.12,2.73-3.58,4.75
									c-0.67,2.96-1.74,7.28-2.66,9.57c-1.24-3.42-2.25-6.98-3.78-10.37c-3.33,1.02-6.66,2.99-9.96,4.22
									c-3.39,1.26-6.85,2.69-10.05,4.43c-2.91,1.58-7.45,3.28-8.44,6.15c-1.01,2.94-1.28,7.62-1.7,10.75
									c-1.1-1.97-1.62-4.53-2.25-6.81c-1.12-4.11-1.62-3.45-5.91-2.19c-5.1,1.48-10.07,3.42-14.76,5.9
									c-6.04,3.19-11.06,6.49-16.34,10.48c-3.07,2.32-3.11,1.94-2.64,5.83c0.31,2.61,0.37,5.51,0.4,8.16
									c-3.78,0.13-6.86-5.55-8.51-8.25c-7.36,3.74-10.87,15.54-13.34,22.84c-0.49,1.43-4.82,15.98-5.04,16.73
									c-2.39,8.13,4.23,16.11,12.69,15.26c4.42-0.44,9.86-1.21,16.48-2.49c5.81-1.11,31.82-8.67,37.86-14.23
									c-2.79-2.95-6.47-5.57-8.82-8.96c3.94,0.13,8.08,2.72,11.23,4.88c0.37,0.25,1.25,0.82,2.25,1.46
									c2.5,1.6,5.72,1.52,8.12-0.22c6.44-4.64,17.57-14.7,22.44-19.99c-3.41-2.3-6.34-3.36-9.9-5.66
									c3.98-0.57,8.36,1.95,12.28,2.23c2.82,0.2,2.1,0.86,3.86-1.72c0.98-1.44,1.65-2.95,2.61-4.39
									c-4.98-1.43-9.71-4.3-14.76-6.03c3.52,1.19,7.84,1.04,11.48,1.48c4.94,0.6,5.48,0.36,8.24-3.8
									c4.74-7.14,9.75-15.06,13.33-22.75c2.85-6.13,7.46-14.88,7.1-21.69C462.71,190.75,462.17,188.2,457.21,188.62z"/>
							</g>
						</g>
						<path class="st1" d="M449.08,205.21c-6.42,6.25-13.01,12.39-19.79,18.31c7.75-2.98,15-6.93,21.71-11.86
							c0.96-0.7,2.26,0.65,1.29,1.36c-8.07,5.93-16.84,10.49-26.34,13.69c-0.15,0.05-0.28,0.06-0.4,0.04
							c-2.64,2.25-5.31,4.47-8.01,6.65c6.87,0.48,13.7,0.04,20.47-1.38c1.18-0.25,1.63,1.57,0.45,1.82
							c-7.5,1.57-15.08,2.01-22.71,1.3c-0.1-0.01-0.19-0.05-0.27-0.08c-2.59,2.06-5.21,4.07-7.86,6.05
							c2.67,0.63,5.37,1.13,7.99,2.02c3.13,1.06,6.15,2.41,9.17,3.73c1.1,0.48,0.12,2.08-0.97,1.6c-6.02-2.64-11.87-4.17-18.12-5.9
							c-3.2,2.36-6.46,4.66-9.75,6.9c3.1,0.82,6.29,1.24,9.36,2.23c3.22,1.04,6.28,2.4,9.27,3.99c1.07,0.57,0.09,2.16-0.97,1.6
							c-3.29-1.74-6.68-3.19-10.26-4.23c-3.11-0.9-6.35-1.24-9.43-2.23c-3.03,2.02-6.09,3.97-9.19,5.86
							c6.82,2.21,13.05,5.63,19.27,9.19c1.05,0.6,0.07,2.2-0.97,1.6c-6.55-3.75-13.12-7.38-20.41-9.49
							c-5.4,3.23-10.91,6.25-16.55,9.04c5.68,3.26,11,7,15.99,11.26c0.92,0.78-0.45,2.06-1.37,1.28
							c-5.18-4.42-10.72-8.24-16.66-11.55c-3.29,1.59-6.63,3.09-10,4.51c5.58,2.23,10.75,5.23,14.96,9.59
							c0.84,0.87-0.53,2.15-1.37,1.28c-4.35-4.5-9.74-7.48-15.57-9.65c-0.15-0.06-0.27-0.14-0.37-0.24
							c-3.41,1.39-6.88,2.68-10.38,3.89c4.27,0.82,8.27,2.48,11.92,5c0.99,0.68,0.02,2.28-0.97,1.6c-4.54-3.13-9.56-4.88-15.06-5.23
							c-2.93,0.94-5.88,1.83-8.88,2.63c-1.17,0.31-1.61-1.51-0.44-1.82c2.91-0.78,5.79-1.64,8.64-2.55
							c0.12-0.08,0.26-0.13,0.44-0.14c0.08-0.03,0.17-0.06,0.25-0.08c3.52-6.88,4.94-14.26,4.28-21.98c-0.1-1.2,1.77-1.15,1.88,0.03
							c0.63,7.38-0.64,14.47-3.68,21.13c3.67-1.24,7.29-2.59,10.86-4.03c-0.11-0.24-0.14-0.53,0.01-0.82
							c4.05-8.13,7.98-16.31,9.15-25.42c0.15-1.18,2.03-1.16,1.88,0.03c-1.17,9.07-4.91,17.24-8.93,25.34
							c5.36-2.23,10.61-4.69,15.76-7.34c1.95-10.73,3.75-21.57,1.61-32.43c-0.23-1.18,1.59-1.63,1.82-0.44
							c2.1,10.63,0.55,21.25-1.34,31.77c3.4-1.79,6.75-3.67,10.06-5.62c1.94-9.03,4.7-18.33,3.02-27.62
							c-0.21-1.18,1.61-1.63,1.82-0.44c1.63,9-0.68,17.95-2.63,26.73c2.87-1.74,5.72-3.52,8.53-5.37c-0.04-0.2-0.01-0.41,0.14-0.63
							c4.81-7.1,7.49-15.11,10.06-23.22c0.36-1.15,2.17-0.63,1.81,0.51c-2.31,7.3-4.72,14.51-8.62,21.08
							c3.08-2.09,6.12-4.23,9.13-6.44c-0.49-1.73,1.26-4.74,1.68-5.98c1.57-4.63,3.26-9.21,5.04-13.77
							c0.43-1.11,2.24-0.61,1.81,0.51c-1.21,3.12-2.39,6.24-3.52,9.39c-0.24,0.68-2.49,6.22-3.1,8.41c2.8-2.08,5.57-4.2,8.3-6.37
							c0-0.01,0-0.02,0-0.02c1.96-6.63,4.7-12.87,8.26-18.8c0.62-1.03,2.22-0.06,1.6,0.97c-3,5-5.41,10.24-7.24,15.75
							c5.18-4.19,10.25-8.53,15.22-12.97c0.01-0.15,0.05-0.3,0.16-0.45c3.31-4.53,6.63-9.05,9.94-13.58c0.71-0.96,2.32,0,1.6,0.97
							c-1.75,2.4-3.51,4.79-5.26,7.19c3.21-2.98,6.38-6,9.51-9.05C448.65,203.01,449.94,204.37,449.08,205.21z"/>
					</g>
				</g>
				<g>
					<g>
						<g>
							<g>
								
									<linearGradient id="SVGID_3_" gradientUnits="userSpaceOnUse" x1="328.8986" y1="233.8727" x2="387.4825" y2="174.4398" gradientTransform="matrix(1 0 0 1 20.8019 0)">
									<stop  offset="0.0117" style="stop-color:#1F94A5"/>
									<stop  offset="0.2682" style="stop-color:#47A1A7"/>
									<stop  offset="0.9961" style="stop-color:#8ACDAA"/>
								</linearGradient>
								<path class="st3" d="M420.92,123.78c-2.69,1.2-12.88,12.43-17.41,17.51c-1.38,1.55-2.03,3.61-1.8,5.67
									c0.35,3.02,0.77,7.45,0.66,9.91c-2.31-2.82-4.43-5.85-7-8.55c-2.8,2.06-5.29,5.02-8,7.27c-2.78,2.31-5.58,4.8-8.01,7.5
									c-2.22,2.45-5.94,5.55-5.92,8.59c0.02,3.1,1.32,7.62,1.96,10.71c-1.69-1.5-3.03-3.74-4.38-5.69
									c-2.41-3.51-2.67-2.72-6.3-0.12c-4.32,3.08-8.36,6.55-11.97,10.43c-4.64,5-8.28,9.77-11.94,15.28
									c-2.13,3.2-2.29,2.86-0.56,6.38c1.16,2.36,2.17,5.08,3.08,7.57c-3.52,1.36-8.31-2.98-10.76-4.99
									c-5.7,5.95-5.11,18.25-5.02,25.96c0.02,1.51,0.75,16.67,0.79,17.45c0.43,8.46,9.33,13.81,17.02,10.23
									c4.02-1.87,8.9-4.39,14.72-7.78c5.12-2.97,27.15-18.67,31-25.91c-3.61-1.86-7.95-3.13-11.29-5.56
									c3.76-1.18,8.52-0.1,12.22,0.91c0.43,0.12,1.45,0.37,2.6,0.64c2.89,0.69,5.9-0.45,7.59-2.88
									c4.54-6.5,11.71-19.67,14.54-26.27c-3.97-1.05-7.09-1.08-11.21-2.08c3.56-1.85,8.53-0.92,12.33-1.94
									c2.73-0.74,2.26,0.13,3.07-2.9c0.45-1.68,0.58-3.33,1.01-5.01c-5.17,0.29-10.59-0.87-15.92-0.84
									c3.72-0.03,7.74-1.6,11.32-2.38c4.86-1.06,5.29-1.47,6.52-6.3c2.11-8.3,4.21-17.44,5.04-25.87
									c0.66-6.73,2.11-16.5-0.49-22.83C426.82,123.97,425.46,121.74,420.92,123.78z"/>
							</g>
						</g>
						<path class="st1" d="M418.75,142.12c-3.98,8.02-8.17,15.98-12.6,23.81c6.32-5.36,11.85-11.48,16.55-18.35
							c0.67-0.98,2.35-0.13,1.67,0.86c-5.65,8.26-12.41,15.46-20.31,21.6c-0.12,0.1-0.25,0.15-0.37,0.18
							c-1.75,3-3.53,5.97-5.35,8.92c6.65-1.81,12.94-4.48,18.85-8.04c1.03-0.62,2.06,0.95,1.02,1.57c-6.55,3.95-13.56,6.87-21,8.71
							c-0.1,0.02-0.19,0.02-0.28,0.01c-1.76,2.8-3.57,5.56-5.41,8.31c2.73-0.28,5.44-0.7,8.21-0.72c3.3-0.02,6.6,0.25,9.89,0.5
							c1.2,0.09,0.8,1.92-0.39,1.83c-6.55-0.51-12.57-0.03-19.05,0.4c-2.24,3.29-4.55,6.53-6.91,9.72c3.19-0.25,6.35-0.9,9.57-0.98
							c3.38-0.08,6.72,0.2,10.07,0.71c1.19,0.18,0.8,2.01-0.39,1.83c-3.68-0.56-7.36-0.81-11.08-0.61c-3.23,0.17-6.4,0.92-9.63,1
							c-2.19,2.9-4.43,5.75-6.73,8.56c7.16-0.16,14.17,1.02,21.22,2.33c1.19,0.22,0.8,2.05-0.39,1.83
							c-7.43-1.38-14.82-2.64-22.4-2.24c-4.03,4.83-8.23,9.5-12.62,13.99c6.44,1.2,12.69,2.99,18.81,5.37
							c1.12,0.44,0.25,2.09-0.86,1.66c-6.35-2.46-12.84-4.25-19.54-5.42c-2.58,2.59-5.23,5.1-7.94,7.56
							c6.01,0.27,11.87,1.4,17.29,4.13c1.08,0.54,0.22,2.2-0.86,1.66c-5.6-2.82-11.67-3.86-17.89-3.99c-0.16,0-0.3-0.05-0.43-0.11
							c-2.76,2.44-5.6,4.8-8.5,7.09c4.29-0.63,8.62-0.38,12.9,0.79c1.16,0.32,0.78,2.15-0.39,1.83c-5.32-1.45-10.64-1.46-15.94,0.02
							c-2.45,1.85-4.94,3.67-7.5,5.41c-1,0.68-2.02-0.89-1.02-1.57c2.49-1.69,4.92-3.46,7.3-5.26c0.09-0.12,0.2-0.21,0.37-0.27
							c0.07-0.05,0.14-0.11,0.21-0.16c1.04-7.66-0.06-15.1-3.24-22.17c-0.5-1.1,1.29-1.67,1.78-0.59
							c3.04,6.76,4.19,13.88,3.52,21.16c3.05-2.38,6.02-4.85,8.91-7.39c-0.19-0.19-0.3-0.45-0.26-0.78
							c1.13-9.02,2.12-18.03,0.21-27.02c-0.25-1.17,1.53-1.76,1.78-0.59c1.9,8.95,1.08,17.9-0.02,26.87
							c4.32-3.88,8.46-7.92,12.44-12.12c-1.72-10.78-3.61-21.61-9.22-31.15c-0.61-1.04,0.96-2.06,1.57-1.02
							c5.5,9.35,7.56,19.88,9.26,30.44c2.61-2.81,5.15-5.69,7.63-8.62c-1.16-9.17-1.64-18.86-6.3-27.07
							c-0.59-1.05,0.98-2.07,1.57-1.02c4.52,7.96,5.31,17.18,6.38,26.11c2.13-2.59,4.23-5.21,6.26-7.88
							c-0.1-0.17-0.15-0.38-0.08-0.64c2.18-8.29,2.06-16.74,1.8-25.25c-0.04-1.2,1.84-1.31,1.87-0.11
							c0.24,7.65,0.36,15.26-1.15,22.75c2.21-2.99,4.38-6.02,6.48-9.09c-1.04-1.47-0.38-4.89-0.39-6.2
							c-0.05-4.89,0.03-9.77,0.19-14.66c0.04-1.19,1.91-1.31,1.87-0.11c-0.11,3.34-0.19,6.68-0.2,10.03c0,0.72-0.29,6.69-0.13,8.96
							c1.95-2.89,3.86-5.8,5.72-8.75c0-0.01-0.01-0.02-0.01-0.02c-0.35-6.91,0.17-13.7,1.56-20.48c0.24-1.18,2.08-0.79,1.84,0.39
							c-1.17,5.71-1.71,11.45-1.61,17.25c3.5-5.67,6.85-11.43,10.06-17.26c-0.04-0.14-0.05-0.3,0-0.48
							c1.63-5.37,3.25-10.73,4.88-16.1c0.35-1.14,2.19-0.76,1.84,0.39c-0.86,2.84-1.72,5.68-2.58,8.52
							c2.04-3.87,4.03-7.77,5.97-11.68C417.62,140.18,419.29,141.04,418.75,142.12z"/>
					</g>
				</g>
			</g>
			<g>
				<g>
					<g>
						<g>
							<g>
								
									<linearGradient id="SVGID_4_" gradientUnits="userSpaceOnUse" x1="1112.8478" y1="83.9226" x2="1268.4421" y2="83.9226" gradientTransform="matrix(-0.9255 0.3787 0.3787 0.9255 1168.5581 -242.1688)">
									<stop  offset="0.0117" style="stop-color:#1F94A5"/>
									<stop  offset="0.2682" style="stop-color:#47A1A7"/>
									<stop  offset="0.9961" style="stop-color:#8ACDAA"/>
								</linearGradient>
								<path class="st4" d="M15.68,277.96c2.52-1.53,17.58-3.56,24.35-4.42c2.06-0.26,4.13,0.37,5.7,1.73
									c2.3,1.99,5.71,4.85,7.81,6.15c-1.02-3.49-2.31-6.95-3.08-10.58c3.29-1.14,7.15-1.51,10.55-2.47
									c3.49-0.99,7.13-1.87,10.74-2.35c3.28-0.44,7.96-1.75,10.45-0.01c2.55,1.77,5.54,5.39,7.73,7.67
									c-0.27-2.24-1.37-4.61-2.22-6.82c-1.53-3.97-0.73-3.73,3.48-5.25c5-1.81,10.16-3.17,15.42-3.94
									c6.76-0.99,12.77-1.29,19.4-1.17c3.86,0.06,3.66-0.26,5.59,3.14c1.29,2.28,2.96,4.66,4.5,6.81
									c3.13-2.12,2.26-8.52,1.99-11.66c8.15-1.32,17.97,6.12,24.29,10.55c1.24,0.87,13.34,10.04,13.96,10.52
									c6.74,5.14,6.11,15.48-1.22,19.78c-3.83,2.25-8.68,4.83-14.78,7.71c-5.36,2.53-30.84,11.76-39.01,10.84
									c0.51-4.02,1.93-8.3,1.82-12.42c-3.11,2.43-4.92,6.95-6.19,10.56c-0.15,0.42-0.52,1.4-0.95,2.5
									c-1.07,2.76-3.72,4.59-6.69,4.61c-7.95,0.06-22.89-1.5-29.96-2.9c1.39-3.86,3.14-6.44,4.65-10.39
									c-3.55,1.88-5.6,6.49-8.61,9.04c-2.16,1.82-1.18,1.93-4.13,0.89c-1.64-0.58-3.08-1.41-4.71-2c3.18-4.09,5.3-9.19,8.35-13.56
									c-2.14,3.04-5.72,5.46-8.4,7.96c-3.64,3.39-4.21,3.52-8.91,1.79c-8.05-2.96-16.79-6.4-24.23-10.48
									c-5.93-3.26-14.82-7.6-18.57-13.3C12.5,282.92,11.43,280.55,15.68,277.96z"/>
							</g>
						</g>
						<path class="st1" d="M32.07,286.55c8.89,1.26,17.84,2.32,26.82,3.1c-8.02,2.16-16.22,3.25-24.56,3.23
							c-1.19,0-1.44,1.86-0.23,1.86c10.03,0.02,19.82-1.46,29.38-4.48c0.15-0.05,0.26-0.12,0.35-0.2c3.47,0.26,6.94,0.48,10.41,0.64
							c-5.27,4.44-11.05,8.1-17.35,10.95c-1.1,0.5-0.39,2.23,0.72,1.73c6.99-3.15,13.37-7.27,19.12-12.34
							c0.08-0.07,0.12-0.15,0.17-0.22c3.31,0.14,6.62,0.21,9.93,0.25c-1.79,2.09-3.67,4.07-5.26,6.34c-1.9,2.7-3.54,5.56-5.2,8.41
							c-0.6,1.04,1.13,1.74,1.73,0.71c3.3-5.67,7.12-10.35,11.15-15.43c3.99,0.02,7.97-0.05,11.95-0.18
							c-2.02,2.48-4.35,4.71-6.24,7.31c-1.99,2.74-3.65,5.64-5.13,8.68c-0.53,1.09,1.21,1.8,1.73,0.71
							c1.62-3.34,3.51-6.51,5.79-9.46c1.98-2.56,4.39-4.74,6.3-7.35c3.64-0.16,7.27-0.39,10.9-0.69c-4.2,5.8-7.21,12.22-10.13,18.76
							c-0.49,1.1,1.24,1.81,1.73,0.71c3.08-6.89,6.24-13.68,10.88-19.68c6.27-0.58,12.52-1.39,18.72-2.46
							c-2.67,5.98-4.74,12.13-6.25,18.5c-0.28,1.17,1.59,1.39,1.86,0.23c1.57-6.61,3.79-12.96,6.63-19.13
							c3.6-0.66,7.18-1.41,10.75-2.25c-3.19,5.09-5.59,10.55-6.41,16.55c-0.16,1.19,1.7,1.43,1.86,0.23
							c0.85-6.2,3.44-11.77,6.87-16.96c0.09-0.14,0.13-0.28,0.15-0.41c3.58-0.89,7.14-1.89,10.69-2.98
							c-2.96,3.17-5.21,6.87-6.68,11.05c-0.4,1.13,1.33,1.85,1.73,0.71c1.82-5.2,4.84-9.57,9.07-13.09
							c2.92-0.97,5.84-1.99,8.73-3.11c1.13-0.44,0.41-2.16-0.72-1.73c-2.81,1.09-5.65,2.09-8.49,3.03c-0.14,0-0.29,0.05-0.44,0.15
							c-0.08,0.03-0.17,0.05-0.25,0.08c-6.92-3.47-12.43-8.59-16.46-15.2c-0.63-1.03-2.12,0.11-1.5,1.13
							c3.86,6.32,9.08,11.29,15.48,14.86c-3.7,1.16-7.42,2.21-11.16,3.15c-0.05-0.26-0.2-0.51-0.5-0.66
							c-8.08-4.17-16.1-8.45-22.43-15.1c-0.82-0.86-2.33,0.26-1.5,1.13c6.31,6.62,14.17,11.01,22.21,15.17
							c-5.65,1.36-11.35,2.48-17.08,3.37c-7.93-7.5-15.79-15.18-20.48-25.19c-0.51-1.09-2.25-0.37-1.73,0.72
							c4.59,9.81,12.13,17.45,19.88,24.83c-3.81,0.55-7.62,1.02-11.45,1.39c-6.91-6.14-14.64-12.01-18.77-20.49
							c-0.53-1.08-2.26-0.37-1.73,0.72c4.01,8.21,11.17,14.08,17.94,20c-3.35,0.29-6.7,0.53-10.06,0.7
							c-0.09-0.18-0.23-0.34-0.48-0.43c-8.09-2.9-14.99-7.77-21.87-12.8c-0.97-0.71-2.13,0.77-1.15,1.48
							c6.18,4.52,12.4,8.92,19.44,11.92c-3.72,0.13-7.45,0.2-11.19,0.19c-0.63-1.69-3.82-3.08-4.89-3.83
							c-4.01-2.8-8.09-5.5-12.21-8.13c-1.01-0.64-2.17,0.83-1.15,1.48c2.82,1.8,5.63,3.62,8.4,5.5c0.6,0.41,5.69,3.54,7.48,4.96
							c-3.49-0.03-6.99-0.11-10.48-0.25c-0.01-0.01-0.01-0.01-0.02-0.02c-5.51-4.19-11.41-7.61-17.79-10.29
							c-1.11-0.47-1.83,1.26-0.72,1.73c5.38,2.26,10.43,5.07,15.16,8.43c-6.67-0.33-13.33-0.84-19.97-1.49
							c-0.09-0.11-0.21-0.21-0.4-0.27c-5.35-1.7-10.71-3.39-16.06-5.09c-1.14-0.36-1.87,1.37-0.72,1.73c2.83,0.9,5.67,1.8,8.5,2.69
							c-4.36-0.51-8.71-1.08-13.04-1.69C31.11,284.52,30.87,286.38,32.07,286.55z"/>
					</g>
				</g>
				<g>
					<g>
						<g>
							<g>
								
									<linearGradient id="SVGID_5_" gradientUnits="userSpaceOnUse" x1="1177.7058" y1="34.0004" x2="1236.2906" y2="-39.4431" gradientTransform="matrix(-0.9255 0.3787 0.3787 0.9255 1168.5581 -242.1688)">
									<stop  offset="0.0117" style="stop-color:#1F94A5"/>
									<stop  offset="0.2682" style="stop-color:#47A1A7"/>
									<stop  offset="0.9961" style="stop-color:#8ACDAA"/>
								</linearGradient>
								<path class="st5" d="M32.87,195.85c2.94-0.19,17.22,4.94,23.62,7.3c1.95,0.72,3.49,2.23,4.25,4.16
									c1.11,2.83,2.82,6.94,4.07,9.06c0.71-3.57,1.17-7.24,2.17-10.82c3.44,0.51,7.04,1.95,10.49,2.67
									c3.54,0.73,7.18,1.62,10.61,2.86c3.11,1.13,7.86,2.11,9.27,4.81c1.44,2.75,2.42,7.34,3.3,10.37
									c0.79-2.11,0.92-4.73,1.19-7.08c0.48-4.23,1.08-3.65,5.51-3.06c5.27,0.7,10.47,1.86,15.48,3.6
									c6.45,2.24,11.91,4.74,17.73,7.9c3.39,1.83,3.37,1.45,3.49,5.36c0.09,2.62,0.47,5.5,0.83,8.12
									c3.75-0.44,5.95-6.52,7.16-9.44c7.84,2.59,13.09,13.72,16.64,20.56c0.7,1.34,7.17,15.07,7.5,15.77
									c3.59,7.67-1.75,16.56-10.24,17c-4.44,0.23-9.93,0.29-16.66,0.03c-5.92-0.22-32.77-3.77-39.57-8.35
									c2.31-3.33,5.55-6.48,7.36-10.19c-3.88,0.72-7.58,3.9-10.37,6.52c-0.32,0.31-1.11,1-2,1.78c-2.23,1.96-5.43,2.36-8.06,1.01
									c-7.07-3.61-19.59-11.88-25.2-16.38c3.02-2.79,5.76-4.28,8.93-7.09c-4.02,0.04-7.97,3.18-11.81,4.06
									c-2.76,0.62-1.94,1.17-4.07-1.12c-1.19-1.27-2.07-2.67-3.24-3.95c4.71-2.16,8.95-5.72,13.68-8.19
									c-3.3,1.71-7.59,2.21-11.13,3.2c-4.79,1.33-5.36,1.18-8.72-2.51c-5.76-6.34-11.91-13.42-16.61-20.47
									c-3.75-5.63-9.61-13.58-10.29-20.37C27.74,198.78,27.9,196.18,32.87,195.85z"/>
							</g>
						</g>
						<path class="st1" d="M43.4,211.02c7.29,5.21,14.73,10.28,22.33,15.12c-8.11-1.77-15.87-4.59-23.25-8.45
							c-1.05-0.55-2.14,0.98-1.07,1.54c8.87,4.64,18.23,7.83,28.1,9.56c0.15,0.03,0.29,0.02,0.41-0.02
							c2.95,1.83,5.93,3.62,8.93,5.37c-6.72,1.51-13.54,2.1-20.44,1.73c-1.2-0.07-1.37,1.8-0.17,1.86
							c7.65,0.42,15.21-0.29,22.65-2.14c0.1-0.02,0.18-0.07,0.25-0.12c2.87,1.65,5.77,3.24,8.68,4.8c-2.55,1.03-5.13,1.93-7.59,3.21
							c-2.93,1.52-5.71,3.31-8.5,5.07c-1.02,0.64,0.2,2.07,1.2,1.43c5.55-3.52,11.1-5.91,17.02-8.56c3.52,1.85,7.08,3.63,10.67,5.35
							c-2.94,1.28-6.03,2.18-8.92,3.62c-3.03,1.51-5.85,3.32-8.56,5.34c-0.97,0.72,0.24,2.15,1.2,1.43
							c2.99-2.22,6.12-4.16,9.51-5.73c2.94-1.36,6.09-2.19,8.98-3.62c3.3,1.54,6.62,3,9.97,4.41c-6.41,3.21-12.05,7.53-17.66,11.99
							c-0.95,0.75,0.26,2.18,1.2,1.43c5.91-4.7,11.86-9.27,18.75-12.46c5.82,2.37,11.73,4.53,17.72,6.44
							c-5.13,4.08-9.81,8.58-14.11,13.55c-0.79,0.91,0.76,1.97,1.54,1.06c4.45-5.15,9.35-9.76,14.73-13.93
							c3.49,1.08,7.02,2.05,10.57,2.95c-5.18,3.05-9.84,6.8-13.34,11.74c-0.7,0.98,0.84,2.05,1.54,1.06
							c3.62-5.11,8.5-8.87,13.94-11.89c0.14-0.08,0.25-0.18,0.33-0.3c3.58,0.86,7.2,1.61,10.85,2.28c-4.09,1.45-7.8,3.7-11.03,6.74
							c-0.88,0.82,0.32,2.26,1.2,1.43c4.02-3.78,8.72-6.27,14.1-7.45c3.04,0.49,6.09,0.93,9.17,1.27c1.2,0.13,1.37-1.73,0.17-1.86
							c-3-0.33-5.97-0.75-8.93-1.22c-0.13-0.06-0.28-0.09-0.45-0.07c-0.09-0.01-0.17-0.03-0.26-0.04
							c-4.52-6.27-7.04-13.36-7.55-21.09c-0.08-1.2-1.93-0.87-1.85,0.32c0.49,7.39,2.81,14.21,6.83,20.33
							c-3.81-0.68-7.6-1.46-11.35-2.35c0.07-0.26,0.06-0.54-0.13-0.81c-5.23-7.43-10.35-14.92-12.88-23.75
							c-0.33-1.15-2.18-0.84-1.85,0.32c2.52,8.79,7.45,16.3,12.65,23.71c-5.64-1.4-11.2-3.03-16.69-4.88
							c-3.55-10.32-6.96-20.76-6.48-31.81c0.05-1.2-1.82-1.37-1.87-0.16c-0.47,10.83,2.66,21.09,6.11,31.21
							c-3.63-1.26-7.23-2.61-10.79-4.04c-3.28-8.63-7.41-17.41-7.15-26.85c0.03-1.2-1.84-1.37-1.87-0.16
							c-0.25,9.14,3.38,17.65,6.63,26.03c-3.1-1.28-6.18-2.62-9.24-4.02c0.01-0.2-0.05-0.41-0.23-0.6
							c-5.82-6.3-9.69-13.81-13.45-21.44c-0.53-1.08-2.24-0.3-1.71,0.78c3.38,6.87,6.85,13.64,11.7,19.54
							c-3.36-1.6-6.69-3.26-10-4.99c0.22-1.79-1.96-4.49-2.56-5.65c-2.25-4.34-4.62-8.61-7.06-12.85c-0.6-1.04-2.31-0.26-1.71,0.78
							c1.67,2.9,3.31,5.81,4.89,8.76c0.34,0.64,3.4,5.77,4.33,7.85c-3.08-1.64-6.14-3.32-9.17-5.05c0-0.01,0-0.02-0.01-0.02
							c-2.94-6.26-6.59-12.01-11-17.34c-0.77-0.93-2.21,0.28-1.44,1.2c3.72,4.49,6.89,9.31,9.53,14.48
							c-5.75-3.36-11.42-6.88-17-10.53c-0.03-0.14-0.09-0.29-0.23-0.42c-3.96-3.97-7.92-7.95-11.87-11.92
							c-0.84-0.85-2.29,0.35-1.44,1.2c2.1,2.1,4.19,4.21,6.29,6.31c-3.63-2.46-7.21-4.97-10.77-7.51
							C43.49,208.78,42.42,210.32,43.4,211.02z"/>
					</g>
				</g>
				<g>
					<g>
						<g>
							<g>
								
									<linearGradient id="SVGID_6_" gradientUnits="userSpaceOnUse" x1="1099.2052" y1="-1.2358" x2="1182.3344" y2="-1.2358" gradientTransform="matrix(-0.9255 0.3787 0.3787 0.9255 1168.5581 -242.1688)">
									<stop  offset="0.0117" style="stop-color:#1F94A5"/>
									<stop  offset="0.2682" style="stop-color:#47A1A7"/>
									<stop  offset="0.9961" style="stop-color:#8ACDAA"/>
								</linearGradient>
								<path class="st6" d="M58.95,126.27c2.84,0.79,14.61,10.34,19.86,14.68c1.6,1.32,2.55,3.26,2.63,5.33
									c0.11,3.04,0.36,7.48,0.84,9.9c1.86-3.13,3.5-6.45,5.63-9.51c3.08,1.61,5.99,4.16,9.01,5.98c3.1,1.86,6.24,3.9,9.05,6.2
									c2.56,2.09,6.71,4.59,7.15,7.59c0.45,3.07-0.15,7.73-0.32,10.89c1.45-1.73,2.43-4.16,3.47-6.29
									c1.86-3.83,2.23-3.09,6.21-1.07c4.74,2.4,9.25,5.21,13.41,8.51c5.34,4.24,9.66,8.41,14.11,13.31
									c2.59,2.85,2.69,2.48,1.52,6.22c-0.79,2.51-1.38,5.35-1.9,7.95c3.69,0.82,7.77-4.2,9.88-6.55
									c6.53,5.03,7.8,17.27,8.88,24.91c0.21,1.5,1.77,16.6,1.85,17.37c0.85,8.43-7.14,15.06-15.29,12.68
									c-4.26-1.25-9.46-3-15.72-5.47c-5.5-2.16-29.66-14.36-34.56-20.93c3.29-2.39,7.38-4.29,10.32-7.2
									c-3.9-0.6-8.44,1.19-11.94,2.74c-0.41,0.18-1.38,0.58-2.48,1.02c-2.75,1.12-5.9,0.44-7.94-1.7
									c-5.47-5.74-14.54-17.68-18.34-23.78c3.77-1.64,6.85-2.14,10.77-3.75c-3.8-1.29-8.57,0.38-12.48-0.06
									c-2.81-0.32-2.22,0.47-3.47-2.4c-0.7-1.6-1.07-3.2-1.75-4.8c5.16-0.49,10.34-2.45,15.61-3.23
									c-3.68,0.53-7.89-0.41-11.55-0.65c-4.96-0.32-5.45-0.65-7.39-5.25c-3.34-7.89-6.79-16.6-8.89-24.82
									c-1.67-6.56-4.57-16-2.96-22.64C53.15,127.35,54.16,124.94,58.95,126.27z"/>
							</g>
						</g>
						<path class="st1" d="M63.87,144.08c5.15,7.33,10.49,14.57,16.05,21.64c-7.06-4.35-13.45-9.57-19.13-15.65
							c-0.81-0.87-2.34,0.22-1.52,1.11c6.83,7.31,14.6,13.41,23.34,18.29c0.14,0.08,0.27,0.11,0.39,0.12
							c2.18,2.7,4.39,5.37,6.64,8.01c-6.84-0.79-13.47-2.48-19.85-5.11c-1.11-0.46-1.89,1.25-0.77,1.71
							c7.07,2.92,14.44,4.74,22.07,5.44c0.1,0.01,0.19-0.01,0.28-0.03c2.16,2.5,4.37,4.96,6.6,7.4c-2.74,0.13-5.48,0.13-8.22,0.53
							c-3.27,0.47-6.48,1.24-9.7,1.99c-1.17,0.27-0.5,2.02,0.66,1.75c6.4-1.49,12.43-1.92,18.89-2.48c2.71,2.91,5.48,5.77,8.3,8.57
							c-3.19,0.24-6.41,0.07-9.61,0.48c-3.36,0.43-6.62,1.21-9.85,2.22c-1.15,0.36-0.49,2.11,0.66,1.75
							c3.55-1.11,7.15-1.92,10.86-2.28c3.22-0.32,6.47-0.06,9.67-0.46c2.6,2.54,5.25,5.02,7.95,7.45
							c-7.11,0.92-13.86,3.14-20.63,5.5c-1.14,0.4-0.48,2.15,0.66,1.75c7.13-2.49,14.25-4.85,21.81-5.59
							c4.71,4.16,9.56,8.15,14.58,11.93c-6.19,2.16-12.1,4.87-17.79,8.14c-1.04,0.6,0.07,2.11,1.1,1.51
							c5.9-3.39,12.05-6.14,18.5-8.31c2.94,2.17,5.94,4.25,8.99,6.27c-5.9,1.17-11.53,3.18-16.47,6.69c-0.98,0.7,0.12,2.21,1.1,1.51
							c5.11-3.63,10.95-5.57,17.08-6.64c0.16-0.03,0.29-0.09,0.41-0.17c3.1,2,6.26,3.9,9.47,5.73c-4.34,0.02-8.58,0.92-12.64,2.73
							c-1.1,0.49-0.44,2.24,0.66,1.75c5.04-2.24,10.3-3.05,15.76-2.39c2.7,1.46,5.44,2.88,8.23,4.22c1.09,0.52,1.86-1.19,0.77-1.71
							c-2.72-1.3-5.38-2.68-8.01-4.09c-0.1-0.1-0.23-0.18-0.4-0.22c-0.08-0.04-0.15-0.09-0.23-0.13
							c-2.19-7.41-2.21-14.94-0.14-22.41c0.32-1.16-1.53-1.46-1.85-0.31c-1.99,7.14-2.05,14.35-0.29,21.45
							c-3.37-1.9-6.68-3.88-9.92-5.96c0.15-0.22,0.23-0.49,0.14-0.81c-2.47-8.74-4.82-17.5-4.29-26.68
							c0.07-1.19-1.78-1.51-1.85-0.31c-0.53,9.13,1.63,17.85,4.08,26.56c-4.85-3.18-9.56-6.56-14.13-10.11
							c0.07-10.91,0.31-21.9,4.42-32.19c0.45-1.12-1.26-1.89-1.71-0.77c-4.03,10.07-4.47,20.79-4.57,31.49
							c-3-2.39-5.95-4.85-8.84-7.37c-0.24-9.24-1.22-18.89,2.15-27.71c0.43-1.12-1.28-1.9-1.71-0.77
							c-3.26,8.55-2.66,17.78-2.36,26.77c-2.5-2.23-4.96-4.51-7.38-6.84c0.07-0.19,0.09-0.4-0.02-0.65
							c-3.41-7.87-4.56-16.24-5.58-24.69c-0.14-1.2-2.01-1.02-1.87,0.17c0.92,7.6,1.95,15.14,4.56,22.32
							c-2.64-2.62-5.23-5.29-7.78-8.01c0.8-1.61-0.36-4.89-0.55-6.19c-0.69-4.84-1.5-9.66-2.4-14.46c-0.22-1.18-2.09-1.01-1.87,0.17
							c0.62,3.29,1.19,6.58,1.71,9.88c0.11,0.72,1.3,6.57,1.48,8.84c-2.36-2.56-4.69-5.15-6.97-7.79c0-0.01,0-0.02,0-0.02
							c-0.7-6.88-2.23-13.52-4.63-20.01c-0.42-1.13-2.17-0.47-1.76,0.66c2.02,5.47,3.41,11.06,4.19,16.81
							c-4.31-5.07-8.49-10.27-12.55-15.55c0.02-0.15,0.01-0.3-0.07-0.48c-2.42-5.06-4.83-10.12-7.25-15.18
							c-0.52-1.08-2.28-0.42-1.76,0.66c1.28,2.68,2.56,5.36,3.84,8.03c-2.6-3.52-5.16-7.07-7.67-10.64
							C64.69,141.99,63.17,143.09,63.87,144.08z"/>
					</g>
				</g>
			</g>
		</g>
		<g>
			<g>
				
					<linearGradient id="SVGID_7_" gradientUnits="userSpaceOnUse" x1="247.1769" y1="378.7112" x2="247.1769" y2="323.5086" gradientTransform="matrix(1 0 0 1 20.8019 0)">
					<stop  offset="7.131410e-03" style="stop-color:#D5E0F2"/>
					<stop  offset="0.1777" style="stop-color:#D1DEF2"/>
					<stop  offset="0.3458" style="stop-color:#C5D9F0"/>
					<stop  offset="0.5131" style="stop-color:#B1D0ED"/>
					<stop  offset="0.6798" style="stop-color:#94C4EA"/>
					<stop  offset="0.8446" style="stop-color:#6EB7E5"/>
					<stop  offset="1" style="stop-color:#30A9E0"/>
				</linearGradient>
				<rect x="251.54" y="301.13" class="st7" width="32.88" height="53.47"/>
				
					<linearGradient id="SVGID_8_" gradientUnits="userSpaceOnUse" x1="247.7188" y1="366.6065" x2="247.7188" y2="311.4035" gradientTransform="matrix(1 0 0 1 20.8019 0)">
					<stop  offset="7.131410e-03" style="stop-color:#D5E0F2"/>
					<stop  offset="0.0709" style="stop-color:#C0D6EF"/>
					<stop  offset="0.1963" style="stop-color:#9AC7EA"/>
					<stop  offset="0.3286" style="stop-color:#7BBBE7"/>
					<stop  offset="0.4677" style="stop-color:#60B3E4"/>
					<stop  offset="0.6168" style="stop-color:#48ADE2"/>
					<stop  offset="0.7829" style="stop-color:#37AAE1"/>
					<stop  offset="1" style="stop-color:#30A9E0"/>
				</linearGradient>
				<path class="st8" d="M339.64,361.31H197.41v-2.63c0-4.66,3.77-8.43,8.43-8.43h125.37c4.66,0,8.43,3.77,8.43,8.43V361.31z"/>
			</g>
			
				<linearGradient id="SVGID_9_" gradientUnits="userSpaceOnUse" x1="247.7188" y1="97.4305" x2="247.7188" y2="273.9268" gradientTransform="matrix(1 0 0 1 20.8019 0)">
				<stop  offset="7.131410e-03" style="stop-color:#D5E0F2"/>
				<stop  offset="0.1653" style="stop-color:#C5D9F0"/>
				<stop  offset="0.473" style="stop-color:#9BC7EB"/>
				<stop  offset="0.8963" style="stop-color:#4FAFE2"/>
				<stop  offset="1" style="stop-color:#30A9E0"/>
			</linearGradient>
			<path class="st9" d="M388.86,332.54H148.18c-2.92,0-5.29-2.37-5.29-5.29V147.21c0-2.92,2.37-5.29,5.29-5.29h240.68
				c2.92,0,5.29,2.37,5.29,5.29v180.04C394.15,330.17,391.78,332.54,388.86,332.54z"/>
			
				<linearGradient id="SVGID_10_" gradientUnits="userSpaceOnUse" x1="247.7188" y1="242.1434" x2="247.7188" y2="138.8335" gradientTransform="matrix(1 0 0 1 20.8019 0)">
				<stop  offset="1.963140e-03" style="stop-color:#D5E0F2"/>
				<stop  offset="0.4855" style="stop-color:#E8ECF0"/>
				<stop  offset="1" style="stop-color:#F2F2F2"/>
			</linearGradient>
			<rect x="152.45" y="151.15" class="st10" width="232.15" height="153.64"/>
			<path class="st11" d="M276.92,319.52c-0.9,4.64-5.39,7.66-10.03,6.76c-4.64-0.9-7.66-5.39-6.76-10.03
				c0.9-4.64,5.39-7.66,10.03-6.76C274.79,310.39,277.82,314.88,276.92,319.52z"/>
			<rect x="152.48" y="279.81" class="st11" width="232.09" height="24.98"/>
		</g>
		<g>
			<path class="st12" d="M251.24,95.68c2.13,8.15-2.25,17.93-5.97,25.5c0,0,20.89,14.93,47.14,1.18l-2.15-5.72
				c-2.56-6.2-3.31-13.01-2.12-19.62l4.44-24.69c1.04-5.76-2.37-11.39-7.94-13.17l-5.95-1.89l-1.86-0.59
				c-2.21-0.7-4.51-1.06-6.83-1.06h-2.42c-3.62,0-7.2,0.87-10.41,2.54l0,0l-5.62,2.91c-4.84,2.51-7.29,8.03-5.9,13.3L251.24,95.68z"
				/>
			<path class="st12" d="M287.73,60.51c0,0,2.54,0.55,5.04,3.09c2.29,2.33,22.77,38.49,22.77,38.49c0.73,4.34-14.32,6.79-14.32,6.79
				l-13.56-22.66L287.73,60.51z"/>
			<path class="st13" d="M311.85,98.52c-4.87-0.06-9.36,1.56-13.09,4.69c-0.33,0.28,0.15,0.76,0.48,0.48
				c3.59-3.02,7.92-4.55,12.61-4.49C312.29,99.2,312.29,98.53,311.85,98.52z"/>
			<path class="st12" d="M252.54,60.51c0,0-2.54,0.55-5.04,3.09c-2.29,2.33-22.77,38.49-22.77,38.49
				c-0.73,4.34,14.32,6.79,14.32,6.79l13.56-22.66L252.54,60.51z"/>
			<path class="st13" d="M242.33,103.6c-3.46-3.87-8.38-5.8-13.55-5.3c-0.43,0.04-0.43,0.72,0,0.68c5.01-0.48,9.72,1.35,13.08,5.11
				C242.15,104.41,242.62,103.93,242.33,103.6z"/>
			<polygon class="st1" points="292.41,122.36 306.87,122.36 283.67,142.6 261.32,144.22 231.33,121.61 248.49,121.08 			"/>
			<polygon class="st1" points="292.41,122.36 306.87,122.36 283.67,142.6 261.32,144.22 231.33,121.61 248.49,121.08 			"/>
			<g>
				
					<linearGradient id="SVGID_11_" gradientUnits="userSpaceOnUse" x1="228.4513" y1="84.7031" x2="229.8561" y2="84.7031" gradientTransform="matrix(1 0 0 1 20.8019 0)">
					<stop  offset="1.963140e-03" style="stop-color:#D5E0F2"/>
					<stop  offset="0.4855" style="stop-color:#E8ECF0"/>
					<stop  offset="1" style="stop-color:#F2F2F2"/>
				</linearGradient>
				<path class="st14" d="M250.14,74.46c0.03-0.44-0.65-0.43-0.68,0c-0.4,6.85-0.23,13.67,0.51,20.49c0.05,0.43,0.72,0.43,0.68,0
					C249.91,88.13,249.74,81.31,250.14,74.46z"/>
				
					<linearGradient id="SVGID_12_" gradientUnits="userSpaceOnUse" x1="1278.1506" y1="84.7031" x2="1279.5555" y2="84.7031" gradientTransform="matrix(-1 0 0 1 1567.6458 0)">
					<stop  offset="1.963140e-03" style="stop-color:#D5E0F2"/>
					<stop  offset="0.4855" style="stop-color:#E8ECF0"/>
					<stop  offset="1" style="stop-color:#F2F2F2"/>
				</linearGradient>
				<path class="st15" d="M288.6,74.46c-0.03-0.44,0.65-0.43,0.68,0c0.4,6.85,0.23,13.67-0.51,20.49c-0.05,0.43-0.72,0.43-0.68,0
					C288.84,88.13,289.01,81.31,288.6,74.46z"/>
			</g>
			<path class="st16" d="M268.78,61.67L268.78,61.67c2.53,0,4.59-2.05,4.59-4.59v-9.27c0-0.7-0.56-1.26-1.26-1.26h-6.66
				c-0.7,0-1.26,0.56-1.26,1.26v9.27C264.19,59.61,266.25,61.67,268.78,61.67z"/>
			<path class="st17" d="M268.78,58.36L268.78,58.36c2.53,0,4.59-2.05,4.59-4.59V44.5c0-0.7-0.56-1.26-1.26-1.26h-6.66
				c-0.7,0-1.26,0.56-1.26,1.26v9.27C264.19,56.31,266.25,58.36,268.78,58.36z"/>
			<g>
				<path class="st16" d="M285.85,41.44c-0.68,2.97-2.93,3.91-5.02,4.51c-0.95,1.97-2.3,3.89-3.87,5.51
					c-1.63,1.93-3.74,3.35-6.14,3.94l-0.21,0.04c-0.14,0.03-0.28,0.07-0.42,0.1c-0.1,0.01-0.2,0.01-0.29,0.03
					c-0.08,0.01-0.15,0.01-0.24,0.03c-0.18,0.01-0.38,0.03-0.56,0.03c-0.2,0-0.38-0.01-0.56-0.03c-0.08-0.01-0.17-0.01-0.25-0.03
					c-0.1-0.01-0.2-0.01-0.28-0.03c-0.15-0.03-0.28-0.07-0.42-0.1c-0.07-0.01-0.14-0.03-0.22-0.04c-2.4-0.59-4.51-2.01-6.14-3.94
					c-1.34-1.4-2.53-3.01-3.43-4.69c-0.15-0.28-0.29-0.54-0.43-0.82c-0.63-0.17-1.26-0.38-1.86-0.68c-1.42-0.66-2.68-1.73-3.15-3.82
					c-0.38-1.66-0.18-3.68,0.67-4.8c0.35-0.47,0.81-0.78,1.38-0.82c0.59-0.06,1.26,0.17,1.9,0.54c0.87-3.92,2.93-8.11,5.47-10.98
					c1.07-1.42,2.3-2.34,3.64-2.92c0.73-0.35,1.45-0.59,2.19-0.64c0.5-0.06,1-0.07,1.49-0.06c0.49-0.01,0.99,0,1.49,0.06
					c0.73,0.06,1.47,0.29,2.18,0.64c1.34,0.57,2.57,1.49,3.64,2.92c2.55,2.88,4.62,7.06,5.47,10.98c0.28-0.17,0.57-0.29,0.85-0.39
					c0.36-0.13,0.73-0.18,1.05-0.15C285.75,35.98,286.38,39.08,285.85,41.44z"/>
			</g>
			<g>
				<path class="st18" d="M286.26,25.96c-2.73-0.22-5.23-3.13-7.27-4.81c-2.29-1.89-4.4-2.52-7.24-2.81
					c-1.16-0.12-2.44-0.33-3.64-0.13c-1.5,0.24-2.33,1.17-3.78,1.26c-4.02,0.25-5.59,0.13-8.03,3.61c-1.75,2.49-3.63,5.68-6.45,7.08
					c0.69,0.05,3.44-0.41,3.96,0.04c0.56,0.48-0.11,2.46-0.07,3.3c0.07,1.86,0.95,3.56,2.02,5.06c0.41,2.75,1.23,5.47,2.26,8
					c-0.08-5.1,0.37-11.11,3.12-15.54c0.24,1.22,0.15,2.47,0.21,3.71c2.01-1.64,3.44-3.83,5.24-5.65c1.41,2.05,2.72,3.81,5,5.06
					c0.13-2.07,0.85-3.84,1.44-5.8c1.18,1.63,1.87,3.54,3,5.2c1.29,1.9,2.88,3.63,3.71,5.83c1.13,2.97,0.86,6.75,0.56,9.88
					c1.02-2.4,2.33-4.37,2.82-7.01c0.34-1.81,0.52-3.76,0.51-5.61c-0.01-3.47-0.59-6.67-0.7-10.06
					C284.13,26.52,285.17,26.63,286.26,25.96z"/>
			</g>
			<g>
				<g>
					<g>
						<path class="st19" d="M261.81,37.95c0.15,0.01,0.3-0.07,0.38-0.21c1.18-2.25,3.25-1.33,3.34-1.29c0.2,0.09,0.44,0,0.53-0.2
							c0.09-0.2,0-0.44-0.2-0.53c-0.98-0.45-3.16-0.69-4.38,1.64c-0.1,0.2-0.03,0.44,0.17,0.54
							C261.7,37.93,261.75,37.95,261.81,37.95z"/>
					</g>
				</g>
				<g>
					<g>
						<path class="st19" d="M273.47,36.94c0.09,0.09,0.23,0.12,0.36,0.07c1.99-0.78,2.79,0.94,2.83,1.02
							c0.08,0.17,0.27,0.24,0.44,0.17c0.17-0.08,0.24-0.28,0.17-0.44c-0.37-0.82-1.63-2.17-3.68-1.37
							c-0.17,0.07-0.26,0.26-0.19,0.44C273.41,36.87,273.44,36.91,273.47,36.94z"/>
					</g>
				</g>
				<g>
					<g>
						<path class="st19" d="M268.65,48.81c-0.04-0.14-0.17-0.26-0.33-0.28c-2.51-0.32-2.37-2.57-2.37-2.67
							c0.02-0.22-0.15-0.41-0.37-0.43c-0.22-0.02-0.41,0.15-0.43,0.37c-0.08,1.07,0.46,3.19,3.06,3.52
							c0.22,0.03,0.42-0.13,0.44-0.35C268.67,48.92,268.67,48.86,268.65,48.81z"/>
					</g>
				</g>
				<g>
					<path class="st19" d="M270.65,47.55c0.3,0,0.58-0.08,0.83-0.24c0.78-0.51,0.98-1.68,0.53-3.13l-1.02-4.82
						c-0.04-0.19-0.22-0.31-0.41-0.27c-0.19,0.04-0.31,0.22-0.27,0.41l1.03,4.85c0.43,1.37,0.15,2.12-0.24,2.38
						c-0.41,0.26-1.02,0.11-1.58-0.38c-0.14-0.12-0.37-0.13-0.5,0.01c-0.13,0.14-0.13,0.34,0,0.47
						C269.56,47.31,270.13,47.55,270.65,47.55z"/>
				</g>
				<path class="st19" d="M275.98,40.47c-0.06,0.71-0.63,1.25-1.27,1.19c-0.65-0.05-1.12-0.67-1.07-1.38
					c0.06-0.71,0.63-1.25,1.27-1.19C275.56,39.14,276.04,39.76,275.98,40.47z"/>
				<path class="st19" d="M265.61,40.47c-0.06,0.71-0.63,1.25-1.27,1.2c-0.65-0.05-1.12-0.67-1.07-1.38
					c0.06-0.71,0.63-1.25,1.27-1.2C265.18,39.14,265.66,39.76,265.61,40.47z"/>
			</g>
			<path class="st16" d="M273.63,120.2l-1.17-6.03c-0.23-1.21,0.4-2.43,1.52-2.94l1.29-0.59c1.42-0.64,3.09-0.45,4.32,0.51
				l4.54,3.54c0.71,0.56,1.69,0.63,2.47,0.17l0.25-0.15l3.6-2.09c0,0,19.46-16.34,25.09-10.53c2.67,4.03,0.57,9.48-4.09,10.69
				l-17.89,4.64l-4.81,1.25l-3.16,0.83c-0.64,0.16-1.32,0.14-1.95-0.05l-6.51-2.03c-0.44-0.14-0.89,0.14-0.97,0.6l-0.74,2.29
				C275.11,121.21,273.81,121.13,273.63,120.2z"/>
			<path class="st16" d="M266.64,120.2l1.17-6.03c0.23-1.21-0.4-2.43-1.52-2.94l-1.29-0.59c-1.42-0.64-3.09-0.45-4.32,0.51
				l-4.54,3.54c-0.71,0.56-1.69,0.63-2.47,0.17l-0.25-0.15l-3.6-2.09c0,0-19.46-16.34-25.09-10.53c-2.67,4.03-0.57,9.48,4.09,10.69
				l17.89,4.64l4.81,1.25l3.16,0.83c0.64,0.16,1.32,0.14,1.95-0.05l6.51-2.03c0.44-0.14,0.9,0.14,0.97,0.6l0.74,2.29
				C265.15,121.21,266.46,121.13,266.64,120.2z"/>
			<g>
				<g>
					
						<linearGradient id="SVGID_13_" gradientUnits="userSpaceOnUse" x1="248.298" y1="131.2227" x2="248.298" y2="71.2198" gradientTransform="matrix(1 0 0 1 20.8019 0)">
						<stop  offset="0" style="stop-color:#30A9E0"/>
						<stop  offset="0.1037" style="stop-color:#4FAFE2"/>
						<stop  offset="0.527" style="stop-color:#9BC7EB"/>
						<stop  offset="0.8347" style="stop-color:#C5D9F0"/>
						<stop  offset="0.9929" style="stop-color:#D5E0F2"/>
					</linearGradient>
					<rect x="241.83" y="92.63" class="st20" width="54.53" height="35.11"/>
					
						<linearGradient id="SVGID_14_" gradientUnits="userSpaceOnUse" x1="248.298" y1="132.6646" x2="248.298" y2="126.1862" gradientTransform="matrix(1 0 0 1 20.8019 0)">
						<stop  offset="0" style="stop-color:#30A9E0"/>
						<stop  offset="0.1037" style="stop-color:#4FAFE2"/>
						<stop  offset="0.527" style="stop-color:#9BC7EB"/>
						<stop  offset="0.8347" style="stop-color:#C5D9F0"/>
						<stop  offset="0.9929" style="stop-color:#D5E0F2"/>
					</linearGradient>
					<path class="st21" d="M297.24,127.74h-56.29c-0.75,0-1.36,0.61-1.36,1.36l0,0c0,0.75,0.61,1.36,1.36,1.36h56.29
						c0.75,0,1.36-0.61,1.36-1.36l0,0C298.61,128.35,298,127.74,297.24,127.74z"/>
				</g>
				
					<linearGradient id="SVGID_15_" gradientUnits="userSpaceOnUse" x1="248.6268" y1="127.8641" x2="248.6268" y2="108.6845" gradientTransform="matrix(1 0 0 1 20.8019 0)">
					<stop  offset="0" style="stop-color:#30A9E0"/>
					<stop  offset="0.1037" style="stop-color:#4FAFE2"/>
					<stop  offset="0.527" style="stop-color:#9BC7EB"/>
					<stop  offset="0.8347" style="stop-color:#C5D9F0"/>
					<stop  offset="0.9929" style="stop-color:#D5E0F2"/>
				</linearGradient>
				<path class="st22" d="M274.18,112.68c0,2.62-2.13,4.75-4.75,4.75c-2.62,0-4.75-2.13-4.75-4.75c0-2.62,2.13-4.75,4.75-4.75
					C272.05,107.93,274.18,110.06,274.18,112.68z"/>
			</g>
			<g>
				<path class="st1" d="M221.45,134.13c0.91,4.03,4.1,6.95,7.88,7.76c0.33,0.07,0.67,0.13,1.02,0.16
					c13.13,3.6,27.59,6.16,43.17,7.84c4.24,0.47,8.58,0.86,12.98,1.19l7.61,7.07c0.07,0.06,0.14,0.13,0.22,0.18
					c3.42,2.69,8.35-0.42,7.61-4.71l-0.44-2.53c0-0.02-0.01-0.03-0.01-0.05c-0.91-2.49-3.14-4.25-5.74-4.72l-7.87-1.44
					c-3.8-1.2-7.54-2.41-11.18-3.63c-15.84-5.32-29.96-10.97-40.85-18.65c-2.01-0.95-4.32-1.27-6.65-0.74
					C223.66,123.11,220.2,128.61,221.45,134.13z"/>
				<path class="st19" d="M273.51,149.88c4.24,0.47,8.58,0.86,12.98,1.19l7.61,7.07c0.07,0.06,0.14,0.13,0.22,0.18
					c3.42,2.69,8.35-0.42,7.61-4.71l-0.44-2.53c0-0.02-0.01-0.03-0.01-0.05c-0.91-2.49-3.14-4.25-5.74-4.72l-7.87-1.44
					c-3.8-1.2-7.54-2.41-11.18-3.63L273.51,149.88z"/>
				<path class="st1" d="M245.96,157.68c0.08-0.07,0.15-0.13,0.22-0.18l7.71-7.17c3.94-0.41,7.83-0.83,11.64-1.28
					c16.97-1.96,32.44-4.3,43.84-7.68c0.34-0.03,0.67-0.09,1.02-0.16c3.79-0.8,6.96-3.72,7.87-7.76c1.25-5.52-2.2-11.01-7.72-12.26
					c-2.33-0.52-4.64-0.22-6.65,0.74c-11.68,7.55-25.53,13.65-40.82,18.77c-3.84,1.3-7.78,2.52-11.8,3.7l0.01,0.05l-6.74,1.23
					c-2.59,0.47-4.81,2.24-5.73,4.71c0,0.02-0.01,0.03-0.01,0.06l-0.44,2.53C237.61,157.26,242.54,160.36,245.96,157.68z"/>
				<path class="st19" d="M245.96,157.68c0.08-0.07,0.15-0.13,0.22-0.18l7.71-7.17c3.94-0.41,7.83-0.83,11.64-1.28
					c-0.62-2.11-1.63-5.52-2.46-8.35c-3.84,1.3-7.78,2.52-11.8,3.7l0.01,0.05l-6.74,1.23c-2.59,0.47-4.81,2.24-5.73,4.71
					c0,0.02-0.01,0.03-0.01,0.06l-0.44,2.53C237.61,157.26,242.54,160.36,245.96,157.68z"/>
			</g>
			<path class="st13" d="M276.59,57.31c-0.16-0.4-0.82-0.22-0.65,0.18c3.88,9.56-17.5,11.19-14.72-0.15c0.1-0.42-0.55-0.6-0.65-0.18
				C257.51,69.61,280.87,67.86,276.59,57.31z"/>
		</g>
		<g>
			<g>
				<g>
					<circle class="st11" cx="144.11" cy="359.29" r="6.3"/>
					<path class="st11" d="M109.58,359.29c0,3.48,2.82,6.3,6.3,6.3c3.48,0,6.3-2.82,6.3-6.3c0-3.48-2.82-6.3-6.3-6.3
						C112.4,352.99,109.58,355.81,109.58,359.29z"/>
					<circle class="st11" cx="90.21" cy="359.29" r="6.3"/>
					<g>
						
							<linearGradient id="SVGID_16_" gradientUnits="userSpaceOnUse" x1="92.8976" y1="326.2685" x2="98.1867" y2="326.2685" gradientTransform="matrix(1 0 0 1 20.8019 0)">
							<stop  offset="7.131410e-03" style="stop-color:#D5E0F2"/>
							<stop  offset="0.1653" style="stop-color:#C5D9F0"/>
							<stop  offset="0.473" style="stop-color:#9BC7EB"/>
							<stop  offset="0.8963" style="stop-color:#4FAFE2"/>
							<stop  offset="1" style="stop-color:#30A9E0"/>
						</linearGradient>
						<path class="st23" d="M116.34,359.05L116.34,359.05c1.46,0,2.64-1.18,2.64-2.64v-62.93h-5.29v62.93
							C113.7,357.87,114.88,359.05,116.34,359.05z"/>
						
							<rect x="131.67" y="240.98" transform="matrix(-1 -1.224647e-16 1.224647e-16 -1 268.6238 519.6066)" class="st24" width="5.29" height="37.65"/>
						
							<linearGradient id="SVGID_17_" gradientUnits="userSpaceOnUse" x1="73.2184" y1="259.8033" x2="78.5077" y2="259.8033" gradientTransform="matrix(1 0 0 1 20.8019 0)">
							<stop  offset="7.131410e-03" style="stop-color:#D5E0F2"/>
							<stop  offset="0.1653" style="stop-color:#C5D9F0"/>
							<stop  offset="0.473" style="stop-color:#9BC7EB"/>
							<stop  offset="0.8963" style="stop-color:#4FAFE2"/>
							<stop  offset="1" style="stop-color:#30A9E0"/>
						</linearGradient>
						<polygon class="st25" points="94.02,278.63 99.31,278.63 99.31,240.98 94.02,240.98 						"/>
						
							<linearGradient id="SVGID_18_" gradientUnits="userSpaceOnUse" x1="89.0047" y1="294.2476" x2="102.1536" y2="294.2476" gradientTransform="matrix(1 0 0 1 20.8019 0)">
							<stop  offset="7.131410e-03" style="stop-color:#D5E0F2"/>
							<stop  offset="0.1653" style="stop-color:#C5D9F0"/>
							<stop  offset="0.473" style="stop-color:#9BC7EB"/>
							<stop  offset="0.8963" style="stop-color:#4FAFE2"/>
							<stop  offset="1" style="stop-color:#30A9E0"/>
						</linearGradient>
						<polygon class="st26" points="109.81,302.27 122.96,302.27 122.96,286.22 109.81,286.22 						"/>
					</g>
					<path class="st11" d="M92.78,292.47h45.74c4.73,0,8.56-3.83,8.56-8.56l0,0c0-4.73-3.83-8.56-8.56-8.56H92.78
						c-4.73,0-8.56,3.83-8.56,8.56l0,0C84.22,288.64,88.05,292.47,92.78,292.47z"/>
					<path class="st11" d="M96.95,244.56h41.57c4.73,0,8.56-3.83,8.56-8.56l0,0c0-4.73-3.83-8.56-8.56-8.56H96.95
						c-4.73,0-8.56,3.83-8.56,8.56l0,0C88.39,240.73,92.22,244.56,96.95,244.56z"/>
					
						<linearGradient id="SVGID_19_" gradientUnits="userSpaceOnUse" x1="66.9335" y1="349.37" x2="125.4105" y2="349.37" gradientTransform="matrix(1 0 0 1 20.8019 0)">
						<stop  offset="7.131410e-03" style="stop-color:#D5E0F2"/>
						<stop  offset="0.1653" style="stop-color:#C5D9F0"/>
						<stop  offset="0.473" style="stop-color:#9BC7EB"/>
						<stop  offset="0.8963" style="stop-color:#4FAFE2"/>
						<stop  offset="1" style="stop-color:#30A9E0"/>
					</linearGradient>
					<path class="st27" d="M96.35,338.52h41.25c4.76,0,8.61,3.86,8.61,8.61v10.64c0,1.35-1.1,2.45-2.45,2.45l0,0
						c-1.35,0-2.45-1.1-2.45-2.45v-9.54c0-2.65-2.15-4.81-4.81-4.81H97.58c-2.66,0-4.81,2.15-4.81,4.81v9.54
						c0,1.35-1.1,2.45-2.45,2.45H90.3c-1.34,0-2.44-1.08-2.45-2.42l-0.11-10.57C87.68,342.43,91.56,338.52,96.35,338.52z"/>
				</g>
				<g>
					<path class="st12" d="M108,204.26l-4.16,27.89c-0.75,5.02-5.71,8.27-10.61,6.95l-27.36-7.36l0.63-6.64l25.61,2.25l2.36-20.13
						c0.69-5.87,4.29-10.99,9.58-13.62l0,0C108.31,191.78,108.68,199.67,108,204.26z"/>
					<g>
						<g>
							<path class="st11" d="M131.83,207.22c0.49-0.16,0.99-0.4,1.48-0.7C133.08,207.08,132.63,207.39,131.83,207.22z"/>
						</g>
						<g>
							<path class="st11" d="M104.41,174.11c0.52-2.93,0.49-5.93,1.18-8.86c0.66-2.79,1.93-5.18,3.34-7.45
								c0.95-1.53,2.24-2.82,3.63-3.65c1.05-0.63,3.3-1.6,4.38-0.59l6.81,0.73c2.12-0.64,4.78,0.66,6.63,2.07
								c2.68,2.05,3.93,5.1,5.39,8.49c1.19,2.76,1.45,5.46,1.22,8.57c-0.18,2.37-1.08,4.27-1.07,6.75c0.01,2.43,0.83,4.63,2.18,6.32
								c0.96,1.19,2,2.45,3.2,3.22c0.75,0.48,1.78,0.75,2.42,1.38c-1.34,0.45-3.63-0.66-4.94-1.17c-1.13-0.44-2.06-1.45-3.18-1.85
								c0.34,1.58,1.1,2.65,1.23,4.44c0.19,2.66-0.62,4.28-1.95,6.3c-1.81,2.77-4.3,4.48-6.58,6.55c-1.33,1.21-2.9,2.76-4.5,3.73
								c0.63-1.55-0.43-5.09-0.6-6.34c-0.19-1.35-0.77-2.42-0.81-3.81c-0.03-1.11-0.04-2.34,0.15-3.4
								c-2.71,4.41-6.98,10.05-4.98,16.21c-1.79-1.59-3.44-3.74-5.02-5.69c-1.62-1.98-3.45-4.02-4.86-6.24
								c-2.51-3.95-3.73-8.42-3.92-13.5C103.58,182.17,103.69,178.12,104.41,174.11z"/>
						</g>
					</g>
					<path class="st12" d="M123.25,251.11l-28.34,0.55l8.37-14.24c-1.84-10.39-3.83-26.15-4.22-35.83
						c-0.18-4.54,2.91-8.37,6.88-8.53l27.02-1.09c4.24-0.17-0.2,2.91-0.47,7.74c-0.27,4.84,2.36,10.96,2.58,15.08
						c0.27,5-2.58,3.26-3.53,11.14c-0.17,1.42-0.2,2.88-0.16,4.33c0.17,6.04,1.53,11.99,3.77,17.6l1.19,2.99l-12.61,0.25
						c-0.03,0.03-0.06,0.06-0.09,0.09L123.25,251.11z"/>
					<path class="st13" d="M131.94,221.01c0.02-0.15,0.13-0.2,0.24-0.22c1.56-2.6,3.13-5.37,2.29-8.51
						c-0.58-2.16-1.94-3.95-2.41-6.16c-0.09-0.42,0.56-0.61,0.65-0.18c0.6,2.8,2.65,5.18,2.7,8.11c0.05,2.63-1.43,5.07-2.74,7.23
						c-0.03,0.05-0.07,0.05-0.11,0.08c-1.01,6.09-1.84,12.23,1,17.98c0.19,0.39-0.39,0.73-0.58,0.34
						C130.04,233.72,130.88,227.34,131.94,221.01z"/>
					<g>
						<path class="st11" d="M130.1,336.31c0,0-3.27,23.85-9.32,18.56c-0.33,1.89-0.83,3.47-1.67,4.67
							c-2.63,3.74,6.02,5.09,9.35,3.46c3.35-1.63,1.46-14.42,1.46-14.42S134.65,340.92,130.1,336.31z"/>
						<path class="st1" d="M98.17,250.62l35.23,0.19c6.05,0.03,10.96,5.68,10.93,12.54c-0.02,3.37-1.23,6.42-3.17,8.66
							c-0.06,0.16-0.1,0.32-0.18,0.47c-2.18,3.98-6.11,6.72-11.34,8.59c-0.28,0.09-2.54,0.98-3.5,1.32l-13.88-3.56l0-0.07
							c0.15-1.15,0.5-2.17,0.99-3.1l-15.21-0.08c-6.05-0.03-10.96-5.68-10.93-12.54C87.15,256.18,92.12,250.59,98.17,250.62z"/>
						<path class="st28" d="M131.09,307.75c-0.03,1.46-0.05,2.94-0.09,4.43c-0.18,7.91-0.53,16.16-0.89,24.12
							c0,0-2.64,19.33-7.59,19.33c-0.56,0-1.12-0.23-1.73-0.76c0.42-4.06,0.92-7.93,1.54-11.38c0.14-0.8,0.3-1.57,0.45-2.29
							c0.08-0.41,0.18-0.84,0.28-1.27c0.3-1.19,0.64-2.41,1.07-3.65c-0.01-0.18-0.89-3.09-2.17-7.76
							c-1.15-4.25-2.65-9.94-4.13-16.34c-0.15-0.64-0.3-1.29-0.45-1.95c-1.92-8.49-3.76-18.07-4.77-27.11
							c-0.85-7.57-1.12-14.74-0.35-20.59l13.88,3.56c-0.2,0.07-0.35,0.11-0.41,0.14C130.47,267.26,131.43,285.72,131.09,307.75z"/>
						<path class="st1" d="M131.09,307.75c-0.03,1.46-0.05,2.94-0.09,4.43h-13.17c-0.15-0.64-0.3-1.29-0.45-1.95
							c-1.92-8.49-3.76-18.07-4.77-27.11c-0.85-7.57-1.12-14.74-0.35-20.59l13.88,3.56c-0.2,0.07-0.35,0.11-0.41,0.14
							C130.47,267.26,131.43,285.72,131.09,307.75z"/>
						<path class="st29" d="M124.1,336.27c-0.38,1.11-0.73,2.33-1.04,3.66c0.29-1.2,0.64-2.42,1.06-3.66L124.1,336.27z"/>
						<path class="st28" d="M128.4,261.21c0.32,13.85-10.84,31.32-23.36,49.25c-0.41,0.57-0.8,1.15-1.22,1.72
							c-4.7,6.7-9.53,13.46-14.01,20.08l-4.59-4.13l5.77-15.95l3.78-10.42l14.92-41.22c1.8-4.93,6.01-8.12,10.71-8.12
							c2.15,0,4.13,0.99,5.58,2.57C127.42,256.56,128.34,258.74,128.4,261.21z"/>
						<path class="st11" d="M79.83,350.95c3.21-3.8,7.59-8.79,9.98-18.7c-2.12,4.14-4.17,7.87-6.08,10.57
							c-2.51,3.56-7.48-0.17-5.54-4.16c2.57-5.25,7.03-10.53,7.03-10.53l-0.04-0.04c-7.16,6.82-9.81,10.34-11.88,18.93
							C72.1,351.96,76.73,354.62,79.83,350.95z"/>
						<path class="st28" d="M83.72,342.82c1.91-2.7,3.97-6.43,6.08-10.57l-4.59-4.12c0,0-4.46,5.28-7.03,10.53
							C76.24,342.65,81.21,346.38,83.72,342.82z"/>
					</g>
					<g>
						<path class="st13" d="M118.03,209.28c-4.28-0.96-7.61-4.09-8.82-8.3c0.88-0.36,1.67-0.87,2.36-1.53
							c0.14-0.13,0.06-0.31-0.08-0.37c0.04-0.12,0.01-0.27-0.15-0.31c-0.59-0.16-1.15-0.37-1.68-0.67
							c-0.27-0.15-1.02-0.54-1.27-0.93c0.84-0.39,1.57-1.14,2.26-1.7c1.1-0.89,2.17-1.81,3.22-2.76c0.23-0.2-0.12-0.53-0.34-0.32
							c-0.89,0.8-1.78,1.58-2.7,2.34c-0.75,0.62-1.65,1.57-2.61,2.01c-0.11-0.06-0.27-0.02-0.34,0.13
							c-0.04,0.01-0.08,0.03-0.12,0.04c-0.29,0.08-0.15,0.53,0.14,0.45c0.01,0,0.02-0.01,0.03-0.01c0.2,0.39,0.72,0.66,1.08,0.9
							c0.66,0.43,1.37,0.74,2.13,0.95c-0.69,0.64-1.48,1.13-2.36,1.46c-0.22,0.08-0.19,0.37-0.03,0.44
							c1.26,4.38,4.72,7.65,9.17,8.64C118.22,209.81,118.33,209.35,118.03,209.28z"/>
						<path class="st13" d="M129.28,197.2c-2.03-1.43-3.76-3.16-5.2-5.18c-0.18-0.25-0.58,0-0.4,0.25c1.44,2.01,3.17,3.73,5.16,5.18
							c-0.04,0.02-0.08,0.03-0.11,0.08c-0.32,0.55-1.82,0.69-2.41,0.81c-0.9,0.18-1.8,0.28-2.71,0.33c-0.25,0.01-0.27,0.32-0.1,0.43
							c-0.02,0.05-0.01,0.12,0.03,0.18c0.67,0.95,1.51,1.71,2.51,2.29c-1.3,3.23-3.62,5.8-6.71,7.42c-0.27,0.14-0.02,0.54,0.25,0.4
							c3.22-1.68,5.63-4.37,6.95-7.76c0.03-0.07,0.02-0.14,0-0.19c0-0.07-0.02-0.14-0.11-0.19c-0.97-0.53-1.78-1.25-2.43-2.14
							c1-0.07,1.99-0.2,2.97-0.43c0.7-0.16,1.77-0.24,2.17-0.92c0.03-0.04,0.02-0.08,0.01-0.12
							C129.36,197.65,129.49,197.34,129.28,197.2z"/>
						<g>
							
								<linearGradient id="SVGID_20_" gradientUnits="userSpaceOnUse" x1="98.9828" y1="246.5025" x2="117.8269" y2="246.5025" gradientTransform="matrix(1 0 0 1 20.8019 0)">
								<stop  offset="7.131410e-03" style="stop-color:#D5E0F2"/>
								<stop  offset="0.1653" style="stop-color:#C5D9F0"/>
								<stop  offset="0.473" style="stop-color:#9BC7EB"/>
								<stop  offset="0.8963" style="stop-color:#4FAFE2"/>
								<stop  offset="1" style="stop-color:#30A9E0"/>
							</linearGradient>
							<polygon class="st30" points="138.63,248.25 119.78,248.25 119.78,244.75 137.55,247.27 							"/>
							
								<linearGradient id="SVGID_21_" gradientUnits="userSpaceOnUse" x1="63.124" y1="246.5025" x2="98.9828" y2="246.5025" gradientTransform="matrix(1 0 0 1 20.8019 0)">
								<stop  offset="7.131410e-03" style="stop-color:#D5E0F2"/>
								<stop  offset="0.1653" style="stop-color:#C5D9F0"/>
								<stop  offset="0.473" style="stop-color:#9BC7EB"/>
								<stop  offset="0.8963" style="stop-color:#4FAFE2"/>
								<stop  offset="1" style="stop-color:#30A9E0"/>
							</linearGradient>
							<polygon class="st31" points="83.93,244.75 119.78,244.75 119.78,248.25 83.93,248.25 							"/>
						</g>
					</g>
					<g>
						<path class="st28" d="M122.56,198.55l-4.53,9.13l-3.52-10.7c-0.45-1.35-0.65-2.78-0.58-4.21l0.06-1.5l-0.01-0.25l-0.08-4.83
							l9.93-1.38l-0.03,3.99c-0.01,0.73-0.02,1.48-0.06,2.21c0,0.17,0.02,0.99,0.05,1.91c0.01,0.21,0.01,0.42-0.01,0.62
							C123.75,195.28,123.33,196.98,122.56,198.55z"/>
						<path class="st17" d="M123.78,193.54c-1.58,0.31-3.26,0.28-4.93-0.11c-1.85-0.43-3.51-1.28-4.87-2.41l-0.08-4.83l9.93-1.38
							l-0.03,3.99c-0.01,0.73-0.02,1.48-0.06,2.21c0,0.17,0.02,0.99,0.05,1.91C123.8,193.13,123.8,193.35,123.78,193.54z"/>
						<path class="st28" d="M105.58,165.98c0.58,0.03,1.2,0.34,1.79,0.82c1.41-3.74,4.04-7.56,6.97-10.02c1.26-1.25,2.6-1.99,4-2.35
							c0.76-0.24,1.52-0.37,2.25-0.33c0.5,0.03,0.99,0.08,1.47,0.16c0.48,0.06,0.97,0.15,1.46,0.27c0.71,0.17,1.4,0.51,2.06,0.96
							c1.24,0.74,2.31,1.83,3.16,3.39c2.09,3.2,3.53,7.61,3.81,11.59c0.7-0.29,1.38-0.4,1.95-0.27c1.9,0.45,2.08,3.59,1.22,5.82
							c-1.1,2.83-3.45,3.43-5.58,3.71c-1.22,1.8-2.83,3.51-4.6,4.87c-1.88,1.66-4.16,2.76-6.61,2.99c-0.07,0.01-0.14,0.01-0.22,0.02
							c-0.14,0.01-0.28,0.03-0.42,0.04c-0.1,0-0.19-0.01-0.29-0.01c-0.08,0-0.16-0.01-0.24-0.01c-0.19-0.01-0.37-0.03-0.55-0.05
							c-0.19-0.03-0.37-0.06-0.55-0.11c-0.08-0.02-0.16-0.04-0.23-0.06c-0.09-0.03-0.19-0.04-0.28-0.07
							c-0.14-0.05-0.26-0.11-0.4-0.16c-0.07-0.03-0.13-0.05-0.2-0.08c-2.28-0.92-4.15-2.63-5.48-4.75c-1.3-1.81-2.35-3.91-3.01-5.98
							c-1.97-0.88-4.05-2.13-4.29-5.15C102.56,168.83,103.63,165.87,105.58,165.98z"/>
						<g>
							<g>
								<path class="st11" d="M119.31,181.35c1.41-0.22,3.03-1,3.98-3.15c0.08-0.18,0-0.38-0.18-0.46c-0.17-0.08-0.38,0-0.46,0.18
									c-1.7,3.84-5.74,2.67-5.91,2.62c-0.19-0.06-0.38,0.05-0.44,0.23c-0.06,0.19,0.05,0.38,0.23,0.44
									C116.56,181.22,117.82,181.59,119.31,181.35z"/>
							</g>
							<g>
								<path class="st11" d="M125,173.66c-0.14,0.65-0.77,1.06-1.41,0.92c-0.64-0.14-1.05-0.77-0.91-1.42
									c0.14-0.65,0.77-1.06,1.41-0.92C124.74,172.38,125.14,173.01,125,173.66z"/>
							</g>
							<g>
								<path class="st11" d="M115.47,172.27c-0.14,0.65-0.77,1.06-1.41,0.92c-0.64-0.14-1.05-0.77-0.91-1.42
									c0.14-0.65,0.77-1.06,1.41-0.92C115.2,170.99,115.61,171.62,115.47,172.27z"/>
							</g>
							<g>
								<path class="st11" d="M126.87,170.9c0.01,0,0.02-0.01,0.04-0.01c0.19-0.05,0.3-0.24,0.25-0.43
									c-0.61-2.23-2.51-2.43-3.44-2.24c-0.19,0.04-0.31,0.23-0.27,0.42c0.04,0.19,0.21,0.31,0.42,0.27
									c0.06-0.01,2.03-0.4,2.62,1.74C126.53,170.82,126.7,170.93,126.87,170.9z"/>
							</g>
							<g>
								<path class="st11" d="M116.6,168.03c0.01-0.01,0.02-0.02,0.02-0.03c0.11-0.16,0.08-0.38-0.08-0.49
									c-1.89-1.34-3.49-0.28-4.08,0.46c-0.12,0.15-0.09,0.37,0.06,0.49c0.15,0.12,0.36,0.11,0.49-0.05
									c0.04-0.05,1.32-1.6,3.12-0.32C116.28,168.19,116.49,168.16,116.6,168.03z"/>
							</g>
							<g>
								<path class="st11" d="M117.38,177.5c0.19,0.03,0.36-0.1,0.39-0.29c0.03-0.19-0.1-0.36-0.28-0.39
									c-0.01,0-0.65-0.11-0.76-0.48c-0.05-0.17-0.05-0.68,1.05-1.7c0.14-0.13,0.14-0.34,0.02-0.48c-0.13-0.14-0.34-0.14-0.48-0.02
									c-1.03,0.96-1.44,1.75-1.23,2.4C116.32,177.33,117.34,177.49,117.38,177.5L117.38,177.5z"/>
							</g>
						</g>
					</g>
					<g>
						<path class="st11" d="M135.38,164.67c-0.22-2.36-1.33-6.39-4.08-6.79l-0.49,0.67c-0.93,4.01-0.51,9.21,1.84,12.73
							C134.03,169.4,135.62,167.15,135.38,164.67z"/>
					</g>
					<path class="st12" d="M160.47,219.34c1.64,1.94,2.25,4.37,1.93,6.68c-0.43,3.03-2.68,5.5-5.55,6.58l-26.01,7.49l-2.99-3.11
						L149.13,225l-13.58-15.05c-3.96-4.39-5.97-7.78-4.46-13.49l0.41-1.66c0.77-3.13,4.76-4.06,6.84-1.61L160.47,219.34z"/>
					<path class="st28" d="M128.65,236.57c0,0-13.06,1.05-12.91,9.24c0,0-0.15,2.83,2.38-2.53c0,0,1.19-1.64,2.08-1.49
						c0,0-3.15,4.1-3.04,5.31c0.06,0.61,1.85,1.69,4.23-4.42c0,0-2.42,6.07,0.06,5.74l1.58-5.44l-0.26,4.89c0,0,1.76,2.26,2.05-4.29
						l0,0c0.02,0.01,0.03,0.02,0.05,0.02c2.45-0.37,4.4-1,5.94-3.05l0.21-0.54L128.65,236.57z"/>
					<g>
						<path class="st11" d="M134.65,161.39c-0.55-3.14-2.3-6.02-5.26-7.87c-3.73-2.33-8.84-3.08-13.13-2.22
							c-6.38,1.28-10.34,9.3-9.01,15.48c0.17,0.79,0.29,1.53,0.31,2.08c2.05-0.07,3.99-1.8,5.5-3.01c1.73-1.39,3.83-3.34,4.98-5.25
							c-1.02,2.69,1.73,5.44,3.72,6.78c-1.24-2.51,1.06-4.94,3.05-6.27c0.19,1.41-0.15,2.49,0.59,3.88c0.44,0.84,0.96,1.65,1.54,2.4
							c1.75,2.28,2.86,5.06,2.89,7.97c1.29-0.66,2.19-2.87,2.86-4.11C134.14,168.57,135.14,164.22,134.65,161.39z"/>
					</g>
					<path class="st12" d="M107.17,175.88c0,0.78-0.63,1.41-1.41,1.41c-0.78,0-1.41-0.63-1.41-1.41c0-0.78,0.63-1.41,1.41-1.41
						C106.54,174.47,107.17,175.1,107.17,175.88z"/>
					<path class="st12" d="M132.72,179.77c0,0.78-0.63,1.41-1.41,1.41c-0.78,0-1.41-0.63-1.41-1.41c0-0.78,0.63-1.41,1.41-1.41
						C132.09,178.36,132.72,179,132.72,179.77z"/>
					<path class="st13" d="M103.8,220.54c-0.03-0.15-0.13-0.2-0.24-0.22c-1.56-2.6-3.13-5.37-2.29-8.51
						c0.58-2.16,1.94-3.95,2.41-6.16c0.09-0.42-0.56-0.61-0.65-0.18c-0.6,2.8-2.65,5.18-2.7,8.11c-0.05,2.63,1.43,5.07,2.74,7.23
						c0.03,0.05,0.07,0.05,0.11,0.08c1.01,6.09,1.84,12.23-1,17.98c-0.19,0.39,0.39,0.73,0.58,0.34
						C105.7,233.25,104.85,226.87,103.8,220.54z"/>
					<path class="st1" d="M128.4,261.21c0.32,13.85-10.84,31.32-23.36,49.25c-0.41,0.57-0.8,1.15-1.22,1.72l-11.33-3.84l2.27-6.58
						l14.92-41.22c1.8-4.93,6.01-8.12,10.71-8.12c2.15,0,4.13,0.99,5.58,2.57C127.42,256.56,128.34,258.74,128.4,261.21z"/>
				</g>
			</g>
			<g>
				<g>
					<polygon class="st11" points="185.71,365.59 189.98,365.59 171.99,254.1 166.43,254.1 					"/>
					<polygon class="st11" points="167.42,365.59 171.69,365.59 153.7,254.1 148.14,254.1 					"/>
					<polygon class="st11" points="30.41,365.59 26.14,365.59 44.13,254.1 49.69,254.1 					"/>
					<polygon class="st11" points="48.7,365.59 44.43,365.59 62.42,254.1 67.98,254.1 					"/>
				</g>
				<path class="st32" d="M29.44,255.72h157.24c1.25,0,2.26-1.69,2.26-3.77l0,0c0-2.08-1.01-3.77-2.26-3.77H29.44
					c-1.25,0-2.26,1.69-2.26,3.77l0,0C27.19,254.03,28.19,255.72,29.44,255.72z"/>
			</g>
			<g>
				<g>
					
						<linearGradient id="SVGID_22_" gradientUnits="userSpaceOnUse" x1="38.2202" y1="229.9546" x2="38.2202" y2="164.808" gradientTransform="matrix(1 0 0 1 20.8019 0)">
						<stop  offset="0" style="stop-color:#30A9E0"/>
						<stop  offset="0.1037" style="stop-color:#4FAFE2"/>
						<stop  offset="0.527" style="stop-color:#9BC7EB"/>
						<stop  offset="0.8347" style="stop-color:#C5D9F0"/>
						<stop  offset="0.9929" style="stop-color:#D5E0F2"/>
					</linearGradient>
					<polygon class="st33" points="24.67,188.42 85.51,188.42 93.38,236.45 32.54,236.45 					"/>
					
						<linearGradient id="SVGID_23_" gradientUnits="userSpaceOnUse" x1="36.5696" y1="207.9979" x2="43.2758" y2="234.2394" gradientTransform="matrix(1 0 0 1 20.8019 0)">
						<stop  offset="0" style="stop-color:#30A9E0"/>
						<stop  offset="0.1037" style="stop-color:#4FAFE2"/>
						<stop  offset="0.527" style="stop-color:#9BC7EB"/>
						<stop  offset="0.8347" style="stop-color:#C5D9F0"/>
						<stop  offset="0.9929" style="stop-color:#D5E0F2"/>
					</linearGradient>
					<polygon class="st34" points="43.98,206.29 71.91,206.29 75.53,228.34 47.59,228.34 					"/>
					
						<linearGradient id="SVGID_24_" gradientUnits="userSpaceOnUse" x1="51.111" y1="216.308" x2="56.1089" y2="216.308" gradientTransform="matrix(1 0 0 1 20.8019 0)">
						<stop  offset="0" style="stop-color:#30A9E0"/>
						<stop  offset="0.1037" style="stop-color:#4FAFE2"/>
						<stop  offset="0.527" style="stop-color:#9BC7EB"/>
						<stop  offset="0.8347" style="stop-color:#C5D9F0"/>
						<stop  offset="0.9929" style="stop-color:#D5E0F2"/>
					</linearGradient>
					<polygon class="st35" points="71.91,206.29 73.43,204.27 76.91,226.43 75.53,228.34 					"/>
					
						<linearGradient id="SVGID_25_" gradientUnits="userSpaceOnUse" x1="23.1778" y1="205.2823" x2="52.6264" y2="205.2823" gradientTransform="matrix(1 0 0 1 20.8019 0)">
						<stop  offset="0" style="stop-color:#30A9E0"/>
						<stop  offset="0.1037" style="stop-color:#4FAFE2"/>
						<stop  offset="0.527" style="stop-color:#9BC7EB"/>
						<stop  offset="0.8347" style="stop-color:#C5D9F0"/>
						<stop  offset="0.9929" style="stop-color:#D5E0F2"/>
					</linearGradient>
					<polygon class="st36" points="73.43,204.27 45.4,204.27 43.98,206.29 71.91,206.29 					"/>
					
						<linearGradient id="SVGID_26_" gradientUnits="userSpaceOnUse" x1="64.7046" y1="211.4876" x2="73.888" y2="211.4876" gradientTransform="matrix(1 0 0 1 20.8019 0)">
						<stop  offset="0" style="stop-color:#30A9E0"/>
						<stop  offset="0.1037" style="stop-color:#4FAFE2"/>
						<stop  offset="0.527" style="stop-color:#9BC7EB"/>
						<stop  offset="0.8347" style="stop-color:#C5D9F0"/>
						<stop  offset="0.9929" style="stop-color:#D5E0F2"/>
					</linearGradient>
					<polygon class="st37" points="93.38,236.45 94.69,234.44 87.15,186.53 85.51,188.42 					"/>
					
						<linearGradient id="SVGID_27_" gradientUnits="userSpaceOnUse" x1="3.8643" y1="187.4732" x2="66.3443" y2="187.4732" gradientTransform="matrix(1 0 0 1 20.8019 0)">
						<stop  offset="0" style="stop-color:#30A9E0"/>
						<stop  offset="0.1037" style="stop-color:#4FAFE2"/>
						<stop  offset="0.527" style="stop-color:#9BC7EB"/>
						<stop  offset="0.8347" style="stop-color:#C5D9F0"/>
						<stop  offset="0.9929" style="stop-color:#D5E0F2"/>
					</linearGradient>
					<polygon class="st38" points="87.15,186.53 26.14,186.53 24.67,188.42 85.51,188.42 					"/>
				</g>
				
					<linearGradient id="SVGID_28_" gradientUnits="userSpaceOnUse" x1="40.2292" y1="247.3422" x2="40.2292" y2="242.0618" gradientTransform="matrix(1 0 0 1 20.8019 0)">
					<stop  offset="7.131410e-03" style="stop-color:#D5E0F2"/>
					<stop  offset="0.1653" style="stop-color:#C5D9F0"/>
					<stop  offset="0.473" style="stop-color:#9BC7EB"/>
					<stop  offset="0.8963" style="stop-color:#4FAFE2"/>
					<stop  offset="1" style="stop-color:#30A9E0"/>
				</linearGradient>
				<path class="st39" d="M45.44,243.93h31.18c2.27,0,4.12,1.84,4.12,4.12l0,0H41.32l0,0C41.32,245.78,43.17,243.93,45.44,243.93z"
					/>
				
					<linearGradient id="SVGID_29_" gradientUnits="userSpaceOnUse" x1="39.6543" y1="246.905" x2="39.6543" y2="217.4531" gradientTransform="matrix(1 0 0 1 20.8019 0)">
					<stop  offset="0" style="stop-color:#30A9E0"/>
					<stop  offset="0.1037" style="stop-color:#4FAFE2"/>
					<stop  offset="0.527" style="stop-color:#9BC7EB"/>
					<stop  offset="0.8347" style="stop-color:#C5D9F0"/>
					<stop  offset="0.9929" style="stop-color:#D5E0F2"/>
				</linearGradient>
				<path class="st40" d="M70.72,243.93l-1.67-21.05c-0.36-4.48-4.1-7.94-8.59-7.94h0c-4.5,0-8.24,3.46-8.59,7.94l-1.67,21.05H70.72
					z"/>
			</g>
		</g>
		<g>
			<g>
				<g>
					<g>
						
							<linearGradient id="SVGID_30_" gradientUnits="userSpaceOnUse" x1="378.8292" y1="201.6755" x2="429.9714" y2="201.6755" gradientTransform="matrix(1 0 0 1 20.8019 0)">
							<stop  offset="0.0117" style="stop-color:#1F94A5"/>
							<stop  offset="0.2682" style="stop-color:#47A1A7"/>
							<stop  offset="0.9961" style="stop-color:#8ACDAA"/>
						</linearGradient>
						<path class="st41" d="M399.64,201.15c0.09-4.54,1.88-9.42,5.78-11.94c4.73-3.06,9.72-0.29,14.45,1.87
							c-1.39-3.55-5.56-4.56-8.43-6.52c12.67-8.26,29.03-6.36,29.03-6.36s9.67,11.31,10.12,16.62c-2.73-0.64-5.42-1.56-8.26-1.9
							c2.72,1,6.86,5.09,8.17,8.84c1.09,3.15-1.25,8.74-2.75,11.72c-2.96,5.89-12.84,16.95-19.64,9.18
							c-5.68-6.49-3.16-15.48-14.69-12.67C404.78,212.09,399.42,211.91,399.64,201.15z"/>
					</g>
					<path class="st1" d="M407.76,267.46c-0.51-15.56-0.96-31.53,3.62-46.59c1.7-5.6,4.11-11.53,7-16.85
						c-1.27-0.77-2.39-2.05-3.64-2.79c-2.08-1.23-4.34-2.02-6.71-2.48c-0.77-0.15-0.41-1.31,0.35-1.17c2.06,0.4,4.05,1.06,5.92,2.02
						c0.91,0.46,1.78,1,2.61,1.59c0.63,0.45,1.34,1.22,2.07,1.73c0.52-0.91,1.04-1.8,1.59-2.66c0.19-0.3,0.41-0.59,0.62-0.89
						c-1.74-2.57-3.87-4.75-6.42-6.53c-0.64-0.45-0.01-1.49,0.63-1.04c2.56,1.79,4.72,3.98,6.51,6.52c1.4-1.91,3.01-3.72,4.71-5.46
						c-0.91-2.81-2.21-5.42-3.88-7.85c-0.44-0.65,0.62-1.23,1.06-0.59c1.6,2.33,2.83,4.83,3.76,7.49c1.74-1.73,3.54-3.4,5.31-5.06
						c-0.85-1.69-1.63-3.4-2.35-5.15c-0.3-0.72,0.77-1.31,1.06-0.59c0.68,1.65,1.42,3.27,2.22,4.87c1.05-0.98,2.08-1.97,3.06-2.95
						c0.55-0.55,1.4,0.32,0.84,0.88c-0.91,0.91-1.87,1.83-2.84,2.74c2.33,0.14,4.67,0.29,7,0.43c0.78,0.05,0.75,1.26-0.04,1.22
						c-2.52-0.16-5.05-0.31-7.57-0.47c-0.19-0.01-0.33-0.09-0.42-0.21c-1.72,1.61-3.48,3.24-5.17,4.93c2.24,0.1,4.43,0.48,6.62,0.99
						c1.96,0.46,3.96,0.77,5.48,2.17c0.58,0.53-0.3,1.37-0.88,0.84c-1.47-1.35-3.84-1.61-5.72-2.03c-2.14-0.47-4.27-0.79-6.47-0.81
						c-0.06,0-0.1-0.02-0.15-0.03c-1.5,1.55-2.93,3.14-4.2,4.81c6.08,0.62,12.12,1.76,16.78,6.03c0.58,0.53-0.3,1.37-0.88,0.84
						c-4.62-4.23-10.73-5.16-16.75-5.73c-0.5,0.71-0.98,1.42-1.41,2.16c-0.32,0.54-0.62,1.1-0.93,1.65c2.95,0.67,6.08,1.16,8.7,2.73
						c2.27,1.35,4.01,3.35,5.54,5.46c0.46,0.63-0.61,1.22-1.06,0.59c-1.55-2.14-3.38-4.15-5.76-5.38c-2.45-1.26-5.35-1.67-8.01-2.29
						c-0.01,0-0.02,0-0.02,0c-3.18,5.88-5.82,12.25-7.58,18.61c-3.98,14.39-3.49,29.56-3.01,44.33
						C409,268.28,407.78,268.24,407.76,267.46z"/>
				</g>
				<g>
					<g>
						
							<linearGradient id="SVGID_31_" gradientUnits="userSpaceOnUse" x1="349.8276" y1="217.3819" x2="390.9944" y2="217.3819" gradientTransform="matrix(1 0 0 1 20.8019 0)">
							<stop  offset="0.0117" style="stop-color:#1F94A5"/>
							<stop  offset="0.2682" style="stop-color:#47A1A7"/>
							<stop  offset="0.9961" style="stop-color:#8ACDAA"/>
						</linearGradient>
						<path class="st42" d="M411.79,216.96c-0.07-3.66-1.51-7.58-4.65-9.61c-3.81-2.47-7.83-0.24-11.63,1.5
							c1.12-2.86,4.48-3.67,6.79-5.25c-10.2-6.65-23.37-5.12-23.37-5.12s-7.78,9.11-8.15,13.38c2.2-0.51,4.36-1.25,6.65-1.53
							c-2.19,0.8-5.53,4.1-6.57,7.12c-0.88,2.54,1.01,7.03,2.21,9.43c2.38,4.74,10.33,13.65,15.81,7.39
							c4.57-5.22,2.55-12.46,11.82-10.2C407.65,225.77,411.97,225.62,411.79,216.96z"/>
					</g>
					<path class="st1" d="M405.26,270.34c0.41-12.52,0.77-25.38-2.91-37.5c-1.37-4.51-3.31-9.28-5.64-13.56
						c1.02-0.62,1.92-1.65,2.93-2.25c1.67-0.99,3.49-1.63,5.4-2c0.62-0.12,0.33-1.06-0.28-0.94c-1.66,0.32-3.26,0.85-4.76,1.62
						c-0.73,0.37-1.43,0.8-2.1,1.28c-0.5,0.36-1.08,0.98-1.67,1.39c-0.41-0.73-0.84-1.45-1.28-2.14c-0.15-0.24-0.33-0.47-0.5-0.71
						c1.4-2.07,3.11-3.82,5.17-5.26c0.51-0.36,0.01-1.2-0.51-0.84c-2.06,1.44-3.8,3.2-5.24,5.25c-1.13-1.54-2.43-2.99-3.79-4.39
						c0.73-2.26,1.78-4.36,3.12-6.32c0.36-0.52-0.5-0.99-0.86-0.48c-1.29,1.88-2.28,3.89-3.02,6.03c-1.4-1.39-2.85-2.74-4.28-4.07
						c0.68-1.36,1.32-2.74,1.89-4.14c0.24-0.58-0.62-1.06-0.86-0.48c-0.55,1.33-1.15,2.63-1.79,3.92c-0.84-0.79-1.67-1.58-2.47-2.38
						c-0.45-0.45-1.12,0.26-0.68,0.7c0.74,0.74,1.51,1.47,2.29,2.21c-1.88,0.12-3.76,0.23-5.64,0.35c-0.63,0.04-0.6,1.02,0.03,0.98
						c2.03-0.12,4.06-0.25,6.1-0.37c0.15-0.01,0.26-0.08,0.34-0.17c1.39,1.3,2.8,2.61,4.16,3.97c-1.8,0.08-3.57,0.39-5.33,0.8
						c-1.58,0.37-3.19,0.62-4.41,1.75c-0.46,0.43,0.24,1.1,0.7,0.68c1.18-1.09,3.09-1.3,4.61-1.63c1.72-0.38,3.44-0.64,5.2-0.65
						c0.05,0,0.08-0.02,0.12-0.03c1.21,1.25,2.36,2.53,3.38,3.87c-4.9,0.5-9.75,1.42-13.51,4.85c-0.47,0.43,0.24,1.1,0.7,0.68
						c3.72-3.4,8.64-4.15,13.48-4.62c0.4,0.57,0.79,1.14,1.13,1.74c0.26,0.44,0.5,0.89,0.75,1.33c-2.37,0.54-4.89,0.94-7.01,2.19
						c-1.82,1.08-3.23,2.7-4.46,4.4c-0.37,0.51,0.49,0.98,0.86,0.48c1.24-1.73,2.72-3.34,4.64-4.33c1.97-1.02,4.31-1.35,6.45-1.84
						c0.01,0,0.01,0,0.02,0c2.56,4.73,4.69,9.86,6.1,14.98c3.2,11.58,2.81,23.79,2.42,35.69C404.26,271,405.24,270.97,405.26,270.34
						z"/>
				</g>
				<g>
					<g>
						
							<linearGradient id="SVGID_32_" gradientUnits="userSpaceOnUse" x1="392.29" y1="224.3885" x2="435.9009" y2="224.3885" gradientTransform="matrix(1 0 0 1 20.8019 0)">
							<stop  offset="0.0117" style="stop-color:#1F94A5"/>
							<stop  offset="0.2682" style="stop-color:#47A1A7"/>
							<stop  offset="0.9961" style="stop-color:#8ACDAA"/>
						</linearGradient>
						<path class="st43" d="M413.71,217.54c0.98-3.7,3.4-7.33,7.1-8.62c4.48-1.57,8.01,1.69,11.45,4.4
							c-0.43-3.18-3.64-4.83-5.61-7.01c12-4.24,25.01,0.56,25.01,0.56s5.66,11.17,4.98,15.6c-2.11-1.06-4.12-2.35-6.38-3.19
							c2.02,1.35,4.6,5.53,4.92,8.86c0.27,2.79-2.76,6.9-4.58,9.04c-3.59,4.23-13.87,11.32-17.89,3.61
							c-3.36-6.44,0.48-13.29-9.5-13.28C415.75,227.51,411.4,226.3,413.71,217.54z"/>
					</g>
					<path class="st1" d="M407.2,273.39c2.67-12.83,5.47-25.98,12.2-37.39c2.5-4.25,5.65-8.62,9.07-12.39
						c-0.89-0.88-1.55-2.15-2.42-3c-1.46-1.42-3.15-2.52-4.99-3.36c-0.6-0.27-0.08-1.16,0.52-0.88c1.61,0.74,3.1,1.67,4.44,2.82
						c0.65,0.56,1.26,1.17,1.82,1.82c0.42,0.49,0.86,1.26,1.35,1.82c0.6-0.64,1.21-1.27,1.83-1.86c0.22-0.21,0.46-0.4,0.68-0.6
						c-0.91-2.45-2.22-4.65-3.95-6.61c-0.43-0.49,0.29-1.22,0.72-0.72c1.74,1.97,3.07,4.19,4.04,6.62c1.53-1.29,3.2-2.44,4.94-3.53
						c-0.19-2.48-0.73-4.87-1.61-7.19c-0.23-0.62,0.75-0.88,0.99-0.27c0.85,2.23,1.36,4.51,1.59,6.87c1.76-1.07,3.57-2.08,5.35-3.08
						c-0.36-1.55-0.66-3.11-0.9-4.68c-0.1-0.64,0.89-0.92,0.99-0.27c0.23,1.48,0.52,2.96,0.85,4.42c1.05-0.6,2.09-1.2,3.09-1.81
						c0.56-0.34,1.08,0.54,0.52,0.88c-0.93,0.57-1.89,1.12-2.87,1.68c1.88,0.58,3.76,1.16,5.64,1.74c0.63,0.19,0.36,1.18-0.27,0.99
						c-2.03-0.63-4.07-1.26-6.1-1.88c-0.15-0.05-0.25-0.14-0.3-0.25c-1.73,0.98-3.49,1.96-5.21,3.01c1.81,0.53,3.53,1.27,5.22,2.13
						c1.51,0.76,3.09,1.42,4.05,2.86c0.37,0.55-0.52,1.06-0.88,0.52c-0.93-1.4-2.82-2.08-4.28-2.79c-1.66-0.81-3.34-1.49-5.13-1.94
						c-0.05-0.01-0.08-0.04-0.12-0.06c-1.53,0.97-3.02,1.99-4.39,3.1c4.85,1.71,9.56,3.84,12.53,8.26c0.37,0.55-0.52,1.06-0.88,0.52
						c-2.94-4.38-7.76-6.35-12.56-8.01c-0.55,0.48-1.08,0.97-1.58,1.49c-0.37,0.38-0.73,0.78-1.09,1.17
						c2.28,1.13,4.74,2.16,6.58,3.96c1.59,1.55,2.62,3.54,3.45,5.57c0.25,0.61-0.74,0.87-0.99,0.27c-0.84-2.06-1.94-4.07-3.64-5.55
						c-1.75-1.52-4.05-2.43-6.1-3.46c-0.01,0-0.01,0-0.02-0.01c-3.76,4.18-7.19,8.86-9.9,13.72c-6.11,10.98-8.72,23.48-11.26,35.67
						C408.05,274.31,407.06,274.04,407.2,273.39z"/>
				</g>
			</g>
			<g>
				<g>
					<g>
						
							<linearGradient id="SVGID_33_" gradientUnits="userSpaceOnUse" x1="380.9882" y1="233.3764" x2="410.189" y2="233.3764" gradientTransform="matrix(1 0 0 1 20.8019 0)">
							<stop  offset="0.0117" style="stop-color:#1F94A5"/>
							<stop  offset="0.2682" style="stop-color:#47A1A7"/>
							<stop  offset="0.9961" style="stop-color:#8ACDAA"/>
						</linearGradient>
						<path class="st44" d="M401.79,233.08c0.05-2.59,1.07-5.38,3.3-6.82c2.7-1.75,5.55-0.17,8.25,1.07
							c-0.79-2.03-3.17-2.6-4.82-3.72c7.23-4.72,16.57-3.63,16.57-3.63s5.52,6.46,5.78,9.49c-1.56-0.36-3.09-0.89-4.71-1.08
							c1.55,0.57,3.92,2.91,4.66,5.05c0.62,1.8-0.71,4.99-1.57,6.69c-1.69,3.37-7.33,9.68-11.22,5.24
							c-3.24-3.71-1.81-8.84-8.39-7.23C404.73,239.33,401.67,239.22,401.79,233.08z"/>
					</g>
					<path class="st1" d="M406.43,270.94c-0.29-8.88-0.55-18,2.07-26.6c0.97-3.2,2.35-6.58,4-9.62c-0.73-0.44-1.36-1.17-2.08-1.59
						c-1.19-0.7-2.48-1.16-3.83-1.42c-0.44-0.08-0.24-0.75,0.2-0.67c1.18,0.23,2.31,0.6,3.38,1.15c0.52,0.27,1.02,0.57,1.49,0.91
						c0.36,0.26,0.77,0.69,1.18,0.99c0.29-0.52,0.59-1.03,0.91-1.52c0.11-0.17,0.24-0.34,0.35-0.51c-0.99-1.47-2.21-2.71-3.66-3.73
						c-0.36-0.26-0.01-0.85,0.36-0.59c1.46,1.02,2.7,2.27,3.72,3.72c0.8-1.09,1.72-2.12,2.69-3.12c-0.52-1.61-1.26-3.09-2.21-4.48
						c-0.25-0.37,0.36-0.7,0.61-0.34c0.91,1.33,1.62,2.76,2.14,4.27c0.99-0.99,2.02-1.94,3.03-2.89c-0.48-0.96-0.93-1.94-1.34-2.94
						c-0.17-0.41,0.44-0.75,0.61-0.34c0.39,0.94,0.81,1.87,1.27,2.78c0.6-0.56,1.19-1.12,1.75-1.68c0.32-0.32,0.8,0.18,0.48,0.5
						c-0.52,0.52-1.07,1.04-1.62,1.57c1.33,0.08,2.67,0.16,4,0.25c0.44,0.03,0.43,0.72-0.02,0.69c-1.44-0.09-2.88-0.18-4.32-0.27
						c-0.11-0.01-0.19-0.05-0.24-0.12c-0.98,0.92-1.98,1.85-2.95,2.81c1.28,0.06,2.53,0.28,3.78,0.57c1.12,0.26,2.26,0.44,3.13,1.24
						c0.33,0.3-0.17,0.78-0.5,0.48c-0.84-0.77-2.19-0.92-3.27-1.16c-1.22-0.27-2.44-0.45-3.69-0.46c-0.03,0-0.06-0.01-0.09-0.02
						c-0.85,0.88-1.67,1.79-2.4,2.75c3.47,0.35,6.92,1,9.58,3.44c0.33,0.3-0.17,0.78-0.5,0.48c-2.64-2.41-6.13-2.95-9.56-3.27
						c-0.28,0.4-0.56,0.81-0.8,1.23c-0.18,0.31-0.36,0.63-0.53,0.94c1.68,0.38,3.47,0.66,4.97,1.56c1.29,0.77,2.29,1.91,3.16,3.12
						c0.26,0.36-0.35,0.7-0.61,0.34c-0.88-1.22-1.93-2.37-3.29-3.07c-1.4-0.72-3.06-0.95-4.57-1.31c0,0-0.01,0-0.01,0
						c-1.81,3.36-3.32,6.99-4.33,10.63c-2.27,8.22-1.99,16.88-1.72,25.31C407.14,271.41,406.44,271.38,406.43,270.94z"/>
				</g>
				<g>
					<g>
						
							<linearGradient id="SVGID_34_" gradientUnits="userSpaceOnUse" x1="364.4292" y1="242.3443" x2="387.9342" y2="242.3443" gradientTransform="matrix(1 0 0 1 20.8019 0)">
							<stop  offset="0.0117" style="stop-color:#1F94A5"/>
							<stop  offset="0.2682" style="stop-color:#47A1A7"/>
							<stop  offset="0.9961" style="stop-color:#8ACDAA"/>
						</linearGradient>
						<path class="st45" d="M408.73,242.1c-0.04-2.09-0.86-4.33-2.66-5.49c-2.18-1.41-4.47-0.14-6.64,0.86
							c0.64-1.63,2.56-2.1,3.88-3c-5.82-3.8-13.34-2.92-13.34-2.92s-4.44,5.2-4.65,7.64c1.26-0.29,2.49-0.71,3.79-0.87
							c-1.25,0.46-3.15,2.34-3.75,4.07c-0.5,1.45,0.58,4.02,1.26,5.39c1.36,2.71,5.9,7.79,9.03,4.22c2.61-2.98,1.45-7.11,6.75-5.82
							C406.37,247.13,408.83,247.05,408.73,242.1z"/>
					</g>
					<path class="st1" d="M405,272.58c0.23-7.15,0.44-14.49-1.66-21.41c-0.78-2.58-1.89-5.3-3.22-7.74c0.59-0.36,1.1-0.94,1.67-1.28
						c0.96-0.57,2-0.93,3.08-1.14c0.35-0.07,0.19-0.6-0.16-0.54c-0.95,0.18-1.86,0.49-2.72,0.93c-0.42,0.21-0.82,0.46-1.2,0.73
						c-0.29,0.21-0.62,0.56-0.95,0.79c-0.24-0.42-0.48-0.83-0.73-1.22c-0.09-0.14-0.19-0.27-0.28-0.41c0.8-1.18,1.78-2.18,2.95-3
						c0.29-0.21,0-0.68-0.29-0.48c-1.18,0.82-2.17,1.83-2.99,3c-0.64-0.88-1.38-1.71-2.16-2.51c0.42-1.29,1.01-2.49,1.78-3.61
						c0.2-0.3-0.29-0.57-0.49-0.27c-0.74,1.07-1.3,2.22-1.73,3.44c-0.8-0.79-1.63-1.56-2.44-2.33c0.39-0.78,0.75-1.56,1.08-2.37
						c0.14-0.33-0.35-0.6-0.49-0.27c-0.31,0.76-0.65,1.5-1.02,2.24c-0.48-0.45-0.96-0.9-1.41-1.36c-0.25-0.25-0.64,0.15-0.39,0.4
						c0.42,0.42,0.86,0.84,1.31,1.26c-1.07,0.07-2.15,0.13-3.22,0.2c-0.36,0.02-0.34,0.58,0.02,0.56c1.16-0.07,2.32-0.14,3.48-0.21
						c0.09-0.01,0.15-0.04,0.19-0.1c0.79,0.74,1.6,1.49,2.37,2.27c-1.03,0.05-2.04,0.22-3.04,0.46c-0.9,0.21-1.82,0.36-2.52,1
						c-0.27,0.24,0.14,0.63,0.4,0.39c0.67-0.62,1.77-0.74,2.63-0.93c0.98-0.22,1.96-0.36,2.97-0.37c0.03,0,0.05-0.01,0.07-0.02
						c0.69,0.71,1.35,1.44,1.93,2.21c-2.8,0.29-5.57,0.81-7.71,2.77c-0.27,0.24,0.14,0.63,0.4,0.39c2.12-1.94,4.93-2.37,7.7-2.64
						c0.23,0.32,0.45,0.65,0.65,0.99c0.15,0.25,0.29,0.51,0.43,0.76c-1.35,0.31-2.79,0.53-4,1.25c-1.04,0.62-1.84,1.54-2.55,2.51
						c-0.21,0.29,0.28,0.56,0.49,0.27c0.71-0.99,1.55-1.91,2.65-2.47c1.12-0.58,2.46-0.77,3.68-1.05c0,0,0.01,0,0.01,0
						c1.46,2.7,2.68,5.63,3.48,8.56c1.83,6.61,1.61,13.58,1.38,20.38C404.43,272.96,404.99,272.94,405,272.58z"/>
				</g>
				<g>
					<g>
						
							<linearGradient id="SVGID_35_" gradientUnits="userSpaceOnUse" x1="388.674" y1="246.345" x2="413.5745" y2="246.345" gradientTransform="matrix(1 0 0 1 20.8019 0)">
							<stop  offset="0.0117" style="stop-color:#1F94A5"/>
							<stop  offset="0.2682" style="stop-color:#47A1A7"/>
							<stop  offset="0.9961" style="stop-color:#8ACDAA"/>
						</linearGradient>
						<path class="st46" d="M409.83,242.44c0.56-2.11,1.94-4.19,4.05-4.92c2.56-0.89,4.58,0.96,6.54,2.51
							c-0.25-1.82-2.08-2.76-3.2-4c6.85-2.42,14.28,0.32,14.28,0.32s3.23,6.38,2.85,8.91c-1.2-0.61-2.35-1.34-3.64-1.82
							c1.16,0.77,2.63,3.16,2.81,5.06c0.15,1.6-1.57,3.94-2.61,5.16c-2.05,2.42-7.92,6.46-10.21,2.06
							c-1.92-3.67,0.28-7.59-5.42-7.58C410.99,248.13,408.51,247.44,409.83,242.44z"/>
					</g>
					<path class="st1" d="M406.11,274.33c1.52-7.32,3.12-14.83,6.97-21.35c1.43-2.42,3.22-4.92,5.18-7.07
						c-0.51-0.51-0.88-1.23-1.38-1.72c-0.83-0.81-1.8-1.44-2.85-1.92c-0.34-0.16-0.04-0.66,0.3-0.5c0.92,0.42,1.77,0.95,2.54,1.61
						c0.37,0.32,0.72,0.67,1.04,1.04c0.24,0.28,0.49,0.72,0.77,1.04c0.34-0.37,0.69-0.72,1.04-1.06c0.12-0.12,0.26-0.23,0.39-0.34
						c-0.52-1.4-1.27-2.66-2.26-3.78c-0.25-0.28,0.16-0.7,0.41-0.41c0.99,1.13,1.75,2.39,2.3,3.78c0.87-0.73,1.83-1.39,2.82-2.02
						c-0.11-1.42-0.42-2.78-0.92-4.11c-0.13-0.35,0.43-0.5,0.56-0.16c0.48,1.27,0.78,2.58,0.91,3.92c1.01-0.61,2.04-1.19,3.05-1.76
						c-0.2-0.88-0.38-1.77-0.52-2.67c-0.06-0.37,0.51-0.53,0.56-0.16c0.13,0.85,0.3,1.69,0.48,2.52c0.6-0.34,1.19-0.68,1.77-1.03
						c0.32-0.2,0.62,0.31,0.29,0.5c-0.53,0.32-1.08,0.64-1.64,0.96c1.07,0.33,2.15,0.66,3.22,0.99c0.36,0.11,0.21,0.67-0.16,0.56
						c-1.16-0.36-2.32-0.72-3.48-1.08c-0.09-0.03-0.14-0.08-0.17-0.15c-0.99,0.56-1.99,1.12-2.97,1.72c1.03,0.3,2.02,0.73,2.98,1.21
						c0.86,0.43,1.76,0.81,2.31,1.64c0.21,0.31-0.3,0.61-0.5,0.29c-0.53-0.8-1.61-1.19-2.44-1.6c-0.95-0.46-1.91-0.85-2.93-1.11
						c-0.03-0.01-0.05-0.02-0.07-0.03c-0.87,0.55-1.72,1.13-2.51,1.77c2.77,0.98,5.46,2.19,7.16,4.72c0.21,0.31-0.3,0.61-0.5,0.29
						c-1.68-2.5-4.43-3.63-7.17-4.58c-0.31,0.27-0.62,0.55-0.9,0.85c-0.21,0.22-0.42,0.44-0.62,0.67c1.3,0.65,2.71,1.23,3.76,2.26
						c0.91,0.89,1.5,2.02,1.97,3.18c0.14,0.35-0.42,0.5-0.56,0.16c-0.48-1.18-1.11-2.32-2.08-3.17c-1-0.87-2.31-1.39-3.48-1.98
						c0,0-0.01,0-0.01,0c-2.15,2.39-4.11,5.06-5.65,7.84c-3.49,6.27-4.98,13.41-6.43,20.37
						C406.6,274.85,406.03,274.69,406.11,274.33z"/>
				</g>
				<g>
					<g>
						
							<linearGradient id="SVGID_36_" gradientUnits="userSpaceOnUse" x1="367.2019" y1="256.3838" x2="382.7961" y2="256.3838" gradientTransform="matrix(1 0 0 1 20.8019 0)">
							<stop  offset="0.0117" style="stop-color:#1F94A5"/>
							<stop  offset="0.2682" style="stop-color:#47A1A7"/>
							<stop  offset="0.9961" style="stop-color:#8ACDAA"/>
						</linearGradient>
						<path class="st47" d="M403.38,253.94c-0.35-1.32-1.22-2.62-2.54-3.08c-1.6-0.56-2.87,0.6-4.09,1.57c0.15-1.14,1.3-1.73,2-2.5
							c-4.29-1.52-8.94,0.2-8.94,0.2s-2.03,4-1.78,5.58c0.75-0.38,1.47-0.84,2.28-1.14c-0.72,0.48-1.65,1.98-1.76,3.17
							c-0.1,1,0.99,2.47,1.64,3.23c1.28,1.51,4.96,4.05,6.4,1.29c1.2-2.3-0.17-4.75,3.4-4.75
							C402.65,257.5,404.2,257.07,403.38,253.94z"/>
					</g>
					<path class="st1" d="M405.71,273.91c-0.95-4.59-1.96-9.29-4.36-13.37c-0.9-1.52-2.02-3.08-3.24-4.43
						c0.32-0.32,0.55-0.77,0.87-1.07c0.52-0.51,1.13-0.9,1.79-1.2c0.21-0.1,0.03-0.41-0.18-0.32c-0.58,0.26-1.11,0.6-1.59,1.01
						c-0.23,0.2-0.45,0.42-0.65,0.65c-0.15,0.18-0.31,0.45-0.48,0.65c-0.22-0.23-0.43-0.45-0.65-0.67
						c-0.08-0.08-0.16-0.14-0.24-0.22c0.33-0.87,0.79-1.66,1.41-2.37c0.16-0.18-0.1-0.44-0.26-0.26c-0.62,0.71-1.1,1.5-1.44,2.37
						c-0.55-0.46-1.14-0.87-1.77-1.26c0.07-0.89,0.26-1.74,0.58-2.57c0.08-0.22-0.27-0.32-0.35-0.1c-0.3,0.8-0.49,1.61-0.57,2.46
						c-0.63-0.38-1.28-0.74-1.91-1.1c0.13-0.55,0.24-1.11,0.32-1.67c0.04-0.23-0.32-0.33-0.35-0.1c-0.08,0.53-0.18,1.06-0.3,1.58
						c-0.38-0.21-0.75-0.43-1.11-0.65c-0.2-0.12-0.39,0.19-0.18,0.32c0.33,0.2,0.68,0.4,1.03,0.6c-0.67,0.21-1.35,0.42-2.02,0.62
						c-0.22,0.07-0.13,0.42,0.1,0.35c0.73-0.22,1.45-0.45,2.18-0.67c0.05-0.02,0.09-0.05,0.11-0.09c0.62,0.35,1.25,0.7,1.86,1.07
						c-0.65,0.19-1.26,0.46-1.87,0.76c-0.54,0.27-1.1,0.51-1.45,1.02c-0.13,0.2,0.19,0.38,0.32,0.18c0.33-0.5,1.01-0.74,1.53-1
						c0.59-0.29,1.19-0.53,1.83-0.7c0.02,0,0.03-0.01,0.04-0.02c0.55,0.35,1.08,0.71,1.57,1.11c-1.73,0.61-3.42,1.37-4.48,2.95
						c-0.13,0.2,0.19,0.38,0.32,0.18c1.05-1.56,2.77-2.27,4.49-2.87c0.2,0.17,0.39,0.35,0.56,0.53c0.13,0.14,0.26,0.28,0.39,0.42
						c-0.81,0.41-1.7,0.77-2.35,1.41c-0.57,0.56-0.94,1.26-1.23,1.99c-0.09,0.22,0.26,0.31,0.35,0.1c0.3-0.74,0.69-1.45,1.3-1.98
						c0.63-0.54,1.45-0.87,2.18-1.24c0,0,0,0,0.01,0c1.35,1.49,2.57,3.17,3.54,4.91c2.18,3.93,3.12,8.4,4.03,12.75
						C405.4,274.24,405.75,274.14,405.71,273.91z"/>
				</g>
			</g>
			
				<linearGradient id="SVGID_37_" gradientUnits="userSpaceOnUse" x1="370.4477" y1="318.6425" x2="401.0497" y2="318.6425" gradientTransform="matrix(1 0 0 1 20.8019 0)">
				<stop  offset="0.357" style="stop-color:#D5E0F2"/>
				<stop  offset="0.4595" style="stop-color:#C5D9F0"/>
				<stop  offset="0.6587" style="stop-color:#9BC7EB"/>
				<stop  offset="0.9328" style="stop-color:#4FAFE2"/>
				<stop  offset="1" style="stop-color:#30A9E0"/>
			</linearGradient>
			<path class="st48" d="M422.12,327.17c0-12.54-2.27-23.7-5.8-30.93c-3.99-8.17-5.88-17.21-5.88-26.3l0,0h-7.24l0,0
				c0,9.09-1.89,18.13-5.88,26.3c-3.53,7.23-5.8,18.4-5.8,30.93c0,17.37,4.35,32.12,10.4,37.39v2.79h9.81v-2.79
				C417.77,359.29,422.12,344.54,422.12,327.17z"/>
		</g>
	</g>
</g>
</svg>
